<?xml version="1.0" encoding="utf-8"?>
<svg viewBox="569.85 1020 136 136" xmlns="http://www.w3.org/2000/svg">
    <g>
        <path stroke="none" fill="#1B8045"
            d="M610.45 1020.65 Q615.15 1020.65 619.2 1022.5 628 1020 637.85 1020 647.65 1020 656.55 1022.5 660.5 1020.65 665.25 1020.65 673.85 1020.65 680 1026.55 L680.8 1027.3 Q686 1032.9 686.45 1040.5 694.45 1048.7 699.25 1058.3 705.85 1071.8 705.85 1088 L705.85 1090 705.85 1090.1 Q705.7 1096.3 704.55 1102.1 701.3 1118.3 690.25 1131.3 L685.9 1136.05 684.7 1137.25 684.65 1137.3 Q681.05 1140.75 677.25 1143.5 660.05 1156 637.85 1156 614.05 1156 596.1 1141.7 L591.15 1137.35 591.1 1137.3 589.8 1136.05 585.45 1131.25 585.45 1131.3 Q574.4 1118.3 571.25 1102.1 570.05 1096.35 569.9 1090.2 L569.85 1088 Q569.85 1071.8 576.5 1058.3 581.2 1048.65 589.3 1040.45 589.7 1032.6 595.3 1027 L595.35 1027 595.55 1026.8 595.55 1026.75 Q601.75 1020.65 610.45 1020.65" />
        <path stroke="none" fill="#B19A89"
            d="M624.65 1114.9 L624.5 1114.8 Q622.75 1113.05 621.95 1111.15 L621.6 1110.05 621.5 1109.6 Q621.1 1108 621.65 1106.95 L622.2 1106.25 Q622.5 1105.9 622.95 1105.7 624.1 1105.15 625.95 1105.7 L626.1 1105.7 Q628.5 1106.45 630.7 1108.6 L630.8 1108.75 631.7 1110.05 632 1111.75 Q632 1113.55 630.7 1114.8 629.45 1116.1 627.65 1116.1 625.9 1116.1 624.65 1114.9 M653.5 1106.25 L654 1106.95 Q654.55 1108 654.2 1109.6 L654.1 1110.05 653.7 1111.15 Q652.9 1113.05 651.15 1114.8 L651.05 1114.9 Q649.75 1116.1 648.05 1116.1 646.2 1116.1 644.95 1114.8 643.65 1113.55 643.65 1111.75 643.65 1110.8 644 1110.05 644.3 1109.3 644.85 1108.75 L645 1108.6 Q647.1 1106.5 649.5 1105.75 L649.7 1105.7 Q651.6 1105.15 652.75 1105.7 L653.5 1106.25" />
        <path stroke="none" fill="#EBCEB7"
            d="M624.65 1114.9 Q625.9 1116.1 627.65 1116.1 629.45 1116.1 630.7 1114.8 632 1113.55 632 1111.75 L631.7 1110.05 630.8 1108.75 630.7 1108.6 Q628.5 1106.45 626.1 1105.7 L625.95 1105.7 Q624.1 1105.15 622.95 1105.7 622.5 1105.9 622.2 1106.25 L621.65 1106.95 Q621.1 1108 621.5 1109.6 L621.6 1110.05 621.95 1111.15 Q622.75 1113.05 624.5 1114.8 L624.65 1114.9 M653.5 1106.25 L652.75 1105.7 Q651.6 1105.15 649.7 1105.7 L649.5 1105.75 Q647.1 1106.5 645 1108.6 L644.85 1108.75 Q644.3 1109.3 644 1110.05 643.65 1110.8 643.65 1111.75 643.65 1113.55 644.95 1114.8 646.2 1116.1 648.05 1116.1 649.75 1116.1 651.05 1114.9 L651.15 1114.8 Q652.9 1113.05 653.7 1111.15 L654.1 1110.05 654.2 1109.6 Q654.55 1108 654 1106.95 L653.5 1106.25 M687.2 1128.7 L683.05 1133.2 681.85 1134.4 674.9 1140.25 Q658.75 1152 637.85 1152 615.45 1152 598.6 1138.55 L593.85 1134.4 592.6 1133.2 588.5 1128.7 Q578.15 1116.5 575.15 1101.3 L580.35 1103.45 Q595.1 1109 613.6 1111.15 614.1 1106.7 617.35 1103.35 621.3 1099.45 626.85 1099.45 632.35 1099.45 636.25 1103.35 L637.85 1105.2 639.4 1103.35 Q643.35 1099.45 648.9 1099.45 654.4 1099.45 658.3 1103.35 661.65 1106.7 662.15 1111.15 680.65 1109 695.35 1103.45 L700.6 1101.3 Q697.55 1116.5 687.2 1128.7" />
        <path stroke="none" fill="#F0EDE7"
            d="M592.05 1111.1 L591.05 1106.45 Q590.95 1106.1 591.1 1105.8 591.25 1105.4 591.55 1105.25 L592.25 1105.2 606 1107.7 Q606.4 1107.75 606.7 1108.05 L607.15 1108.65 607.25 1109.45 606.3 1113.7 592.05 1111.1 M669.4 1113.7 Q668.85 1111.7 668.45 1109.45 L668.55 1108.65 669 1108.05 Q669.3 1107.75 669.7 1107.7 L683.45 1105.2 684.15 1105.25 684.6 1105.8 684.65 1106.45 683.65 1111.1 669.4 1113.7" />
        <path stroke="none" fill="#FFFCF5"
            d="M669.4 1113.7 L683.65 1111.1 Q681.65 1118.35 677.6 1124.5 L677.05 1125.05 676.35 1125.25 675.7 1125 Q671.5 1121.8 669.4 1113.7 M606.3 1113.7 Q604.2 1121.8 600 1125 L599.35 1125.25 598.65 1125.05 598.1 1124.5 Q594.05 1118.35 592.05 1111.1 L606.3 1113.7" />
        <path stroke="none" fill="#FFFFFF"
            d="M604.2 1042 Q604.2 1045.15 606.45 1047.3 608.6 1049.6 611.8 1049.6 614.95 1049.6 617.2 1047.3 L617.3 1047.25 Q618.25 1046.25 618.8 1045.1 619.45 1043.7 619.45 1042 619.45 1040.25 618.8 1038.8 618.25 1037.55 617.2 1036.55 L616.85 1036.25 Q614.7 1034.4 611.8 1034.4 608.6 1034.4 606.45 1036.55 604.2 1038.7 604.2 1042 M598.25 1041.75 L598.25 1041.7 Q598.25 1039.1 599.25 1036.9 600.1 1034.85 601.85 1033.15 605.45 1029.65 610.45 1029.65 L611.15 1029.7 Q614.25 1029.8 616.85 1031.4 L616.9 1031.45 618.8 1032.85 619.15 1033.15 Q622.65 1036.7 622.65 1041.75 622.65 1046.8 619.15 1050.25 L618.8 1050.6 617.65 1051.55 Q614.45 1053.9 610.45 1053.9 605.45 1053.9 601.85 1050.25 598.25 1046.8 598.25 1041.75 M671.6 1042 Q671.6 1038.7 669.35 1036.55 667.1 1034.4 663.95 1034.4 661.1 1034.4 658.85 1036.25 L658.5 1036.55 Q656.25 1038.7 656.25 1042 656.25 1045.1 658.45 1047.25 L658.5 1047.3 Q660.85 1049.6 663.95 1049.6 667.1 1049.6 669.35 1047.3 671.6 1045.15 671.6 1042 M677.45 1041.75 Q677.45 1046.8 673.95 1050.25 670.35 1053.9 665.25 1053.9 661.15 1053.9 658.05 1051.5 L656.7 1050.25 Q653.1 1046.8 653.1 1041.75 653.1 1036.7 656.7 1033.15 657.7 1032.15 658.8 1031.5 L658.95 1031.4 Q661.45 1029.8 664.6 1029.7 L665.25 1029.65 Q670.35 1029.65 673.95 1033.15 675.65 1034.9 676.55 1037 677.45 1039.15 677.45 1041.7 L677.45 1041.75" />
        <path stroke="none" fill="#2ECC71"
            d="M598.25 1041.75 Q598.25 1046.8 601.85 1050.25 605.45 1053.9 610.45 1053.9 614.45 1053.9 617.65 1051.55 L618.8 1050.6 619.15 1050.25 Q622.65 1046.8 622.65 1041.75 622.65 1036.7 619.15 1033.15 L618.8 1032.85 616.9 1031.45 616.85 1031.4 Q614.25 1029.8 611.15 1029.7 L610.45 1029.65 Q605.45 1029.65 601.85 1033.15 600.1 1034.85 599.25 1036.9 598.25 1039.1 598.25 1041.7 L598.25 1041.75 M618.8 1026.75 Q620.55 1027.7 622.15 1029.1 L622.05 1029.05 622.7 1029.6 622.75 1029.65 622.95 1029.95 Q627.65 1034.85 627.65 1041.75 627.6 1048.7 622.95 1053.5 L622.7 1053.8 622.35 1054.15 622.1 1054.35 Q620.3 1055.95 618.35 1057 L619.65 1064.05 618.35 1065.3 Q617.7 1066.1 617.6 1067.2 L617.6 1067.6 617.6 1067.95 Q617.7 1068.65 618.05 1069.25 618.6 1070.1 619.4 1070.25 620.25 1070.4 620.9 1069.6 L621 1069.5 623 1075.7 Q624.3 1079.2 625.7 1081.95 624.5 1082.75 623.8 1083.7 L623.85 1083.6 Q622.9 1084.6 622.8 1086.1 L622.8 1086.2 622.8 1086.45 622.8 1086.65 622.8 1086.9 Q622.9 1087.75 623.4 1088.55 L623.45 1088.6 Q624.3 1089.95 625.55 1090.1 L625.6 1090.15 Q627.15 1090.5 628.45 1089.1 L628.55 1088.95 629.2 1088.4 629.55 1088.25 629.7 1088.2 Q633.45 1092.5 637.85 1092.5 642.25 1092.5 646.05 1088.15 L646.2 1088.2 646.6 1088.4 647.25 1089 647.3 1089.05 Q648.45 1090.5 650.1 1090.15 L650.15 1090.1 Q651.4 1089.95 652.3 1088.6 L652.3 1088.55 652.9 1087 652.9 1086.9 652.95 1086.45 652.9 1085.95 Q652.75 1084.6 652 1083.7 L651.95 1083.65 Q651.2 1082.75 650.05 1081.95 L652.7 1075.7 654.75 1069.4 654.9 1069.6 Q655.5 1070.4 656.35 1070.25 657.15 1070.1 657.7 1069.25 L658.15 1067.95 658.2 1067.65 658.15 1067.2 Q658.05 1066.1 657.45 1065.3 L656.1 1064 657.35 1057 Q655.15 1055.8 653.25 1053.9 L653.1 1053.75 Q648.1 1048.85 648.1 1041.75 648.1 1034.65 653.1 1029.7 L653.2 1029.6 Q654.95 1027.85 656.95 1026.75 660.65 1024.65 665.25 1024.65 672.4 1024.65 677.45 1029.6 L677.7 1029.85 Q682.45 1034.8 682.45 1041.75 L682.45 1042.15 682 1045.75 683.05 1046.75 Q688.85 1052.55 692.85 1059.05 701.35 1072.85 701.85 1090 701.7 1095.85 700.6 1101.3 L695.35 1103.45 Q680.65 1109 662.15 1111.15 661.65 1106.7 658.3 1103.35 654.4 1099.45 648.9 1099.45 643.35 1099.45 639.4 1103.35 L637.85 1105.2 636.25 1103.35 Q632.35 1099.45 626.85 1099.45 621.3 1099.45 617.35 1103.35 614.1 1106.7 613.6 1111.15 595.1 1109 580.35 1103.45 L575.15 1101.3 Q574.05 1095.85 573.9 1090 574.35 1072.85 582.85 1059.05 586.8 1052.55 592.6 1046.75 L593.7 1045.7 Q593.3 1044 593.25 1042.1 L593.25 1041.75 Q593.25 1034.75 598.15 1029.8 L598.35 1029.6 Q603.4 1024.65 610.45 1024.65 615 1024.65 618.8 1026.75 M677.45 1041.75 L677.45 1041.7 Q677.45 1039.15 676.55 1037 675.65 1034.9 673.95 1033.15 670.35 1029.65 665.25 1029.65 L664.6 1029.7 Q661.45 1029.8 658.95 1031.4 L658.8 1031.5 Q657.7 1032.15 656.7 1033.15 653.1 1036.7 653.1 1041.75 653.1 1046.8 656.7 1050.25 L658.05 1051.5 Q661.15 1053.9 665.25 1053.9 670.35 1053.9 673.95 1050.25 677.45 1046.8 677.45 1041.75" />
        <path stroke="none" fill="#5B5B5B"
            d="M604.2 1042 Q604.2 1038.7 606.45 1036.55 608.6 1034.4 611.8 1034.4 614.7 1034.4 616.85 1036.25 L617.2 1036.55 Q618.25 1037.55 618.8 1038.8 619.45 1040.25 619.45 1042 619.45 1043.7 618.8 1045.1 618.25 1046.25 617.3 1047.25 L617.2 1047.3 Q614.95 1049.6 611.8 1049.6 608.6 1049.6 606.45 1047.3 604.2 1045.15 604.2 1042 M671.6 1042 Q671.6 1045.15 669.35 1047.3 667.1 1049.6 663.95 1049.6 660.85 1049.6 658.5 1047.3 L658.45 1047.25 Q656.25 1045.1 656.25 1042 656.25 1038.7 658.5 1036.55 L658.85 1036.25 Q661.1 1034.4 663.95 1034.4 667.1 1034.4 669.35 1036.55 671.6 1038.7 671.6 1042" />
        <path stroke="none" fill="#30D776"
            d="M622.75 1029.65 L629.85 1028.45 637.85 1028 645.85 1028.45 653.1 1029.7 Q648.1 1034.65 648.1 1041.75 648.1 1048.85 653.1 1053.75 L653.25 1053.9 Q655.15 1055.8 657.35 1057 L656.1 1064 652.95 1061.85 Q646.65 1058.45 637.9 1058.45 629.05 1058.45 622.9 1061.85 621 1062.9 619.65 1064.05 L618.35 1057 Q620.3 1055.95 622.1 1054.35 L622.35 1054.15 622.7 1053.8 622.95 1053.5 Q627.6 1048.7 627.65 1041.75 627.65 1034.85 622.95 1029.95 L622.75 1029.65 M625.7 1081.95 Q624.3 1079.2 623 1075.7 L621 1069.5 Q621.7 1068.65 622.8 1067.95 L624.35 1067.25 624.35 1067.3 Q629.95 1065.1 637.9 1065.1 645.85 1065.1 651.5 1067.3 L651.45 1067.25 653 1067.95 654.75 1069.4 652.7 1075.7 650.05 1081.95 648.5 1081 Q644.05 1078.55 637.9 1078.55 631.65 1078.55 627.3 1081 L627.25 1081 Q626.35 1081.45 625.7 1081.95 M629.7 1088.2 L629.9 1088.15 Q633.2 1086.85 637.9 1086.85 642.6 1086.85 645.95 1088.15 L646.05 1088.15 Q642.25 1092.5 637.85 1092.5 633.45 1092.5 629.7 1088.2" />
        <path stroke="none" fill="#31DE7A"
            d="M622.75 1029.65 L622.7 1029.6 622.05 1029.05 622.15 1029.1 Q620.55 1027.7 618.8 1026.75 627.75 1024 637.85 1024 647.9 1024 656.95 1026.75 654.95 1027.85 653.2 1029.6 L653.1 1029.7 645.85 1028.45 637.85 1028 629.85 1028.45 622.75 1029.65 M593.25 1042.1 Q593.3 1044 593.7 1045.7 L592.6 1046.75 Q586.8 1052.55 582.85 1059.05 574.35 1072.85 573.9 1090 L573.85 1088 Q573.85 1072.75 580.1 1060.05 584.65 1050.7 592.6 1042.75 L593.25 1042.1 M701.85 1090 Q701.35 1072.85 692.85 1059.05 688.85 1052.55 683.05 1046.75 L682 1045.75 682.45 1042.15 683.05 1042.75 Q691 1050.7 695.65 1060.05 701.85 1072.75 701.85 1088 L701.85 1090" />
        <path stroke="none" fill="#28B463"
            d="M619.65 1064.05 Q621 1062.9 622.9 1061.85 629.05 1058.45 637.9 1058.45 646.65 1058.45 652.95 1061.85 L656.1 1064 657.45 1065.3 Q658.05 1066.1 658.15 1067.2 L658.2 1067.65 658.15 1067.95 657.7 1069.25 Q657.15 1070.1 656.35 1070.25 655.5 1070.4 654.9 1069.6 L654.75 1069.4 653 1067.95 651.45 1067.25 651.5 1067.3 Q645.85 1065.1 637.9 1065.1 629.95 1065.1 624.35 1067.3 L624.35 1067.25 622.8 1067.95 Q621.7 1068.65 621 1069.5 L620.9 1069.6 Q620.25 1070.4 619.4 1070.25 618.6 1070.1 618.05 1069.25 617.7 1068.65 617.6 1067.95 L617.6 1067.6 617.6 1067.2 Q617.7 1066.1 618.35 1065.3 L619.65 1064.05 M625.7 1081.95 Q626.35 1081.45 627.25 1081 L627.3 1081 Q631.65 1078.55 637.9 1078.55 644.05 1078.55 648.5 1081 L650.05 1081.95 Q651.2 1082.75 651.95 1083.65 L652 1083.7 Q652.75 1084.6 652.9 1085.95 L652.95 1086.45 652.9 1086.9 652.9 1087 652.3 1088.55 652.3 1088.6 Q651.4 1089.95 650.15 1090.1 L650.1 1090.15 Q648.45 1090.5 647.3 1089.05 L647.25 1089 646.6 1088.4 646.2 1088.2 646.05 1088.15 645.95 1088.15 Q642.6 1086.85 637.9 1086.85 633.2 1086.85 629.9 1088.15 L629.7 1088.2 629.55 1088.25 629.2 1088.4 628.55 1088.95 628.45 1089.1 Q627.15 1090.5 625.6 1090.15 L625.55 1090.1 Q624.3 1089.95 623.45 1088.6 L623.4 1088.55 Q622.9 1087.75 622.8 1086.9 L622.8 1086.65 622.8 1086.45 622.8 1086.2 622.8 1086.1 Q622.9 1084.6 623.85 1083.6 L623.8 1083.7 Q624.5 1082.75 625.7 1081.95" />
    </g>
</svg>