<?xml version="1.0" encoding="utf-8"?>
<svg viewBox="32.5567 997.95 190.8977 178.5682" xmlns="http://www.w3.org/2000/svg">
    <g>
        <path stroke="none" fill="#6D4526"
            d="M128 1020.55 Q142.4 1020.55 154.65 1025.75 168.15 1017.7 178.55 1000.35 L178.55 1000.3 Q179.4 998.9 180.8 998.25 L181.2 998.05 184.5 997.95 Q185.6 998.2 186.5 998.95 L186.85 999.25 187 999.4 187.4 999.9 Q188.25 1001 188.45 1002.65 L188.45 1002.95 Q189.15 1024.25 177.6 1042 180.5 1045.05 182.95 1048.35 L183.35 1048.25 183.7 1048.15 Q195.85 1045.5 210.8 1048.55 L210.75 1048.55 213.5 1049.1 213.8 1049.2 Q219.8 1050.95 222.3 1057.55 L222.3 1057.6 Q224.75 1064 222 1071.8 L221.95 1071.8 Q219.25 1079.3 213.4 1083.8 L213.25 1083.9 Q208.15 1087.5 203.3 1087.55 L201.45 1087.55 201 1087.5 198.35 1086.9 196 1086.45 196 1088.55 196 1090.55 196 1090.65 Q195.55 1106.5 188.7 1119.65 183.95 1128.8 176.1 1136.6 L173.7 1138.85 169.6 1142.4 Q160.1 1149.9 149 1153.45 152.55 1160.25 150.7 1164.25 L150.55 1164.7 Q148.6 1170.8 140.45 1169.2 L140.4 1169.15 139.6 1169 139.4 1170.7 Q138.9 1173.45 137.3 1174.65 133.7 1179.1 128.2 1172.95 L128.1 1172.85 128 1172.7 127.85 1172.85 127.8 1172.9 Q122.4 1179.05 118.75 1174.7 L118.6 1174.6 Q117.15 1173.5 116.6 1170.85 L116.6 1170.8 116.4 1169 115.65 1169.15 115.6 1169.2 Q107.6 1170.75 105.55 1164.95 105.15 1164.35 105.05 1163.75 103.7 1159.8 107 1153.4 95.9 1149.85 86.45 1142.4 L86.4 1142.4 82.3 1138.85 79.95 1136.6 Q60.75 1117.5 60.05 1090.75 L60 1088.55 60.05 1086.5 57.8 1086.95 57.75 1086.95 55 1087.5 54.95 1087.5 52.7 1087.6 Q47.85 1087.5 42.75 1083.9 L42.65 1083.8 Q36.75 1079.3 34.05 1071.8 31.25 1064 33.7 1057.6 L33.7 1057.55 Q36.2 1050.95 42.25 1049.25 L42.35 1049.2 45.4 1048.55 45.2 1048.6 Q60.15 1045.55 72.35 1048.2 L72.4 1048.2 73.05 1048.35 Q75.5 1045.1 78.45 1042 66.85 1024.25 67.55 1002.95 L67.6 1002.65 Q67.75 1001 68.6 999.9 L69.05 999.4 69.2 999.25 69.5 998.95 Q70.4 998.2 71.5 997.95 L74.8 998.05 75.2 998.25 Q76.6 998.9 77.45 1000.3 L77.5 1000.35 Q87.85 1017.7 101.4 1025.75 113.6 1020.55 128 1020.55" />
        <path stroke="none" fill="#704E35"
            d="M146.95 1162.9 Q146.45 1161.1 145.25 1158.9 142.6 1153.65 137.55 1149.4 127.6 1141.75 118.45 1149.4 113.4 1153.65 110.7 1158.9 109.5 1161.1 109.05 1162.95 108 1160 110.7 1154.9 113.4 1149.65 118.45 1145.4 127.6 1137.75 137.55 1145.4 142.6 1149.65 145.25 1154.9 148 1160 146.95 1162.9" />
        <path stroke="none" fill="#5F422D"
            d="M146.95 1162.9 L146.85 1163.05 Q145.7 1166.15 141.2 1165.25 138.15 1164.6 134.8 1162.35 135.35 1164.55 135.5 1166.6 L135.55 1166.85 Q135.7 1168.75 135.45 1170 135.25 1171.15 134.65 1171.65 133.4 1172.75 131.15 1170.25 129.45 1168.25 128 1164.95 126.5 1168.25 124.8 1170.25 122.6 1172.75 121.3 1171.65 120.75 1171.15 120.5 1170 120.25 1168.75 120.45 1166.9 L120.45 1166.6 Q120.65 1164.55 121.2 1162.35 117.85 1164.6 114.8 1165.25 110.3 1166.15 109.1 1163.05 L109.05 1162.95 Q109.5 1161.1 110.7 1158.9 113.4 1153.65 118.45 1149.4 127.6 1141.75 137.55 1149.4 142.6 1153.65 145.25 1158.9 146.45 1161.1 146.95 1162.9" />
        <path stroke="none" fill="#4F3725"
            d="M64.5 1081.1 Q62.95 1080.6 61.25 1079.4 57.6 1076.6 55.95 1072.05 54.3 1067.55 55.65 1063.7 57 1060.4 60.05 1059.55 L61.95 1059.1 Q72 1057.05 80.3 1058.8 L81.65 1059.25 85 1060.3 85.3 1060.9 Q86.5 1064.3 84.75 1067.65 83.2 1070.7 79.25 1073.75 73.75 1078 65.95 1080.65 L64.5 1081.1 M191.5 1081.05 L190.05 1080.65 Q182.25 1078 176.75 1073.7 172.8 1070.7 171.25 1067.65 169.8 1064.8 170.35 1062 L170.7 1060.85 171 1060.25 172.65 1059.7 174.35 1059.2 175.7 1058.8 Q184 1057 194.05 1059.1 195.1 1059.15 195.95 1059.55 199 1060.4 200.35 1063.7 201.7 1067.5 200.05 1072 198.4 1076.55 194.75 1079.4 193.05 1080.55 191.5 1081.05" />
        <path stroke="none" fill="#5F422D"
            d="M191.5 1081.05 Q193.05 1080.55 194.75 1079.4 198.4 1076.55 200.05 1072 201.7 1067.5 200.35 1063.7 199 1060.4 195.95 1059.55 195.1 1059.15 194.05 1059.1 184 1057 175.7 1058.8 L174.35 1059.2 172.65 1059.7 171 1060.25 171.25 1059.75 Q173.15 1056.2 178.3 1054 180.55 1053.1 183.3 1052.4 193.65 1050.75 206 1053.2 L208.8 1053.85 Q212.95 1055.05 214.75 1059.7 216.6 1065 214.4 1071.2 212.15 1077.6 207 1081.4 205.05 1082.95 203 1083.55 L201.8 1083.55 199 1082.95 196 1082.35 191.5 1081.05 M85 1060.3 L81.65 1059.25 80.3 1058.8 Q72 1057.05 61.95 1059.1 L60.05 1059.55 Q57 1060.4 55.65 1063.7 54.3 1067.55 55.95 1072.05 57.6 1076.6 61.25 1079.4 62.95 1080.6 64.5 1081.1 L60 1082.4 57 1083 54.2 1083.55 53 1083.6 Q50.95 1082.95 49 1081.4 43.9 1077.65 41.6 1071.2 39.4 1065 41.25 1059.75 43.05 1055.1 47.2 1053.85 L50 1053.2 Q62.35 1050.75 72.7 1052.4 82 1054.75 84.75 1059.75 L85 1060.3" />
        <path stroke="none" fill="#704E35"
            d="M72.7 1052.4 Q62.35 1050.75 50 1053.2 L47.2 1053.85 Q43.05 1055.1 41.25 1059.75 39.4 1065 41.6 1071.2 43.9 1077.65 49 1081.4 50.95 1082.95 53 1083.6 49.15 1083.5 45.05 1080.6 40.1 1076.8 37.8 1070.45 35.55 1064.15 37.45 1058.95 39.2 1054.3 43.4 1053.05 L46 1052.5 Q60.05 1049.65 71.5 1052.1 L72.7 1052.4 M183.3 1052.4 L184.5 1052.05 Q195.95 1049.6 210 1052.45 L212.6 1053 Q216.8 1054.3 218.55 1058.95 220.45 1064.15 218.2 1070.45 215.9 1076.8 210.95 1080.6 206.85 1083.5 203 1083.55 205.05 1082.95 207 1081.4 212.15 1077.6 214.4 1071.2 216.6 1065 214.75 1059.7 212.95 1055.05 208.8 1053.85 L206 1053.2 Q193.65 1050.75 183.3 1052.4" />
        <path stroke="none" fill="#BD7841"
            d="M192 1090.55 Q191.3 1065.35 173.25 1047.25 158.15 1032.2 138 1029.25 L128 1028.55 118 1029.25 Q97.85 1032.2 82.75 1047.25 64.7 1065.35 64.05 1090.55 L64 1088.55 Q64 1072.2 71.15 1058.75 75.3 1051 81.85 1044.2 L82.75 1043.25 Q85.3 1040.7 87.95 1038.55 L89.65 1037.2 Q106.2 1024.55 128 1024.55 149.85 1024.55 166.4 1037.25 L168.1 1038.6 173.25 1043.25 174.2 1044.25 Q180.7 1051 184.85 1058.75 192 1072.2 192 1088.55 L192 1090.55" />
        <path stroke="none" fill="#A16639"
            d="M192 1090.55 Q191.6 1105.45 185.15 1117.8 180.65 1126.4 173.25 1133.75 L171 1135.9 167.1 1139.25 Q150.9 1125.5 128 1125.5 105.15 1125.5 88.9 1139.25 L85 1135.9 82.75 1133.75 Q64.7 1115.75 64.05 1090.55 64.7 1065.35 82.75 1047.25 97.85 1032.2 118 1029.25 L128 1028.55 138 1029.25 Q158.15 1032.2 173.25 1047.25 191.3 1065.35 192 1090.55 M145.5 1060.35 Q145.5 1050 140.35 1042.75 135.25 1035.5 128 1035.5 120.75 1035.5 115.6 1042.75 110.5 1050 110.5 1060.35 L110.55 1062.05 Q110.9 1083.1 115.6 1098.3 120.75 1115 128 1115 135.25 1115 140.35 1098.3 145.1 1083.1 145.5 1062.05 L145.5 1060.35" />
        <path stroke="none" fill="#B6733F"
            d="M145.5 1060.35 L145.5 1062.05 Q145.1 1083.1 140.35 1098.3 135.25 1115 128 1115 120.75 1115 115.6 1098.3 110.9 1083.1 110.55 1062.05 L110.5 1060.35 Q110.5 1050 115.6 1042.75 120.75 1035.5 128 1035.5 135.25 1035.5 140.35 1042.75 145.5 1050 145.5 1060.35" />
        <path stroke="none" fill="#955E34"
            d="M88.9 1139.25 Q105.15 1125.5 128 1125.5 150.9 1125.5 167.1 1139.25 150.3 1152.55 128 1152.55 105.7 1152.55 88.9 1139.25" />
        <path stroke="none" fill="#464646"
            d="M123.5 1131.8 L123.2 1131.7 123.25 1131.7 Q120.35 1130.65 118.05 1128.35 115.7 1126.05 114.75 1123.15 114.6 1122.75 114.8 1122.4 L115.3 1121.9 116.05 1121.85 119.85 1122.95 Q128.4 1124.85 136.2 1122.95 L136.25 1122.95 140.05 1121.9 140.75 1121.95 141.3 1122.45 141.3 1123.2 Q140.25 1126.05 137.95 1128.35 135.65 1130.65 132.8 1131.7 L132.85 1131.7 132.5 1131.85 129.8 1132.5 128.85 1132.6 126.7 1132.55 125.95 1132.45 123.5 1131.8" />
        <path stroke="none" fill="#383838"
            d="M123.5 1131.8 L125.95 1132.45 126.7 1132.55 128.85 1132.6 129.8 1132.5 132.5 1131.85 133.3 1132.75 Q134.25 1133.7 135.35 1134.25 136.75 1134.9 138.4 1134.9 141.4 1134.9 143.55 1132.75 L144.8 1131.1 145.3 1130.65 146 1130.7 150.7 1133.15 151.15 1133.65 151.1 1134.3 149.6 1136.6 148.55 1137.75 Q144.3 1141.95 138.4 1141.95 132.5 1141.95 128.3 1137.75 L128 1137.45 127.7 1137.75 Q123.45 1141.95 117.55 1141.95 111.6 1141.95 107.45 1137.75 L106.4 1136.6 104.9 1134.4 Q104.7 1134.05 104.85 1133.75 104.9 1133.4 105.25 1133.2 L109.85 1130.65 110.5 1130.55 111.05 1131 112.4 1132.75 Q114.55 1134.9 117.55 1134.9 119.2 1134.9 120.65 1134.25 L122.7 1132.75 123.5 1131.8" />
        <path stroke="none" fill="#5B5B5B"
            d="M89.3 1080.35 Q89.3 1077.9 91 1076.25 92.7 1074.55 95.1 1074.55 97.5 1074.55 99.25 1076.25 100.95 1077.9 100.95 1080.35 100.95 1082.75 99.25 1084.4 97.5 1086.15 95.1 1086.15 92.7 1086.15 91 1084.4 89.3 1082.75 89.3 1080.35 M166.7 1080.35 Q166.7 1082.75 165 1084.4 163.3 1086.15 160.9 1086.15 158.5 1086.15 156.75 1084.4 155.05 1082.75 155.05 1080.35 155.05 1077.9 156.75 1076.25 158.5 1074.55 160.9 1074.55 163.3 1074.55 165 1076.25 166.7 1077.9 166.7 1080.35" />
        <path stroke="none" fill="#FFFFFF"
            d="M166.7 1080.35 Q166.7 1077.9 165 1076.25 163.3 1074.55 160.9 1074.55 158.5 1074.55 156.75 1076.25 155.05 1077.9 155.05 1080.35 155.05 1082.75 156.75 1084.4 158.5 1086.15 160.9 1086.15 163.3 1086.15 165 1084.4 166.7 1082.75 166.7 1080.35 M84.8 1080.2 Q84.8 1076.35 87.5 1073.65 90.25 1070.95 94.1 1070.95 97.9 1070.95 100.65 1073.65 103.35 1076.35 103.35 1080.2 103.35 1084.05 100.65 1086.65 97.9 1089.45 94.1 1089.45 90.25 1089.45 87.5 1086.65 84.8 1084.05 84.8 1080.2 M89.3 1080.35 Q89.3 1082.75 91 1084.4 92.7 1086.15 95.1 1086.15 97.5 1086.15 99.25 1084.4 100.95 1082.75 100.95 1080.35 100.95 1077.9 99.25 1076.25 97.5 1074.55 95.1 1074.55 92.7 1074.55 91 1076.25 89.3 1077.9 89.3 1080.35 M171.2 1080.2 Q171.2 1084.05 168.5 1086.65 165.75 1089.45 161.9 1089.45 158.1 1089.45 155.35 1086.65 152.65 1084.05 152.65 1080.2 152.65 1076.35 155.35 1073.65 158.1 1070.95 161.9 1070.95 165.75 1070.95 168.5 1073.65 171.2 1076.35 171.2 1080.2" />
        <path stroke="none" fill="#8E5A32"
            d="M84.8 1080.2 Q84.8 1084.05 87.5 1086.65 90.25 1089.45 94.1 1089.45 97.9 1089.45 100.65 1086.65 103.35 1084.05 103.35 1080.2 103.35 1076.35 100.65 1073.65 97.9 1070.95 94.1 1070.95 90.25 1070.95 87.5 1073.65 84.8 1076.35 84.8 1080.2 M79.15 1076.75 L79.15 1076.7 Q80.8 1070.7 86.1 1067.65 91.5 1064.55 97.5 1066.15 103.45 1067.7 106.6 1073.1 109.7 1078.45 108.1 1084.45 L108.1 1084.5 Q106.15 1091.7 100.6 1095.55 94.95 1099.55 89 1098 83 1096.4 80.1 1090.1 77.25 1083.95 79.15 1076.75 M171.2 1080.2 Q171.2 1076.35 168.5 1073.65 165.75 1070.95 161.9 1070.95 158.1 1070.95 155.35 1073.65 152.65 1076.35 152.65 1080.2 152.65 1084.05 155.35 1086.65 158.1 1089.45 161.9 1089.45 165.75 1089.45 168.5 1086.65 171.2 1084.05 171.2 1080.2 M176.85 1076.75 Q178.75 1083.95 175.9 1090.1 173 1096.4 167 1098 161.05 1099.55 155.4 1095.55 149.85 1091.7 147.9 1084.5 L147.9 1084.45 Q146.3 1078.45 149.4 1073.1 152.55 1067.7 158.5 1066.15 164.5 1064.55 169.9 1067.65 175.2 1070.7 176.85 1076.7 L176.85 1076.75" />
        <path stroke="none" fill="#FFDFC6"
            d="M108.05 1045.1 Q106.65 1041.45 100.8 1037.3 84.3 1025.35 72.05 1002.05 L72 1002.05 Q72.25 1001.85 72.55 1001.8 73 1001.65 73.4 1001.8 L74.05 1002.4 Q86.3 1022.9 102.8 1031.1 112.95 1036 109.75 1042.3 L109.75 1042.35 108.05 1045.1 M147.95 1045.1 L146.25 1042.35 146.25 1042.3 Q143.05 1036 153.2 1031.1 169.7 1022.9 181.95 1002.4 L182.6 1001.8 Q183 1001.65 183.45 1001.8 L184 1002.05 183.95 1002.05 Q171.7 1025.35 155.2 1037.3 149.35 1041.45 147.95 1045.1" />
        <path stroke="none" fill="#EBCEB7"
            d="M147.95 1045.1 Q149.35 1041.45 155.2 1037.3 171.7 1025.35 183.95 1002.05 L184 1002.05 184.15 1002.2 184.45 1003.05 Q185.25 1027.5 168.9 1046.95 L168.95 1046.95 Q163.05 1054.55 154.25 1050.25 150.4 1048.35 147.95 1045.1 M108.05 1045.1 Q105.6 1048.35 101.75 1050.25 92.95 1054.55 87.05 1046.95 L87.1 1046.95 Q70.75 1027.5 71.55 1003.05 L71.85 1002.2 72 1002.05 72.05 1002.05 Q84.3 1025.35 100.8 1037.3 106.65 1041.45 108.05 1045.1" />
    </g>
</svg>