<?xml version="1.0" encoding="utf-8"?>
<svg viewBox="315.95 1020 136 136" xmlns="http://www.w3.org/2000/svg">
    <g>
        <path stroke="none" fill="#6D4526"
            d="M432.05 1039.9 Q451.95 1059.8 451.95 1088 L451.95 1090 451.95 1090.1 Q451.55 1104.65 445.75 1117 446.3 1121.05 445.9 1127.05 L445.9 1127.1 Q445.05 1137.2 436.35 1144.15 430.5 1148.75 427.1 1147.1 424.35 1146.7 423.05 1143.75 L417.25 1147.55 Q402.35 1156 383.95 1156 365.6 1156 350.75 1147.5 347.7 1145.8 344.9 1143.8 343.65 1146.55 341 1147 337.6 1148.75 331.7 1144.25 L331.65 1144.15 Q322.95 1137.15 322.15 1127.05 L322.1 1127 Q321.7 1121.15 322.3 1117.1 316.4 1104.75 316 1090.2 L315.95 1088 Q315.95 1059.8 335.85 1039.9 355.8 1020 383.95 1020 412.15 1020 432.05 1039.9" />
        <path stroke="none" fill="#BD7841"
            d="M320 1090 L319.95 1088 Q319.95 1061.45 338.65 1042.7 357.45 1024 383.95 1024 410.5 1024 429.2 1042.7 447.95 1061.45 447.95 1088 L447.95 1090 Q447.25 1064.75 429.2 1046.7 410.5 1028 383.95 1028 357.45 1028 338.65 1046.7 320.65 1064.75 320 1090" />
        <path stroke="none" fill="#8E5A32"
            d="M441.55 1116.4 Q442.35 1120.4 441.9 1126.75 441.15 1135.2 433.85 1141 426.6 1146.75 426 1138.55 L425.8 1136.45 429.2 1133.2 Q436.95 1125.45 441.55 1116.4 M342.2 1136.5 L342 1138.45 Q341.4 1146.65 334.15 1141.05 326.85 1135.15 326.1 1126.7 325.65 1120.5 326.45 1116.5 330.95 1125.5 338.65 1133.2 L342.2 1136.5 M377.65 1047.75 L378.25 1048.8 Q379.3 1050.95 379.05 1053.05 378.75 1055.5 376.95 1056.6 375.15 1057.65 372.9 1056.65 370.9 1055.8 369.55 1053.8 L368.95 1052.75 Q366.4 1048.3 365.85 1044.4 365.3 1040.5 367.1 1039.5 368.9 1038.4 371.95 1040.85 375.1 1043.25 377.65 1047.75 M397.35 1055.45 L396.4 1056.95 Q394.4 1059.95 391.4 1061.25 388 1062.7 385.25 1061.15 382.5 1059.55 382.1 1055.9 381.7 1052.6 383.3 1049.4 L384.2 1047.85 Q388.1 1041.1 392.7 1037.45 397.4 1033.8 400.15 1035.4 402.9 1036.95 402 1042.8 401.25 1048.7 397.35 1055.45" />
        <path stroke="none" fill="#A16639"
            d="M447.95 1090 Q447.55 1104.35 441.55 1116.4 436.95 1125.45 429.2 1133.2 L425.8 1136.45 422.55 1139.15 Q420.8 1130.1 411.5 1123.35 400.1 1115 383.95 1115 367.8 1115 356.35 1123.35 347.15 1130.1 345.4 1139.15 L342.2 1136.5 338.65 1133.2 Q330.95 1125.5 326.45 1116.5 320.35 1104.4 320 1090 320.65 1064.75 338.65 1046.7 357.45 1028 383.95 1028 410.5 1028 429.2 1046.7 447.25 1064.75 447.95 1090 M397.35 1055.45 Q401.25 1048.7 402 1042.8 402.9 1036.95 400.15 1035.4 397.4 1033.8 392.7 1037.45 388.1 1041.1 384.2 1047.85 L383.3 1049.4 Q381.7 1052.6 382.1 1055.9 382.5 1059.55 385.25 1061.15 388 1062.7 391.4 1061.25 394.4 1059.95 396.4 1056.95 L397.35 1055.45 M377.65 1047.75 Q375.1 1043.25 371.95 1040.85 368.9 1038.4 367.1 1039.5 365.3 1040.5 365.85 1044.4 366.4 1048.3 368.95 1052.75 L369.55 1053.8 Q370.9 1055.8 372.9 1056.65 375.15 1057.65 376.95 1056.6 378.75 1055.5 379.05 1053.05 379.3 1050.95 378.25 1048.8 L377.65 1047.75" />
        <path stroke="none" fill="#EBCEB7"
            d="M422.55 1139.15 Q419 1141.9 415.25 1144.05 401.25 1152 383.95 1152 366.7 1152 352.7 1144 348.9 1141.85 345.4 1139.15 347.15 1130.1 356.35 1123.35 367.8 1115 383.95 1115 400.1 1115 411.5 1123.35 420.8 1130.1 422.55 1139.15 M377.05 1133.65 Q379.9 1136.5 383.95 1136.5 387.95 1136.5 390.8 1133.65 393.65 1130.8 393.65 1126.8 393.65 1125.3 393.25 1123.95 L393 1123.6 392.6 1123.5 392 1123.5 391.55 1123.65 391.35 1124.1 Q391.2 1126.85 389.2 1128.8 387 1131 383.95 1131 380.85 1131 378.7 1128.8 376.7 1126.85 376.5 1124.1 L376.3 1123.65 375.85 1123.5 375.25 1123.5 374.85 1123.6 374.65 1123.95 Q374.25 1125.3 374.25 1126.8 374.25 1130.85 377.05 1133.65 M364.7 1142.75 Q368.45 1142.75 371.15 1140.05 L372.05 1139 372.25 1138.4 372 1137.75 Q371.8 1137.5 371.45 1137.45 L370.8 1137.55 Q368.95 1138.5 366.7 1138.5 363.1 1138.5 360.5 1135.85 358.4 1133.8 357.95 1131.05 L357.65 1130.5 357.05 1130.2 356.4 1130.4 356 1130.9 Q355.6 1132.2 355.6 1133.65 355.6 1137.4 358.25 1140.05 L358.3 1140.1 Q360.95 1142.75 364.7 1142.75 M403.2 1142.75 Q406.95 1142.75 409.6 1140.1 L409.65 1140.05 Q412.3 1137.4 412.3 1133.65 412.3 1132.2 411.9 1130.9 L411.5 1130.4 410.85 1130.2 410.25 1130.5 409.95 1131.05 Q409.5 1133.8 407.4 1135.85 404.8 1138.5 401.2 1138.5 398.95 1138.5 397.1 1137.55 L396.45 1137.45 395.9 1137.75 Q395.65 1138 395.65 1138.4 395.6 1138.7 395.85 1139 L396.75 1140.05 Q399.45 1142.75 403.2 1142.75" />
        <path stroke="none" fill="#C6AD99"
            d="M403.2 1142.75 Q399.45 1142.75 396.75 1140.05 L395.85 1139 Q395.6 1138.7 395.65 1138.4 395.65 1138 395.9 1137.75 L396.45 1137.45 397.1 1137.55 Q398.95 1138.5 401.2 1138.5 404.8 1138.5 407.4 1135.85 409.5 1133.8 409.95 1131.05 L410.25 1130.5 410.85 1130.2 411.5 1130.4 411.9 1130.9 Q412.3 1132.2 412.3 1133.65 412.3 1137.4 409.65 1140.05 L409.6 1140.1 Q406.95 1142.75 403.2 1142.75 M377.05 1133.65 Q374.25 1130.85 374.25 1126.8 374.25 1125.3 374.65 1123.95 L374.85 1123.6 375.25 1123.5 375.85 1123.5 376.3 1123.65 376.5 1124.1 Q376.7 1126.85 378.7 1128.8 380.85 1131 383.95 1131 387 1131 389.2 1128.8 391.2 1126.85 391.35 1124.1 L391.55 1123.65 392 1123.5 392.6 1123.5 393 1123.6 393.25 1123.95 Q393.65 1125.3 393.65 1126.8 393.65 1130.8 390.8 1133.65 387.95 1136.5 383.95 1136.5 379.9 1136.5 377.05 1133.65 M364.7 1142.75 Q360.95 1142.75 358.3 1140.1 L358.25 1140.05 Q355.6 1137.4 355.6 1133.65 355.6 1132.2 356 1130.9 L356.4 1130.4 357.05 1130.2 357.65 1130.5 357.95 1131.05 Q358.4 1133.8 360.5 1135.85 363.1 1138.5 366.7 1138.5 368.95 1138.5 370.8 1137.55 L371.45 1137.45 Q371.8 1137.5 372 1137.75 L372.25 1138.4 372.05 1139 371.15 1140.05 Q368.45 1142.75 364.7 1142.75" />
        <path stroke="none" fill="#EBCEB7"
            d="M423.2 1088.7 Q423.2 1084.2 420.05 1081 416.8 1077.85 412.35 1077.85 407.85 1077.85 404.65 1081 401.45 1084.2 401.45 1088.7 401.45 1093.25 404.65 1096.4 407.85 1099.6 412.35 1099.6 416.8 1099.6 420.05 1096.4 423.2 1093.25 423.2 1088.7 M438.1 1069.3 Q437.65 1071 435.65 1072.6 431.95 1075.45 434.05 1082.35 434.9 1085.35 434.9 1088.7 434.9 1098.05 428.3 1104.65 421.7 1111.3 412.35 1111.3 403 1111.3 396.4 1104.65 389.75 1098.05 389.75 1088.7 389.75 1085.45 390.55 1082.55 402.75 1067.1 438.1 1069.3 M329.8 1069.3 Q365.15 1067.1 377.35 1082.55 378.15 1085.45 378.15 1088.7 378.15 1098.05 371.5 1104.65 364.9 1111.3 355.55 1111.3 346.2 1111.3 339.6 1104.65 333 1098.05 333 1088.7 333 1085.35 333.85 1082.35 335.95 1075.45 332.25 1072.6 330.25 1071 329.8 1069.3 M344.7 1088.7 Q344.7 1093.25 347.85 1096.4 351.1 1099.6 355.55 1099.6 360.05 1099.6 363.25 1096.4 366.45 1093.25 366.45 1088.7 366.45 1084.2 363.25 1081 360.05 1077.85 355.55 1077.85 351.1 1077.85 347.85 1081 344.7 1084.2 344.7 1088.7" />
        <path stroke="none" fill="#FFFFFF"
            d="M344.7 1088.7 Q344.7 1084.2 347.85 1081 351.1 1077.85 355.55 1077.85 360.05 1077.85 363.25 1081 366.45 1084.2 366.45 1088.7 366.45 1093.25 363.25 1096.4 360.05 1099.6 355.55 1099.6 351.1 1099.6 347.85 1096.4 344.7 1093.25 344.7 1088.7 M423.2 1088.7 Q423.2 1093.25 420.05 1096.4 416.8 1099.6 412.35 1099.6 407.85 1099.6 404.65 1096.4 401.45 1093.25 401.45 1088.7 401.45 1084.2 404.65 1081 407.85 1077.85 412.35 1077.85 416.8 1077.85 420.05 1081 423.2 1084.2 423.2 1088.7 M416.9 1088.7 Q416.9 1086.15 415.05 1084.35 413.25 1082.55 410.7 1082.55 408.15 1082.55 406.25 1084.35 404.45 1086.15 404.45 1088.7 404.45 1091.3 406.25 1093.15 408.15 1094.95 410.7 1094.95 413.25 1094.95 415.05 1093.15 416.9 1091.3 416.9 1088.7 M351 1088.7 Q351 1091.3 352.85 1093.15 354.65 1094.95 357.2 1094.95 359.75 1094.95 361.65 1093.15 363.45 1091.3 363.45 1088.7 363.45 1086.15 361.65 1084.35 359.75 1082.55 357.2 1082.55 354.65 1082.55 352.85 1084.35 351 1086.15 351 1088.7" />
        <path stroke="none" fill="#5B5B5B"
            d="M351 1088.7 Q351 1086.15 352.85 1084.35 354.65 1082.55 357.2 1082.55 359.75 1082.55 361.65 1084.35 363.45 1086.15 363.45 1088.7 363.45 1091.3 361.65 1093.15 359.75 1094.95 357.2 1094.95 354.65 1094.95 352.85 1093.15 351 1091.3 351 1088.7 M416.9 1088.7 Q416.9 1091.3 415.05 1093.15 413.25 1094.95 410.7 1094.95 408.15 1094.95 406.25 1093.15 404.45 1091.3 404.45 1088.7 404.45 1086.15 406.25 1084.35 408.15 1082.55 410.7 1082.55 413.25 1082.55 415.05 1084.35 416.9 1086.15 416.9 1088.7" />
        <path stroke="none" fill="#DEC2AD"
            d="M390.55 1082.55 Q392.05 1077.05 396.4 1072.75 401.9 1067.2 415.05 1064.3 424.25 1062.5 430.7 1063.35 437.15 1064.1 438.05 1067.45 438.3 1068.4 438.1 1069.3 402.75 1067.1 390.55 1082.55 M329.8 1069.3 Q329.6 1068.4 329.85 1067.45 330.75 1064.1 337.2 1063.35 343.65 1062.5 352.85 1064.3 366 1067.2 371.5 1072.75 375.85 1077.05 377.35 1082.55 365.15 1067.1 329.8 1069.3" />
        <path stroke="none" fill="#FF9900"
            d="M371.65 1103.4 Q370.75 1102.7 370.45 1101.85 371.1 1097.65 374.25 1094.4 L375.85 1093.05 Q379.35 1090.45 383.95 1090.45 388.55 1090.45 392.05 1093.05 L393.6 1094.4 Q396.8 1097.65 397.4 1101.85 L396.25 1103.4 Q395.45 1100.35 392.9 1097.95 L391.5 1096.8 Q388.2 1094.5 383.95 1094.5 379.7 1094.5 376.45 1096.8 L374.95 1097.95 Q372.45 1100.35 371.65 1103.4" />
        <path stroke="none" fill="#F39100"
            d="M371.65 1103.4 Q372.45 1100.35 374.95 1097.95 L376.45 1096.8 Q379.7 1094.5 383.95 1094.5 388.2 1094.5 391.5 1096.8 L392.9 1097.95 Q395.45 1100.35 396.25 1103.4 395.25 1104.2 393.6 1104.85 389.6 1106.5 383.95 1106.5 378.25 1106.5 374.25 1104.85 L371.65 1103.4" />
        <path stroke="none" fill="#E08600"
            d="M371.65 1103.4 L374.25 1104.85 Q378.25 1106.5 383.95 1106.5 389.6 1106.5 393.6 1104.85 395.25 1104.2 396.25 1103.4 L397.4 1101.85 397.6 1104.05 397.55 1104.95 Q397.3 1108 393.6 1110.15 389.6 1112.5 383.95 1112.5 378.25 1112.5 374.25 1110.15 370.6 1108 370.3 1104.95 L370.3 1104.05 Q370.3 1102.9 370.45 1101.85 370.75 1102.7 371.65 1103.4" />
    </g>
</svg>