<?xml version="1.0" encoding="utf-8"?>
<svg viewBox="1054.0566 627.2235 190.8977 159.1553" xmlns="http://www.w3.org/2000/svg">
    <g>
        <path stroke="none" fill="#6D4526"
            d="M1101.35 636.7 Q1107.9 638.65 1115.7 634.6 L1115.75 634.6 Q1128.95 627.85 1141.05 633.85 L1141.4 634.1 Q1143.05 635.15 1144.4 636.35 L1149.5 636.15 1156.05 636.45 Q1157.4 635.15 1159.1 634.1 L1159.5 633.85 Q1171.55 627.85 1184.8 634.6 1192.6 638.65 1199.2 636.7 L1199.3 636.65 Q1202 635.65 1201.05 632.3 1200.7 631 1201.2 629.75 1201.65 628.5 1202.8 627.8 1203.95 627.1 1205.25 627.25 1212.7 627.9 1216.3 632.25 1221.45 637.65 1219.35 649.8 1218.2 658.2 1209.2 663.35 1219.8 661.9 1232.3 664.45 L1232.25 664.45 1235 665 1235.3 665.1 Q1241.3 666.85 1243.8 673.45 L1243.8 673.5 Q1246.25 679.9 1243.5 687.7 L1243.45 687.7 Q1240.75 695.2 1234.9 699.7 L1234.75 699.8 Q1229.65 703.4 1224.8 703.45 L1222.95 703.45 1222.5 703.4 1219.85 702.8 1217.5 702.35 1217.5 704.15 1217.5 706.15 1217.5 706.25 Q1217.05 722.1 1210.2 735.25 1205.45 744.4 1197.6 752.2 1189.4 760.35 1179.85 765.2 1183.45 771.05 1180.9 774.85 L1180.6 775.35 Q1178.15 780.7 1168.3 779.4 L1168.3 779.35 1164.7 778.65 1164.35 781.15 1164.3 781.25 Q1163.55 784.05 1161.35 785.25 L1161.3 785.25 Q1157.65 788.15 1151.7 783.6 L1151.65 783.55 1149.5 781.55 1147.3 783.55 Q1141.4 788.15 1137.7 785.25 1135.5 784.1 1134.7 781.35 L1134.65 781.25 Q1134.3 780.1 1134.3 778.65 L1130.7 779.35 1130.65 779.4 Q1121 780.7 1118.45 775.45 L1117.9 774.55 Q1115.75 770.8 1119.15 765.2 1109.6 760.35 1101.45 752.2 1082.25 733.1 1081.55 706.35 L1081.5 704.15 1081.55 702.4 1079.3 702.85 1079.25 702.85 1076.5 703.4 1076.45 703.4 1074.2 703.5 Q1069.35 703.4 1064.25 699.8 L1064.15 699.7 Q1058.25 695.2 1055.55 687.7 1052.75 679.9 1055.2 673.5 L1055.2 673.45 Q1057.7 666.85 1063.75 665.15 L1063.85 665.1 1066.9 664.45 1066.7 664.5 Q1080.55 661.65 1092.05 663.75 1082.35 658.5 1081.15 649.8 1079.05 637.65 1084.25 632.25 1087.8 627.9 1095.25 627.25 1096.55 627.1 1097.7 627.8 1098.85 628.5 1099.35 629.75 1099.8 631 1099.45 632.3 1098.5 635.65 1101.25 636.65 L1101.35 636.7" />
        <path stroke="none" fill="#704E35"
            d="M1074.5 699.5 Q1070.65 699.4 1066.55 696.5 1061.6 692.7 1059.3 686.35 1057.05 680.05 1058.95 674.85 1060.7 670.2 1064.9 668.95 L1067.5 668.4 Q1081.55 665.55 1093 668 L1094.2 668.3 Q1083.85 666.65 1071.5 669.1 L1068.7 669.75 Q1064.55 671 1062.75 675.65 1060.9 680.9 1063.1 687.1 1065.4 693.55 1070.5 697.3 1072.45 698.85 1074.5 699.5 M1204.8 668.3 L1206 667.95 Q1217.45 665.5 1231.5 668.35 L1234.1 668.9 Q1238.3 670.2 1240.05 674.85 1241.95 680.05 1239.7 686.35 1237.4 692.7 1232.45 696.5 1228.35 699.4 1224.5 699.45 1226.55 698.85 1228.5 697.3 1233.65 693.5 1235.9 687.1 1238.1 680.9 1236.25 675.6 1234.45 670.95 1230.3 669.75 L1227.5 669.1 Q1215.15 666.65 1204.8 668.3" />
        <path stroke="none" fill="#5F422D"
            d="M1204.8 668.3 Q1215.15 666.65 1227.5 669.1 L1230.3 669.75 Q1234.45 670.95 1236.25 675.6 1238.1 680.9 1235.9 687.1 1233.65 693.5 1228.5 697.3 1226.55 698.85 1224.5 699.45 L1223.3 699.45 1220.5 698.85 1217.5 698.25 1213 696.95 1216.25 695.3 Q1219.9 692.45 1221.55 687.9 1223.2 683.4 1221.85 679.6 1220.5 676.3 1217.45 675.45 1216.6 675.05 1215.55 675 1205.5 672.9 1197.2 674.7 L1195.85 675.1 1194.15 675.6 1192.5 676.15 1192.75 675.65 Q1194.65 672.1 1199.8 669.9 L1204.8 668.3 M1094.2 668.3 Q1103.5 670.65 1106.25 675.65 L1106.5 676.2 Q1105.05 675.6 1103.15 675.15 L1101.8 674.7 Q1093.5 672.95 1083.45 675 L1081.55 675.45 Q1078.5 676.3 1077.15 679.6 1075.8 683.45 1077.45 687.95 1079.1 692.5 1082.75 695.3 1084.45 696.5 1086 697 L1081.5 698.3 1078.5 698.9 1075.7 699.45 1074.5 699.5 Q1072.45 698.85 1070.5 697.3 1065.4 693.55 1063.1 687.1 1060.9 680.9 1062.75 675.65 1064.55 671 1068.7 669.75 L1071.5 669.1 Q1083.85 666.65 1094.2 668.3" />
        <path stroke="none" fill="#4F3725"
            d="M1106.5 676.2 L1106.8 676.8 Q1108 680.2 1106.25 683.55 1104.7 686.6 1100.75 689.65 1095.25 693.9 1087.45 696.55 L1086 697 Q1084.45 696.5 1082.75 695.3 1079.1 692.5 1077.45 687.95 1075.8 683.45 1077.15 679.6 1078.5 676.3 1081.55 675.45 L1083.45 675 Q1093.5 672.95 1101.8 674.7 L1103.15 675.15 Q1105.05 675.6 1106.5 676.2 M1213 696.95 L1211.55 696.55 Q1203.75 693.9 1198.25 689.6 1194.3 686.6 1192.75 683.55 1191.3 680.7 1191.85 677.9 L1192.2 676.75 1192.5 676.15 1194.15 675.6 1195.85 675.1 1197.2 674.7 Q1205.5 672.9 1215.55 675 1216.6 675.05 1217.45 675.45 1220.5 676.3 1221.85 679.6 1223.2 683.4 1221.55 687.9 1219.9 692.45 1216.25 695.3 L1213 696.95" />
        <path stroke="none" fill="#704E35"
            d="M1121.7 773.1 Q1120.15 770.15 1124.1 765.05 1128.05 759.8 1135.5 755.55 1148.95 747.9 1163.5 755.55 1170.9 759.8 1174.85 765.05 1178.85 770.15 1177.3 773.05 1176.6 771.25 1174.85 769.05 1170.9 763.8 1163.5 759.55 1148.95 751.9 1135.5 759.55 1128.05 763.8 1124.1 769.05 1122.35 771.25 1121.7 773.1" />
        <path stroke="none" fill="#5F422D"
            d="M1121.7 773.1 Q1122.35 771.25 1124.1 769.05 1128.05 763.8 1135.5 759.55 1148.95 751.9 1163.5 759.55 1170.9 763.8 1174.85 769.05 1176.6 771.25 1177.3 773.05 L1177.2 773.2 Q1175.45 776.3 1168.85 775.4 1164.4 774.75 1159.5 772.5 1160.3 774.7 1160.55 776.75 L1160.6 777 Q1160.8 778.9 1160.45 780.15 1160.15 781.3 1159.3 781.8 1157.4 782.9 1154.15 780.4 1151.65 778.4 1149.5 775.1 1147.3 778.4 1144.8 780.4 1141.6 782.9 1139.7 781.8 1138.85 781.3 1138.5 780.15 1138.15 778.9 1138.4 777.05 L1138.4 776.75 Q1138.7 774.7 1139.55 772.5 1134.6 774.75 1130.1 775.4 1123.55 776.3 1121.75 773.2 L1121.7 773.1" />
        <path stroke="none" fill="#704E35"
            d="M1186.95 736.05 Q1186.1 724.15 1176 715.5 1173 712.95 1169.65 711.1 1160.75 706.15 1149.5 706.15 1138.25 706.15 1129.4 711.05 1126 712.9 1122.95 715.5 1112.85 724.15 1112.05 736.05 L1112 734.15 1112 733.15 Q1112.4 720.55 1122.95 711.5 1126.7 708.3 1131 706.2 1139.25 702.15 1149.5 702.15 1159.75 702.15 1168 706.25 1172.25 708.3 1176 711.5 1186.55 720.55 1187 733.15 L1187 734.15 1186.95 736.05" />
        <path stroke="none" fill="#5F422D"
            d="M1112.05 736.05 Q1112.85 724.15 1122.95 715.5 1126 712.9 1129.4 711.05 1138.25 706.15 1149.5 706.15 1160.75 706.15 1169.65 711.1 1173 712.95 1176 715.5 1186.1 724.15 1186.95 736.05 1186.2 748.1 1176 756.75 1165 766.15 1149.5 766.15 1133.95 766.15 1122.95 756.75 1112.8 748.05 1112.05 736.05 M1168 706.25 Q1159.75 702.15 1149.5 702.15 1139.25 702.15 1131 706.2 1139.95 678.1 1139.5 644.85 L1149.5 644.15 1159.5 644.85 Q1159.05 678.1 1168 706.25 M1133.9 726.55 Q1135.4 727.95 1137.45 727.95 1139.6 727.95 1141.1 726.45 1142.6 724.95 1142.6 722.8 1142.6 721.7 1142.25 720.8 L1141.2 719.25 1141.05 719.1 Q1138.5 716.55 1135.65 715.7 L1135.45 715.65 Q1133.25 715 1131.9 715.7 1131.4 715.9 1131 716.3 L1130.4 717.15 Q1129.75 718.4 1130.2 720.3 L1130.3 720.8 1130.75 722.1 Q1131.7 724.35 1133.75 726.4 L1133.9 726.55 M1168 716.3 L1167.15 715.7 Q1165.75 715 1163.55 715.65 L1163.3 715.75 Q1160.45 716.6 1157.95 719.1 L1157.8 719.25 Q1157.15 719.95 1156.8 720.8 1156.4 721.7 1156.4 722.8 1156.4 724.95 1157.9 726.45 1159.4 727.95 1161.55 727.95 1163.6 727.95 1165.1 726.55 L1165.25 726.4 Q1167.3 724.35 1168.25 722.1 L1168.7 720.8 1168.85 720.3 Q1169.25 718.4 1168.6 717.15 L1168 716.3" />
        <path stroke="none" fill="#A16639"
            d="M1186.95 736.05 L1187 734.15 1187 733.15 Q1186.55 720.55 1176 711.5 1172.25 708.3 1168 706.25 1159.05 678.1 1159.5 644.85 1179.65 647.8 1194.75 662.85 1212.8 680.95 1213.5 706.15 1213.1 721.05 1206.65 733.4 1202.15 742 1194.75 749.35 1176 768.15 1149.5 768.15 1123 768.15 1104.25 749.35 1086.2 731.35 1085.55 706.15 1086.2 680.95 1104.25 662.85 1119.35 647.8 1139.5 644.85 1139.95 678.1 1131 706.2 1126.7 708.3 1122.95 711.5 1112.4 720.55 1112 733.15 L1112 734.15 1112.05 736.05 Q1112.8 748.05 1122.95 756.75 1133.95 766.15 1149.5 766.15 1165 766.15 1176 756.75 1186.2 748.1 1186.95 736.05" />
        <path stroke="none" fill="#4F3725"
            d="M1133.9 726.55 L1133.75 726.4 Q1131.7 724.35 1130.75 722.1 L1130.3 720.8 1130.2 720.3 Q1129.75 718.4 1130.4 717.15 L1131 716.3 Q1131.4 715.9 1131.9 715.7 1133.25 715 1135.45 715.65 L1135.65 715.7 Q1138.5 716.55 1141.05 719.1 L1141.2 719.25 1142.25 720.8 Q1142.6 721.7 1142.6 722.8 1142.6 724.95 1141.1 726.45 1139.6 727.95 1137.45 727.95 1135.4 727.95 1133.9 726.55 M1168 716.3 L1168.6 717.15 Q1169.25 718.4 1168.85 720.3 L1168.7 720.8 1168.25 722.1 Q1167.3 724.35 1165.25 726.4 L1165.1 726.55 Q1163.6 727.95 1161.55 727.95 1159.4 727.95 1157.9 726.45 1156.4 724.95 1156.4 722.8 1156.4 721.7 1156.8 720.8 1157.15 719.95 1157.8 719.25 L1157.95 719.1 Q1160.45 716.6 1163.3 715.75 L1163.55 715.65 Q1165.75 715 1167.15 715.7 L1168 716.3" />
        <path stroke="none" fill="#BD7841"
            d="M1085.55 706.15 L1085.5 704.15 Q1085.5 677.65 1104.25 658.85 1123 640.15 1149.5 640.15 1176 640.15 1194.75 658.85 1213.5 677.65 1213.5 704.15 L1213.5 706.15 Q1212.8 680.95 1194.75 662.85 1179.65 647.8 1159.5 644.85 L1149.5 644.15 1139.5 644.85 Q1119.35 647.8 1104.25 662.85 1086.2 680.95 1085.55 706.15" />
        <path stroke="none" fill="#5B5B5B"
            d="M1107.45 693.7 Q1107.45 691.05 1109.25 689.25 1111.1 687.4 1113.75 687.4 1116.3 687.4 1118.2 689.25 1120.05 691.05 1120.05 693.7 1120.05 696.25 1118.2 698.05 1116.3 699.85 1113.75 699.85 1111.1 699.85 1109.25 698.05 1107.45 696.25 1107.45 693.7 M1189.55 693.7 Q1189.55 696.25 1187.75 698.05 1185.9 699.85 1183.25 699.85 1180.7 699.85 1178.8 698.05 1176.95 696.25 1176.95 693.7 1176.95 691.05 1178.8 689.25 1180.7 687.4 1183.25 687.4 1185.9 687.4 1187.75 689.25 1189.55 691.05 1189.55 693.7" />
        <path stroke="none" fill="#FFFFFF"
            d="M1189.55 693.7 Q1189.55 691.05 1187.75 689.25 1185.9 687.4 1183.25 687.4 1180.7 687.4 1178.8 689.25 1176.95 691.05 1176.95 693.7 1176.95 696.25 1178.8 698.05 1180.7 699.85 1183.25 699.85 1185.9 699.85 1187.75 698.05 1189.55 696.25 1189.55 693.7 M1101.95 692.5 Q1101.95 688.3 1104.9 685.4 1107.85 682.45 1112 682.45 1116.1 682.45 1119.1 685.4 1122 688.3 1122 692.5 1122 696.65 1119.1 699.5 1116.1 702.5 1112 702.5 1107.85 702.5 1104.9 699.5 1101.95 696.65 1101.95 692.5 M1107.45 693.7 Q1107.45 696.25 1109.25 698.05 1111.1 699.85 1113.75 699.85 1116.3 699.85 1118.2 698.05 1120.05 696.25 1120.05 693.7 1120.05 691.05 1118.2 689.25 1116.3 687.4 1113.75 687.4 1111.1 687.4 1109.25 689.25 1107.45 691.05 1107.45 693.7 M1195.05 692.5 Q1195.05 696.65 1192.1 699.5 1189.15 702.5 1185 702.5 1180.9 702.5 1177.9 699.5 1175 696.65 1175 692.5 1175 688.3 1177.9 685.4 1180.9 682.45 1185 682.45 1189.15 682.45 1192.1 685.4 1195.05 688.3 1195.05 692.5" />
        <path stroke="none" fill="#FFDFC6"
            d="M1087.25 634.85 Q1090 631.7 1095.6 631.2 1093.55 638.6 1100.1 640.5 1108.1 643.05 1117.55 638.15 1128.9 632.35 1139.25 637.45 1144.65 640.9 1145.65 646.2 1142.6 643.25 1137.85 641.05 1124.35 635.95 1114.3 641.75 1105.95 646.65 1096.1 644.1 1088.15 642.2 1087.25 634.85 M1154.85 646.2 Q1155.85 640.9 1161.25 637.45 1171.6 632.35 1182.95 638.15 1192.4 643.05 1200.4 640.5 1206.95 638.6 1204.9 631.2 1210.5 631.7 1213.25 634.85 1212.35 642.2 1204.4 644.1 1194.55 646.65 1186.2 641.75 1176.15 635.95 1162.65 641.05 1157.9 643.25 1154.85 646.2" />
        <path stroke="none" fill="#EBCEB7"
            d="M1154.85 646.2 Q1157.9 643.25 1162.65 641.05 1176.15 635.95 1186.2 641.75 1194.55 646.65 1204.4 644.1 1212.35 642.2 1213.25 634.85 1217.1 639.3 1215.4 649.1 1213.45 660.25 1194.3 664.55 1163.3 670.45 1156.5 656.35 1155.3 653.6 1154.75 650.3 1154.5 648.1 1154.85 646.2 M1145.65 646.2 Q1146 648.1 1145.75 650.3 1145.2 653.6 1144 656.35 1137.2 670.45 1106.2 664.55 1087.05 660.25 1085.1 649.1 1083.4 639.3 1087.25 634.85 1088.15 642.2 1096.1 644.1 1105.95 646.65 1114.3 641.75 1124.35 635.95 1137.85 641.05 1142.6 643.25 1145.65 646.2" />
    </g>
</svg>