<?xml version="1.0" encoding="utf-8"?>
<svg viewBox="827.7 828 136 136" xmlns="http://www.w3.org/2000/svg">
    <g>
        <path stroke="none" fill="#1B8045"
            d="M895.7 828 Q911.65 828 925 834.45 935.1 839.35 943.75 847.95 963.7 867.85 963.7 896 L963.7 898 963.7 898.1 Q963.05 921.6 948.1 939.3 L943.75 944 943.75 944.05 Q939.6 948.2 935.1 951.5 917.9 964 895.7 964 871.9 964 854 949.7 L853.95 949.7 847.65 944.05 843.3 939.3 843.3 939.25 Q828.4 921.65 827.75 898.2 L827.7 896 Q827.7 867.85 847.65 847.95 856.25 839.35 866.45 834.45 879.75 828 895.7 828" />
        <path stroke="none" fill="#31DE7A"
            d="M831.75 898 L831.7 896 Q831.7 869.5 850.45 850.75 858.55 842.65 868.15 838.05 880.7 832 895.7 832 910.7 832 923.25 838.05 932.8 842.65 940.9 850.75 959.7 869.5 959.7 896 L959.7 898 Q959 872.8 940.9 854.75 932.6 846.45 922.8 841.85 910.45 836 895.7 836 880.95 836 868.6 841.8 858.75 846.45 850.45 854.75 832.4 872.8 831.75 898" />
        <path stroke="none" fill="#2ECC71"
            d="M831.75 898 Q832.4 872.8 850.45 854.75 858.75 846.45 868.6 841.8 870.4 854.7 875.9 864.75 884.1 879.8 895.7 879.8 907.3 879.8 915.5 864.75 921 854.7 922.8 841.85 932.6 846.45 940.9 854.75 959 872.8 959.7 898 959.1 920.1 945.05 936.7 932.9 943.7 925.75 936.7 912.2 917.9 894.15 917.9 876.1 917.9 862.55 936.7 857.2 943.6 846.35 936.7 832.3 920.1 831.75 898" />
        <path stroke="none" fill="#2FD274"
            d="M868.6 841.8 Q880.95 836 895.7 836 910.45 836 922.8 841.85 921 854.7 915.5 864.75 907.3 879.8 895.7 879.8 884.1 879.8 875.9 864.75 870.4 854.7 868.6 841.8" />
        <path stroke="none" fill="#F3F3F3"
            d="M945.05 936.7 L940.9 941.2 Q937 945.15 932.75 948.25 916.6 960 895.7 960 873.3 960 856.45 946.55 L850.45 941.2 846.35 936.7 Q857.2 943.6 862.55 936.7 876.1 917.9 894.15 917.9 912.2 917.9 925.75 936.7 932.9 943.7 945.05 936.7" />
        <path stroke="none" fill="#FFFFFF"
            d="M935.3 889.75 Q935.3 894.8 931.8 898.25 928.2 901.9 923.1 901.9 918.1 901.9 914.55 898.25 910.95 894.8 910.95 889.75 910.95 884.7 914.55 881.15 918.1 877.65 923.1 877.65 928.2 877.65 931.8 881.15 935.3 884.7 935.3 889.75 M929.45 890 Q929.45 886.7 927.2 884.55 924.95 882.4 921.8 882.4 918.7 882.4 916.35 884.55 914.1 886.7 914.1 890 914.1 893.15 916.35 895.3 918.7 897.6 921.8 897.6 924.95 897.6 927.2 895.3 929.45 893.15 929.45 890 M862.05 890 Q862.05 893.15 864.3 895.3 866.45 897.6 869.65 897.6 872.8 897.6 875.05 895.3 876.1 894.3 876.65 893.1 877.3 891.7 877.3 890 877.3 888.25 876.65 886.8 876.1 885.55 875.05 884.55 872.8 882.4 869.65 882.4 866.45 882.4 864.3 884.55 862.05 886.7 862.05 890 M856.1 889.75 Q856.1 884.7 859.7 881.15 863.3 877.65 868.3 877.65 873.05 877.65 876.65 880.85 L877 881.15 Q880.5 884.7 880.5 889.75 880.5 894.8 877 898.25 L876.65 898.6 Q873.05 901.9 868.3 901.9 863.3 901.9 859.7 898.25 856.1 894.8 856.1 889.75" />
        <path stroke="none" fill="#5B5B5B"
            d="M929.45 890 Q929.45 893.15 927.2 895.3 924.95 897.6 921.8 897.6 918.7 897.6 916.35 895.3 914.1 893.15 914.1 890 914.1 886.7 916.35 884.55 918.7 882.4 921.8 882.4 924.95 882.4 927.2 884.55 929.45 886.7 929.45 890 M862.05 890 Q862.05 886.7 864.3 884.55 866.45 882.4 869.65 882.4 872.8 882.4 875.05 884.55 876.1 885.55 876.65 886.8 877.3 888.25 877.3 890 877.3 891.7 876.65 893.1 876.1 894.3 875.05 895.3 872.8 897.6 869.65 897.6 866.45 897.6 864.3 895.3 862.05 893.15 862.05 890" />
        <path stroke="none" fill="#FFD738"
            d="M875.65 907.5 L875.75 907.05 Q877.05 901.3 881.1 896.8 882.3 895.5 883.55 894.55 888.8 890.2 895.75 890.2 902.65 890.2 907.95 894.55 L910.3 896.8 Q914.4 901.3 915.65 907.05 L915.75 907.5 916 909.05 916.3 912.75 916.2 914.25 916.2 914.45 916 913.05 915.65 911.05 Q915.25 909.1 914.5 907.3 913 903.75 910.3 900.8 L907.95 898.55 Q902.65 894.2 895.75 894.2 888.8 894.2 883.55 898.55 882.3 899.5 881.1 900.8 878.45 903.75 876.95 907.3 876.2 909.1 875.75 911.05 L875.35 913.05 875.25 914.55 875.2 914.25 875.15 912.75 875.35 909.05 875.65 907.5" />
        <path stroke="none" fill="#FFCC00"
            d="M909.7 923.25 L909.3 923.5 Q903.55 926.7 895.75 926.7 887.9 926.7 882.15 923.5 L881.75 923.25 881.1 922.85 Q877.05 920.2 875.8 916.8 L875.4 915.3 875.25 914.55 875.35 913.05 875.75 911.05 Q876.2 909.1 876.95 907.3 878.45 903.75 881.1 900.8 882.3 899.5 883.55 898.55 888.8 894.2 895.75 894.2 902.65 894.2 907.95 898.55 L910.3 900.8 Q913 903.75 914.5 907.3 915.25 909.1 915.65 911.05 L916 913.05 916.2 914.45 916.1 915.3 915.65 916.85 Q914.35 920.2 910.3 922.85 L909.7 923.25" />
        <path stroke="none" fill="#EEBE00"
            d="M915.75 907.5 L920.65 908.55 Q930.8 911.15 931.05 914.8 L915.65 916.85 916.1 915.3 916.2 914.45 916.2 914.25 916.3 912.75 916 909.05 915.75 907.5 M860.35 914.75 Q860.65 911.1 870.65 908.55 L875.65 907.5 875.35 909.05 875.15 912.75 875.2 914.25 875.25 914.55 875.4 915.3 875.8 916.8 860.35 914.75" />
        <path stroke="none" fill="#DEB100"
            d="M860.35 914.75 L875.8 916.8 Q877.05 920.2 881.1 922.85 L881.75 923.25 879.5 923 Q874.75 922.35 870.65 921.3 860.85 918.8 860.4 915.3 L860.35 914.95 860.35 914.75 M931.05 914.8 L931.05 914.95 931.05 915.3 Q930.55 918.8 920.65 921.3 916.6 922.35 911.9 923 L909.7 923.25 910.3 922.85 Q914.35 920.2 915.65 916.85 L931.05 914.8" />
        <path stroke="none" fill="#29BB67"
            d="M906.1 848.05 Q909.15 853.3 909.7 857.85 910.4 862.4 908.3 863.6 906.15 864.85 902.5 862 898.95 859.15 895.9 853.95 L895.2 852.75 Q894 850.25 894.3 847.7 894.6 844.85 896.75 843.6 898.85 842.4 901.5 843.55 903.85 844.55 905.4 846.9 L906.1 848.05 M890.85 854 Q888.85 857.5 886.4 859.35 884.05 861.25 882.65 860.4 881.25 859.65 881.7 856.6 882.1 853.6 884.1 850.15 L884.55 849.3 Q885.6 847.75 887.15 847.1 L890.3 847.15 Q891.7 848 891.95 849.9 892.1 851.55 891.3 853.2 L890.85 854" />
    </g>
</svg>