<?xml version="1.0" encoding="utf-8"?>
<svg viewBox="805.2 60 181 136" xmlns="http://www.w3.org/2000/svg">
    <g>
        <path stroke="none" fill="#807F7F"
            d="M 986.2 109 L 986.15 111.2 L 986.15 111.25 C 985.683 119.65 982.367 126.917 976.2 133.05 C 972.133 137.117 967.55 139.933 962.45 141.5 C 961.217 147.933 959.1 154.017 956.1 159.75 C 954.7 162.35 953.117 164.883 951.35 167.35 L 950.95 167.85 C 948.817 170.683 946.433 173.433 943.8 176.1 L 938.9 180.6 L 938.85 180.65 L 934.4 184.05 L 929.35 187.3 L 929.3 187.35 C 919.267 193.117 908.067 196 895.7 196 C 883.3 196 872.1 193.117 862.1 187.35 L 862.15 187.35 C 860.383 186.35 858.667 185.267 857 184.1 L 857 184.05 C 855.5 182.983 854.05 181.883 852.65 180.75 L 847.6 176.1 C 842.2 170.7 837.917 164.883 834.75 158.65 L 834.5 158.05 L 829 141.55 C 823.9 139.95 819.317 137.117 815.25 133.05 C 809.05 126.917 805.717 119.65 805.25 111.25 L 805.25 111.2 L 805.2 109 C 805.2 99.667 808.55 91.65 815.25 84.95 C 821.85 78.317 829.833 75 839.2 75 C 843.3 75 847.167 75.65 850.8 76.95 L 857 72 C 859.2 70.433 861.467 69.033 863.8 67.8 L 863.75 67.85 C 873.317 62.617 883.967 60 895.7 60 C 907.433 60 918.1 62.6 927.7 67.8 C 930 69.033 932.233 70.417 934.4 71.95 L 934.45 71.95 C 936.583 73.45 938.667 75.117 940.7 76.95 C 944.267 75.65 948.1 75 952.2 75 C 961.567 75 969.567 78.317 976.2 84.95 C 982.867 91.65 986.2 99.667 986.2 109 M 828.75 140.1 L 828.7 139.9 L 828.75 140.2 L 828.75 140.1" />
        <path stroke="none" fill="#414040"
            d="M982.15 111 Q981.5 122.1 973.35 130.2 964.6 139 952.2 139 939.85 139 930.95 130.2 922.9 122.1 922.25 111 922.9 99.9 930.95 91.75 939.85 83 952.2 83 964.6 83 973.35 91.75 981.5 99.9 982.15 111 M963.65 109 Q963.65 102.05 958.65 97.1 953.7 92.15 946.8 92.15 939.75 92.15 934.8 97.1 929.8 102.05 929.8 109 929.8 116.05 934.8 120.95 939.75 126 946.8 126 953.7 126 958.65 120.95 963.65 116.05 963.65 109 M827.75 109 Q827.75 116.05 832.75 120.95 837.7 126 844.6 126 851.65 126 856.6 120.95 861.6 116.05 861.6 109 861.6 102.05 856.6 97.1 851.65 92.15 844.6 92.15 837.7 92.15 832.75 97.1 827.75 102.05 827.75 109 M809.25 111 Q809.9 99.9 818.05 91.75 826.8 83 839.2 83 851.55 83 860.45 91.75 868.5 99.9 869.15 111 868.5 122.1 860.45 130.2 851.55 139 839.2 139 826.8 139 818.05 130.2 809.9 122.1 809.25 111" />
        <path stroke="none" fill="#545353"
            d="M 809.25 111 L 809.2 109 C 809.2 100.767 812.15 93.683 818.05 87.75 C 823.883 81.917 830.933 79 839.2 79 C 847.433 79 854.517 81.917 860.45 87.75 C 866.283 93.683 869.2 100.767 869.2 109 L 869.15 111 C 868.717 103.6 865.817 97.183 860.45 91.75 C 854.517 85.917 847.433 83 839.2 83 C 830.933 83 823.883 85.917 818.05 91.75 C 812.617 97.183 809.683 103.6 809.25 111 M 922.25 111 L 922.2 109 C 922.2 100.767 925.117 93.683 930.95 87.75 C 936.883 81.917 943.967 79 952.2 79 C 960.467 79 967.517 81.917 973.35 87.75 C 979.25 93.683 982.2 100.767 982.2 109 L 982.15 111 C 981.717 103.6 978.783 97.183 973.35 91.75 C 967.517 85.917 960.467 83 952.2 83 C 943.967 83 936.883 85.917 930.95 91.75 C 925.583 97.183 922.683 103.6 922.25 111" />
        <path stroke="none" fill="#353434"
            d="M 963.65 109 C 963.65 113.7 961.983 117.683 958.65 120.95 C 955.35 124.317 951.4 126 946.8 126 C 942.1 126 938.1 124.317 934.8 120.95 C 931.467 117.683 929.8 113.7 929.8 109 C 929.8 104.367 931.467 100.4 934.8 97.1 C 938.1 93.8 942.1 92.15 946.8 92.15 C 951.4 92.15 955.35 93.8 958.65 97.1 C 961.983 100.4 963.65 104.367 963.65 109 M 827.75 109 C 827.75 104.367 829.417 100.4 832.75 97.1 C 836.05 93.8 840 92.15 844.6 92.15 C 849.3 92.15 853.3 93.8 856.6 97.1 C 859.933 100.4 861.6 104.367 861.6 109 C 861.6 113.7 859.933 117.683 856.6 120.95 C 853.3 124.317 849.3 126 844.6 126 C 840 126 836.05 124.317 832.75 120.95 C 829.417 117.683 827.75 113.7 827.75 109" />
        <path stroke="none" fill="#FFFFFF"
            d="M831.75 130 L831.7 128 Q831.7 101.45 850.45 82.75 854.7 78.5 859.3 75.25 862.4 73.05 865.65 71.35 879.15 64 895.7 64 912.25 64 925.8 71.3 929.05 73.05 932.1 75.2 936.75 78.5 941 82.75 959.7 101.45 959.7 128 L959.7 130 Q959 104.75 941 86.75 936.6 82.35 931.8 79 928.45 76.7 924.95 74.85 922.6 83.85 918.3 91.45 908.95 108 895.7 108 882.45 108 873.05 91.45 868.75 83.9 866.45 74.9 862.95 76.7 859.6 79.05 854.8 82.4 850.45 86.75 832.4 104.75 831.75 130" />
        <path stroke="none" fill="#F5F5F5"
            d="M 831.75 130 C 832.183 113.167 838.417 98.75 850.45 86.75 C 853.35 83.85 856.4 81.283 859.6 79.05 C 861.833 77.483 864.117 76.1 866.45 74.9 C 867.983 80.9 870.183 86.417 873.05 91.45 C 879.317 102.483 886.867 108 895.7 108 C 904.533 108 912.067 102.483 918.3 91.45 C 921.167 86.383 923.383 80.85 924.95 74.85 C 927.283 76.083 929.567 77.467 931.8 79 C 935 81.233 938.067 83.817 941 86.75 C 953 98.75 959.233 113.167 959.7 130 C 959.4 140.133 957.017 149.417 952.55 157.85 C 951.25 160.317 949.767 162.7 948.1 165 L 948.05 165 C 945.95 167.867 943.583 170.617 940.95 173.25 L 936.3 177.55 C 934.933 178.683 933.533 179.75 932.1 180.75 L 927.3 183.85 L 924.85 181.75 C 916.817 175.25 907.1 172 895.7 172 C 884.3 172 874.567 175.25 866.5 181.75 L 864.1 183.85 L 859.3 180.8 L 855.2 177.65 L 850.4 173.25 C 845.333 168.183 841.3 162.7 838.3 156.8 L 832.75 140.1 L 832.75 139.9 L 832.55 138.8 L 832.5 138.55 L 832.45 138.05 L 832.35 137.5 L 832.2 136.25 L 832.2 136.05 L 832.1 135.45 L 832.1 135.2 L 832.05 135 L 832.05 134.75 L 832 134.45 L 831.95 133.8 L 831.95 133.55 L 831.9 133.25 L 831.75 130" />
        <path stroke="none" fill="#E5E5E5"
            d="M 927.3 183.85 C 917.867 189.283 907.333 192 895.7 192 C 884.033 192 873.5 189.283 864.1 183.85 L 866.5 181.75 C 874.567 175.25 884.3 172 895.7 172 C 907.1 172 916.817 175.25 924.85 181.75 L 927.3 183.85" />
        <path stroke="none" fill="#5B5B5B"
            d="M 844.35 121.95 L 844.35 121.9 C 845.45 117.9 847.767 114.883 851.3 112.85 C 854.9 110.783 858.7 110.283 862.7 111.35 C 866.667 112.383 869.7 114.7 871.8 118.3 C 873.867 121.867 874.367 125.65 873.3 129.65 L 873.3 129.7 C 872 134.5 869.5 138.183 865.8 140.75 C 862.033 143.417 858.167 144.233 854.2 143.2 C 850.2 142.133 847.233 139.5 845.3 135.3 C 843.4 131.2 843.083 126.75 844.35 121.95 M 850 125.4 C 850 127.967 850.9 130.117 852.7 131.85 C 854.533 133.717 856.733 134.65 859.3 134.65 C 861.833 134.65 864.017 133.717 865.85 131.85 C 867.65 130.117 868.55 127.967 868.55 125.4 C 868.55 122.833 867.65 120.65 865.85 118.85 C 864.017 117.05 861.833 116.15 859.3 116.15 C 856.733 116.15 854.533 117.05 852.7 118.85 C 850.9 120.65 850 122.833 850 125.4 M 854.5 125.55 C 854.5 123.917 855.067 122.55 856.2 121.45 C 857.333 120.317 858.7 119.75 860.3 119.75 C 861.9 119.75 863.283 120.317 864.45 121.45 C 865.583 122.55 866.15 123.917 866.15 125.55 C 866.15 127.15 865.583 128.5 864.45 129.6 C 863.283 130.767 861.9 131.35 860.3 131.35 C 858.7 131.35 857.333 130.767 856.2 129.6 C 855.067 128.5 854.5 127.15 854.5 125.55 M 946.05 121.95 C 947.317 126.75 947 131.2 945.1 135.3 C 943.167 139.5 940.2 142.133 936.2 143.2 C 932.233 144.233 928.367 143.417 924.6 140.75 C 920.9 138.183 918.4 134.5 917.1 129.7 L 917.1 129.65 C 916.033 125.65 916.533 121.867 918.6 118.3 C 920.7 114.7 923.733 112.383 927.7 111.35 C 931.7 110.283 935.5 110.783 939.1 112.85 C 942.633 114.883 944.95 117.9 946.05 121.9 L 946.05 121.95 M 935.9 125.55 C 935.9 127.15 935.333 128.5 934.2 129.6 C 933.067 130.767 931.7 131.35 930.1 131.35 C 928.5 131.35 927.117 130.767 925.95 129.6 C 924.817 128.5 924.25 127.15 924.25 125.55 C 924.25 123.917 924.817 122.55 925.95 121.45 C 927.117 120.317 928.5 119.75 930.1 119.75 C 931.7 119.75 933.067 120.317 934.2 121.45 C 935.333 122.55 935.9 123.917 935.9 125.55 M 940.4 125.4 C 940.4 122.833 939.5 120.65 937.7 118.85 C 935.867 117.05 933.667 116.15 931.1 116.15 C 928.567 116.15 926.383 117.05 924.55 118.85 C 922.75 120.65 921.85 122.833 921.85 125.4 C 921.85 127.967 922.75 130.117 924.55 131.85 C 926.383 133.717 928.567 134.65 931.1 134.65 C 933.667 134.65 935.867 133.717 937.7 131.85 C 939.5 130.117 940.4 127.967 940.4 125.4" />
        <path stroke="none" fill="#FFFFFF"
            d="M 940.4 125.4 C 940.4 127.967 939.5 130.117 937.7 131.85 C 935.867 133.717 933.667 134.65 931.1 134.65 C 928.567 134.65 926.383 133.717 924.55 131.85 C 922.75 130.117 921.85 127.967 921.85 125.4 C 921.85 122.833 922.75 120.65 924.55 118.85 C 926.383 117.05 928.567 116.15 931.1 116.15 C 933.667 116.15 935.867 117.05 937.7 118.85 C 939.5 120.65 940.4 122.833 940.4 125.4 M 850 125.4 C 850 122.833 850.9 120.65 852.7 118.85 C 854.533 117.05 856.733 116.15 859.3 116.15 C 861.833 116.15 864.017 117.05 865.85 118.85 C 867.65 120.65 868.55 122.833 868.55 125.4 C 868.55 127.967 867.65 130.117 865.85 131.85 C 864.017 133.717 861.833 134.65 859.3 134.65 C 856.733 134.65 854.533 133.717 852.7 131.85 C 850.9 130.117 850 127.967 850 125.4 M 854.5 125.55 C 854.5 127.15 855.067 128.5 856.2 129.6 C 857.333 130.767 858.7 131.35 860.3 131.35 C 861.9 131.35 863.283 130.767 864.45 129.6 C 865.583 128.5 866.15 127.15 866.15 125.55 C 866.15 123.917 865.583 122.55 864.45 121.45 C 863.283 120.317 861.9 119.75 860.3 119.75 C 858.7 119.75 857.333 120.317 856.2 121.45 C 855.067 122.55 854.5 123.917 854.5 125.55 M 935.9 125.55 C 935.9 123.917 935.333 122.55 934.2 121.45 C 933.067 120.317 931.7 119.75 930.1 119.75 C 928.5 119.75 927.117 120.317 925.95 121.45 C 924.817 122.55 924.25 123.917 924.25 125.55 C 924.25 127.15 924.817 128.5 925.95 129.6 C 927.117 130.767 928.5 131.35 930.1 131.35 C 931.7 131.35 933.067 130.767 934.2 129.6 C 935.333 128.5 935.9 127.15 935.9 125.55" />
        <path stroke="none" fill="#666666"
            d="M 882.85 136.25 L 882.65 133.9 L 882.65 133 C 882.85 131.4 884.117 130.033 886.45 128.9 C 889.017 127.667 892.1 127.05 895.7 127.05 C 899.3 127.05 902.383 127.667 904.95 128.9 C 907.25 130.033 908.517 131.4 908.75 133 L 908.75 133.9 L 908.55 136.25 C 908.083 134.983 906.883 133.867 904.95 132.9 C 902.383 131.667 899.3 131.05 895.7 131.05 C 892.1 131.05 889.017 131.667 886.45 132.9 C 884.517 133.833 883.317 134.95 882.85 136.25" />
        <path stroke="none" fill="#464646"
            d="M 900.15 146.25 L 901 147.25 C 901.633 147.883 902.317 148.383 903.05 148.75 C 903.983 149.183 905 149.4 906.1 149.4 C 908.1 149.4 909.817 148.683 911.25 147.25 L 912.5 145.6 L 913 145.15 L 913.7 145.2 L 918.4 147.65 L 918.85 148.15 L 918.8 148.8 L 917.3 151.1 L 916.25 152.25 C 913.417 155.05 910.033 156.45 906.1 156.45 C 902.167 156.45 898.8 155.05 896 152.25 L 895.7 151.95 L 895.4 152.25 C 892.567 155.05 889.183 156.45 885.25 156.45 C 881.283 156.45 877.917 155.05 875.15 152.25 L 874.1 151.1 L 872.6 148.9 C 872.467 148.667 872.45 148.45 872.55 148.25 C 872.583 148.017 872.717 147.833 872.95 147.7 L 877.55 145.15 L 878.2 145.05 C 878.433 145.117 878.617 145.267 878.75 145.5 L 880.1 147.25 C 881.533 148.683 883.25 149.4 885.25 149.4 C 886.35 149.4 887.383 149.183 888.35 148.75 L 890.4 147.25 L 891.25 146.25 C 894.35 147.417 897.317 147.417 900.15 146.25" />
        <path stroke="none" fill="#5B5B5B"
            d="M 900.15 146.25 C 897.317 147.417 894.35 147.417 891.25 146.25 C 889.483 145.617 887.883 144.583 886.45 143.15 C 884.483 141.183 883.283 138.883 882.85 136.25 C 883.317 134.95 884.517 133.833 886.45 132.9 C 889.017 131.667 892.1 131.05 895.7 131.05 C 899.3 131.05 902.383 131.667 904.95 132.9 C 906.883 133.867 908.083 134.983 908.55 136.25 C 908.117 138.883 906.917 141.183 904.95 143.15 C 903.517 144.583 901.917 145.617 900.15 146.25" />
    </g>
</svg>