<?xml version="1.0" encoding="utf-8"?>
<svg viewBox="303.7977 27.3495 160.3546 169.1505" xmlns="http://www.w3.org/2000/svg">
    <g>
        <path stroke="none" fill="#987900"
            d="M419.35 34.7 Q422.1 39.4 421.1 44.75 L421.05 44.95 420.85 45.7 420.8 45.85 Q419.25 51.6 414.05 54.7 L413.55 55 413.3 55.15 411.95 55.75 408.75 64.95 Q416.05 67.75 422.65 72.45 L422.7 72.45 424.6 73.9 Q429 69.25 435.35 65.6 L435.4 65.6 Q436.45 64.95 437.6 64.35 L438 64.15 Q442.85 61.85 449.6 65.55 L449.65 65.6 Q455.75 69 460.05 76.4 L460 76.4 Q464.25 83.65 464.15 90.65 L464.15 90.7 464.05 92.9 Q463.3 98.9 459.5 101.55 L459.45 101.6 458.5 102.25 458.25 102.4 457.15 103 457.05 103.1 Q452.85 105.5 448.7 107 451.95 117.05 451.95 128.5 L451.95 130.5 451.95 130.65 Q451.45 146.8 444.35 160.25 442.25 164.15 439.6 167.85 L439.2 168.35 Q436 172.6 432.05 176.6 L427.15 181.1 427.1 181.15 422.65 184.55 Q405.75 196.5 383.95 196.5 362.1 196.5 345.25 184.6 L345.25 184.55 340.9 181.25 335.85 176.6 Q327.75 168.5 323 159.15 L322.75 158.55 317.2 141.85 317 140.7 317 140.6 316.95 140.4 316.75 139.4 316.75 139.2 316.7 139 316.7 138.8 316.65 138.6 316.5 137.1 316.4 136.6 316.4 136.3 316.35 135.95 316.35 135.9 316.3 135.65 316.25 135.1 316.2 134.55 316.15 134 316 130.7 315.95 128.5 Q315.95 117.05 319.25 107 315.1 105.5 310.9 103.1 L310.8 103 309.7 102.4 309.5 102.25 308.55 101.6 308.45 101.55 Q304.65 98.9 304 92.85 L304 93.1 303.8 90.7 303.8 90.65 Q303.7 83.65 307.95 76.4 312.2 69 318.35 65.6 L318.4 65.55 Q325.1 61.85 330 64.15 L330.4 64.35 332.6 65.6 Q338.95 69.25 343.4 73.85 L345.25 72.5 Q351.85 67.8 359.25 64.95 L356.05 55.75 354.05 54.8 353.9 54.75 353.6 54.55 Q348.65 51.45 347.15 45.85 L347.1 45.7 346.95 44.95 346.9 44.75 Q345.85 39.4 348.6 34.7 351.6 29.5 357.45 27.9 L357.5 27.9 Q363.15 26.35 368.15 29.2 L368.6 29.4 370.55 30.75 370.45 30.65 Q374.05 33.45 375.35 38.25 376.35 41.8 375.65 45.05 L375.65 44.95 Q375.25 46.95 374.25 48.9 L373.9 49.6 372.65 51.3 374.55 61.1 383.95 60.5 393.5 61.1 395.3 51.3 394.1 49.55 393.75 48.85 Q392.7 46.95 392.35 45 L392.35 45.1 Q391.65 41.8 392.6 38.35 L392.6 38.25 Q393.7 33.9 396.85 31.15 L399.3 29.4 399.35 29.35 Q404.55 26.3 410.5 27.9 416.25 29.45 419.35 34.65 L419.35 34.7" />
        <path stroke="none" fill="#FFCC00"
            d="M460.05 92.4 Q459.5 87.45 456.55 82.4 452.9 76.05 447.65 73.05 442.9 70.45 439.5 71.85 L437.35 73.05 Q427.7 78.65 422.95 86.5 L422.35 86 421.4 85.25 422.15 83.85 Q426.9 75.1 437.35 69.05 L439.5 67.85 Q442.9 66.45 447.65 69.05 452.9 72.05 456.55 78.4 460.2 84.65 460.15 90.65 L460.05 92.4 M345 86.45 Q340.2 78.6 330.6 73.05 L328.45 71.85 Q325.05 70.45 320.3 73.05 315.05 76.05 311.4 82.4 308.45 87.45 307.95 92.4 L307.8 90.65 Q307.75 84.65 311.4 78.4 315.05 72.05 320.3 69.05 325.05 66.45 328.45 67.85 L330.6 69.05 Q341.05 75.1 345.8 83.85 L346.55 85.25 345 86.45" />
        <path stroke="none" fill="#E9BB00"
            d="M345 86.45 Q341.9 88.85 339 91.75 335.4 87.7 330 84.55 L328.25 83.6 Q325.45 82.45 321.5 84.55 317.2 87.05 314.2 92.3 312.25 95.6 311.6 98.85 L310.85 98.35 Q308.4 96.5 307.95 92.4 308.45 87.45 311.4 82.4 315.05 76.05 320.3 73.05 325.05 70.45 328.45 71.85 L330.6 73.05 Q340.2 78.6 345 86.45 M422.95 86.5 Q427.7 78.65 437.35 73.05 L439.5 71.85 Q442.9 70.45 447.65 73.05 452.9 76.05 456.55 82.4 459.5 87.45 460.05 92.4 459.55 96.5 457.1 98.35 L456.35 98.85 Q455.7 95.6 453.75 92.3 450.75 87.05 446.45 84.55 442.5 82.45 439.7 83.6 L437.95 84.55 Q432.55 87.7 428.95 91.75 L422.95 86.5" />
        <path stroke="none" fill="#CBA200"
            d="M428.95 91.75 Q432.55 87.7 437.95 84.55 L439.7 83.6 Q442.5 82.45 446.45 84.55 450.75 87.05 453.75 92.3 455.7 95.6 456.35 98.85 L455.05 99.6 Q447.15 104.15 439.55 105.2 435.4 98.15 429.25 92 L428.95 91.75 M311.6 98.85 Q312.25 95.6 314.2 92.3 317.2 87.05 321.5 84.55 325.45 82.45 328.25 83.6 L330 84.55 Q335.4 87.7 339 91.75 L338.7 92 Q332.55 98.15 328.4 105.2 320.8 104.15 312.9 99.6 L311.6 98.85" />
        <path stroke="none" fill="#EEBE00"
            d="M347.85 79.55 Q363.65 68.5 383.95 68.5 404.3 68.5 420.05 79.5 418.35 95.55 409.75 107.55 399.05 122.5 383.95 122.5 368.85 122.5 358.15 107.55 349.55 95.55 347.85 79.55 M371.4 110.8 Q371.6 111.6 372.2 112.25 372.85 112.75 373.7 112.9 L379.9 113.55 Q380.75 113.65 381.5 113.2 382.25 112.75 382.6 111.95 L385.15 106.25 Q385.5 105.45 385.35 104.65 385.15 103.75 384.55 103.2 L379.9 99 Q379.25 98.4 378.4 98.35 377.55 98.25 376.8 98.65 L371.35 101.8 Q370.6 102.2 370.25 103.05 369.9 103.8 370.1 104.7 L371.4 110.8 M380 87.15 Q380.45 86.45 380.45 85.6 380.45 84.75 380 84.05 L375.05 77.25 373.75 76.3 Q372.9 76 372.1 76.3 L364.15 78.85 Q363.3 79.15 362.8 79.85 362.3 80.5 362.3 81.35 L362.3 89.75 Q362.3 90.65 362.8 91.35 363.3 92 364.15 92.25 L372.1 94.85 Q372.9 95.1 373.75 94.85 L375.05 93.95 380 87.15 M392.65 103.1 Q393.35 103.6 394.2 103.6 395.1 103.6 395.8 103.1 L405.5 96.05 Q406.15 95.5 406.4 94.7 406.65 93.9 406.4 93.1 L402.7 81.65 Q402.45 80.8 401.8 80.3 401.1 79.8 400.2 79.8 L388.15 79.8 Q387.25 79.8 386.6 80.3 385.9 80.8 385.65 81.65 L381.95 93.1 Q381.7 93.9 381.95 94.7 382.2 95.5 382.9 96.05 L392.65 103.1" />
        <path stroke="none" fill="#FFCC00"
            d="M392.65 103.1 L382.9 96.05 Q382.2 95.5 381.95 94.7 381.7 93.9 381.95 93.1 L385.65 81.65 Q385.9 80.8 386.6 80.3 387.25 79.8 388.15 79.8 L400.2 79.8 Q401.1 79.8 401.8 80.3 402.45 80.8 402.7 81.65 L406.4 93.1 Q406.65 93.9 406.4 94.7 406.15 95.5 405.5 96.05 L395.8 103.1 Q395.1 103.6 394.2 103.6 393.35 103.6 392.65 103.1 M420.05 79.5 Q424.85 82.85 429.25 87.25 447.25 105.25 447.95 130.5 447.5 145.7 440.8 158.35 438.85 162.05 436.35 165.5 L436.3 165.5 Q433.15 169.8 429.2 173.75 L424.55 178.05 Q420.15 176.45 420.2 171.75 419.1 160.5 409.75 152.25 399.25 143 384.4 143 369.55 143 359 152.25 349.7 160.5 348.65 171.75 347.3 176.55 343.45 178.15 L338.65 173.75 Q331.05 166.15 326.55 157.3 L321 140.6 321 140.4 320.8 139.3 320.75 139.05 320.7 138.55 320.6 138 320.45 136.75 320.45 136.55 320.35 135.95 320.35 135.7 320.3 135.5 320.3 135.25 320.25 134.95 320.2 134.3 320.2 134.05 320.15 133.75 320 130.5 Q320.65 105.25 338.7 87.25 343.05 82.9 347.85 79.55 349.55 95.55 358.15 107.55 368.85 122.5 383.95 122.5 399.05 122.5 409.75 107.55 418.35 95.55 420.05 79.5 M380 87.15 L375.05 93.95 373.75 94.85 Q372.9 95.1 372.1 94.85 L364.15 92.25 Q363.3 92 362.8 91.35 362.3 90.65 362.3 89.75 L362.3 81.35 Q362.3 80.5 362.8 79.85 363.3 79.15 364.15 78.85 L372.1 76.3 Q372.9 76 373.75 76.3 L375.05 77.25 380 84.05 Q380.45 84.75 380.45 85.6 380.45 86.45 380 87.15 M371.4 110.8 L370.1 104.7 Q369.9 103.8 370.25 103.05 370.6 102.2 371.35 101.8 L376.8 98.65 Q377.55 98.25 378.4 98.35 379.25 98.4 379.9 99 L384.55 103.2 Q385.15 103.75 385.35 104.65 385.5 105.45 385.15 106.25 L382.6 111.95 Q382.25 112.75 381.5 113.2 380.75 113.65 379.9 113.55 L373.7 112.9 Q372.85 112.75 372.2 112.25 371.6 111.6 371.4 110.8" />
        <path stroke="none" fill="#FFD738"
            d="M447.95 130.5 Q447.25 105.25 429.25 87.25 424.85 82.85 420.05 79.5 404.3 68.5 383.95 68.5 363.65 68.5 347.85 79.55 343.05 82.9 338.7 87.25 320.65 105.25 320 130.5 L319.95 128.5 Q319.95 101.95 338.7 83.25 342.95 79 347.55 75.75 363.45 64.5 383.95 64.5 404.5 64.5 420.35 75.7 425 79 429.25 83.25 447.95 101.95 447.95 128.5 L447.95 130.5" />
        <path stroke="none" fill="#D2A800"
            d="M343.45 178.15 Q347.3 176.55 348.65 171.75 349.7 160.5 359 152.25 369.55 143 384.4 143 399.25 143 409.75 152.25 419.1 160.5 420.2 171.75 420.15 176.45 424.55 178.05 L420.35 181.25 Q404.45 192.5 383.95 192.5 363.4 192.5 347.55 181.3 L343.45 178.15 M402.9 156.5 Q401.4 155 398.45 155.85 395.5 156.65 392.85 159.3 L392.7 159.45 Q391.3 160.9 391.3 163 391.3 165.15 392.8 166.65 394.3 168.15 396.45 168.15 398.5 168.15 400 166.75 L400.15 166.6 Q402.8 163.95 403.6 161 404.45 158.05 402.9 156.5 M368.8 166.75 Q370.3 168.15 372.35 168.15 374.5 168.15 376 166.65 377.5 165.15 377.5 163 377.5 160.9 376.1 159.45 L375.95 159.3 Q373.3 156.65 370.35 155.85 367.4 155 365.9 156.5 364.35 158.05 365.2 161 366 163.95 368.65 166.6 L368.8 166.75" />
        <path stroke="none" fill="#A38200"
            d="M368.8 166.75 L368.65 166.6 Q366 163.95 365.2 161 364.35 158.05 365.9 156.5 367.4 155 370.35 155.85 373.3 156.65 375.95 159.3 L376.1 159.45 Q377.5 160.9 377.5 163 377.5 165.15 376 166.65 374.5 168.15 372.35 168.15 370.3 168.15 368.8 166.75 M402.9 156.5 Q404.45 158.05 403.6 161 402.8 163.95 400.15 166.6 L400 166.75 Q398.5 168.15 396.45 168.15 394.3 168.15 392.8 166.65 391.3 165.15 391.3 163 391.3 160.9 392.7 159.45 L392.85 159.3 Q395.5 156.65 398.45 155.85 401.4 155 402.9 156.5" />
        <path stroke="none" fill="#5B5B5B"
            d="M 339.6 135.25 C 339.6 132.85 340.45 130.8 342.15 129.1 C 343.817 127.433 345.867 126.6 348.3 126.6 C 350.667 126.6 352.7 127.433 354.4 129.1 C 356.1 130.8 356.95 132.85 356.95 135.25 C 356.95 137.65 356.1 139.667 354.4 141.3 C 352.7 143 350.667 143.85 348.3 143.85 C 345.867 143.85 343.817 143 342.15 141.3 C 340.45 139.667 339.6 137.65 339.6 135.25 M 427.15 135.25 C 427.15 137.65 426.317 139.667 424.65 141.3 C 422.983 143 420.933 143.85 418.5 143.85 C 416.133 143.85 414.083 143 412.35 141.3 C 410.683 139.667 409.85 137.65 409.85 135.25 C 409.85 132.85 410.683 130.8 412.35 129.1 C 414.083 127.433 416.133 126.6 418.5 126.6 C 420.933 126.6 422.983 127.433 424.65 129.1 C 426.317 130.8 427.15 132.85 427.15 135.25" />
        <path stroke="none" fill="#FFFFFF"
            d="M 427.15 135.25 C 427.15 132.85 426.317 130.8 424.65 129.1 C 422.983 127.433 420.933 126.6 418.5 126.6 C 416.133 126.6 414.083 127.433 412.35 129.1 C 410.683 130.8 409.85 132.85 409.85 135.25 C 409.85 137.65 410.683 139.667 412.35 141.3 C 414.083 143 416.133 143.85 418.5 143.85 C 420.933 143.85 422.983 143 424.65 141.3 C 426.317 139.667 427.15 137.65 427.15 135.25 M 339.6 135.25 C 339.6 137.65 340.45 139.667 342.15 141.3 C 343.817 143 345.867 143.85 348.3 143.85 C 350.667 143.85 352.7 143 354.4 141.3 C 356.1 139.667 356.95 137.65 356.95 135.25 C 356.95 132.85 356.1 130.8 354.4 129.1 C 352.7 127.433 350.667 126.6 348.3 126.6 C 345.867 126.6 343.817 127.433 342.15 129.1 C 340.45 130.8 339.6 132.85 339.6 135.25 M 334.9 135.05 C 334.9 131.583 336.117 128.633 338.55 126.2 C 340.983 123.767 343.933 122.55 347.4 122.55 C 350.8 122.55 353.733 123.767 356.2 126.2 C 358.633 128.633 359.85 131.583 359.85 135.05 C 359.85 138.483 358.633 141.4 356.2 143.8 C 353.733 146.267 350.8 147.5 347.4 147.5 C 343.933 147.5 340.983 146.267 338.55 143.8 C 336.117 141.4 334.9 138.483 334.9 135.05 M 431.9 135.05 C 431.9 138.483 430.683 141.4 428.25 143.8 C 425.817 146.267 422.867 147.5 419.4 147.5 C 416 147.5 413.067 146.267 410.6 143.8 C 408.167 141.4 406.95 138.483 406.95 135.05 C 406.95 131.583 408.167 128.633 410.6 126.2 C 413.067 123.767 416 122.55 419.4 122.55 C 422.867 122.55 425.817 123.767 428.25 126.2 C 430.683 128.633 431.9 131.583 431.9 135.05" />
        <path stroke="none" fill="#CBA200"
            d="M417.15 43.95 L416.95 44.8 Q415.8 49 412 51.25 L411.5 51.55 Q410.2 52.2 408.85 52.5 L402.3 71.15 402.3 71.2 Q401.8 72.45 400.65 73.05 L400.65 73.1 398.25 73.35 398.3 73.35 Q397.1 73.1 396.35 71.9 L396.3 71.8 Q395.65 70.7 395.95 69.45 L399.6 50.05 Q398.4 48.9 397.45 47.4 L397.45 47.35 Q396.55 45.8 396.25 44.25 L396.45 43.3 Q397.25 40.15 399.5 38.15 400.35 37.4 401.35 36.8 405.15 34.6 409.45 35.75 413.65 36.9 415.9 40.7 416.8 42.3 417.15 43.95 M350.8 43.95 Q351.15 42.3 352.05 40.7 354.25 36.9 358.5 35.75 362.8 34.6 366.55 36.85 L366.6 36.85 367.95 37.8 Q370.55 39.85 371.5 43.3 L371.7 44.2 Q371.4 45.85 370.5 47.4 L370.5 47.45 368.35 50.05 372.05 69.5 372 69.45 Q372.2 70.65 371.7 71.7 L371.55 71.95 371.6 71.95 Q370.9 73 369.7 73.4 L367.3 73.15 367.2 73.1 Q366.15 72.5 365.7 71.2 L365.65 71.2 359.15 52.5 Q357.5 52.15 355.95 51.3 L355.7 51.15 Q352.1 48.9 351 44.8 L350.8 43.95" />
        <path stroke="none" fill="#DBAF00"
            d="M 350.8 43.95 C 350.3 41.383 350.717 38.967 352.05 36.7 C 353.517 34.167 355.667 32.517 358.5 31.75 C 361.367 30.983 364.05 31.35 366.55 32.85 L 366.6 32.85 L 367.95 33.8 C 369.683 35.167 370.867 37 371.5 39.3 C 371.967 41 372.033 42.633 371.7 44.2 L 371.5 43.3 C 370.867 41 369.683 39.167 367.95 37.8 L 366.6 36.85 L 366.55 36.85 C 364.05 35.35 361.367 34.983 358.5 35.75 C 355.667 36.517 353.517 38.167 352.05 40.7 C 351.45 41.767 351.033 42.85 350.8 43.95 M 396.25 44.25 C 395.917 42.65 395.983 41 396.45 39.3 C 396.983 37.2 398 35.483 399.5 34.15 C 400.067 33.65 400.683 33.2 401.35 32.8 C 403.883 31.333 406.583 30.983 409.45 31.75 C 412.25 32.517 414.4 34.167 415.9 36.7 C 417.233 38.967 417.65 41.383 417.15 43.95 C 416.917 42.85 416.5 41.767 415.9 40.7 C 414.4 38.167 412.25 36.517 409.45 35.75 C 406.583 34.983 403.883 35.333 401.35 36.8 C 400.683 37.2 400.067 37.65 399.5 38.15 C 398 39.483 396.983 41.2 396.45 43.3 L 396.25 44.25" />
    </g>
</svg>