<?xml version="1.0" encoding="utf-8"?>
<svg viewBox="569.85 444 136 136" xmlns="http://www.w3.org/2000/svg">
    <g>
        <path stroke="none" fill="#987900"
            d="M705.85 512 L705.85 514 705.85 514.1 Q705.1 540.8 685.9 560 L685.9 560.05 Q681.75 564.2 677.25 567.5 660.05 580 637.85 580 614.05 580 596.15 565.7 L596.1 565.7 589.8 560.05 Q570.6 540.85 569.9 514.2 L569.85 512 Q569.85 483.85 589.8 463.95 609.7 444 637.85 444 665.95 444 685.9 463.95 705.85 483.85 705.85 512" />
        <path stroke="none" fill="#FFD738"
            d="M573.9 514 L573.85 512 Q573.85 485.5 592.6 466.75 611.35 448 637.85 448 664.3 448 683.05 466.75 701.85 485.5 701.85 512 L701.85 514 Q701.15 488.8 683.05 470.75 664.3 452 637.85 452 611.35 452 592.6 470.75 574.55 488.8 573.9 514" />
        <path stroke="none" fill="#FFCC00"
            d="M573.9 514 Q574.55 488.8 592.6 470.75 611.35 452 637.85 452 664.3 452 683.05 470.75 701.15 488.8 701.85 514 701.15 539.15 683.05 557.2 679.15 561.15 674.9 564.25 L672.7 560.25 Q657.65 533.9 636.3 533.9 614.95 533.9 599.85 560.25 L598.6 562.55 592.6 557.2 Q574.55 539.15 573.9 514" />
        <path stroke="none" fill="#EEBE00"
            d="M674.9 564.25 Q658.75 576 637.85 576 615.45 576 598.6 562.55 L599.85 560.25 Q614.95 533.9 636.3 533.9 657.65 533.9 672.7 560.25 L674.9 564.25" />
        <path stroke="none" fill="#FFFFFF"
            d="M681.55 514.9 Q681.55 511.25 679.1 508.8 676.55 506.25 672.9 506.25 669.4 506.25 666.8 508.8 664.25 511.25 664.25 514.9 L664.3 515.75 Q664.55 518.7 666.8 520.85 669.4 523.35 672.9 523.35 676.55 523.35 679.1 520.85 681.25 518.7 681.5 515.75 L681.55 514.9 M689.1 515 Q689.1 520.7 685.05 524.6 681 528.7 675.3 528.7 669.7 528.7 665.55 524.6 661.6 520.7 661.6 515 661.6 509.25 665.55 505.25 669.7 501.2 675.3 501.2 681 501.2 685.05 505.25 689.1 509.25 689.1 515" />
        <path stroke="none" fill="#5B5B5B"
            d="M681.55 514.9 L681.5 515.75 Q681.25 518.7 679.1 520.85 676.55 523.35 672.9 523.35 669.4 523.35 666.8 520.85 664.55 518.7 664.3 515.75 L664.25 514.9 Q664.25 511.25 666.8 508.8 669.4 506.25 672.9 506.25 676.55 506.25 679.1 508.8 681.55 511.25 681.55 514.9" />
        <path stroke="none" fill="#5B5B5B"
            d="M594.15 514.9 Q594.15 511.25 596.6 508.8 599.15 506.25 602.8 506.25 606.3 506.25 608.9 508.8 611.45 511.25 611.45 514.9 L611.4 515.75 Q611.15 518.7 608.9 520.85 606.3 523.35 602.8 523.35 599.15 523.35 596.6 520.85 594.45 518.7 594.2 515.75 L594.15 514.9" />
        <path stroke="none" fill="#FFFFFF"
            d="M586.6 515 Q586.6 509.25 590.65 505.25 594.7 501.2 600.4 501.2 606 501.2 610.15 505.25 614.1 509.25 614.1 515 614.1 520.7 610.15 524.6 606 528.7 600.4 528.7 594.7 528.7 590.65 524.6 586.6 520.7 586.6 515 M594.15 514.9 L594.2 515.75 Q594.45 518.7 596.6 520.85 599.15 523.35 602.8 523.35 606.3 523.35 608.9 520.85 611.15 518.7 611.4 515.75 L611.45 514.9 Q611.45 511.25 608.9 508.8 606.3 506.25 602.8 506.25 599.15 506.25 596.6 508.8 594.15 511.25 594.15 514.9" />
        <path stroke="none" fill="#FF9900"
            d="M658.25 526.65 Q656.95 521.6 652.75 517.65 L650.4 515.7 Q645 511.95 637.95 511.95 630.9 511.95 625.5 515.7 624.25 516.55 623.05 517.65 618.9 521.6 617.6 526.65 616.1 525.45 615.6 524.05 616.7 517.1 621.9 511.8 623.2 510.5 624.55 509.55 630.35 505.2 637.95 505.2 645.55 505.2 651.35 509.55 L653.9 511.8 Q659.15 517.1 660.2 524.05 659.7 525.4 658.25 526.65" />
        <path stroke="none" fill="#F39100"
            d="M658.25 526.65 Q656.65 527.95 653.9 529.05 647.3 531.75 637.95 531.75 628.55 531.75 621.9 529.05 619.15 527.95 617.6 526.65 618.9 521.6 623.05 517.65 624.25 516.55 625.5 515.7 630.9 511.95 637.95 511.95 645 511.95 650.4 515.7 L652.75 517.65 Q656.95 521.6 658.25 526.65" />
        <path stroke="none" fill="#E08600"
            d="M658.25 526.65 Q659.7 525.4 660.2 524.05 L660.5 527.75 660.4 529.25 Q660 534.25 653.9 537.85 647.3 541.7 637.95 541.7 628.55 541.7 621.9 537.85 615.85 534.25 615.4 529.25 L615.35 527.75 Q615.35 525.8 615.6 524.05 616.1 525.45 617.6 526.65 619.15 527.95 621.9 529.05 628.55 531.75 637.95 531.75 647.3 531.75 653.9 529.05 656.65 527.95 658.25 526.65" />
        <path stroke="none" fill="#EEBE00"
            d="M651.25 464.45 Q655.15 471.2 655.9 477.1 656.8 482.95 654.05 484.5 651.3 486.1 646.6 482.45 642 478.8 638.1 472.05 L637.2 470.5 Q635.6 467.3 636 464 636.4 460.35 639.15 458.75 641.9 457.2 645.3 458.65 648.3 459.95 650.3 462.95 L651.25 464.45 M631.55 472.15 Q629 476.65 625.85 479.05 622.8 481.5 621 480.4 619.2 479.4 619.75 475.5 620.3 471.6 622.85 467.15 L623.45 466.1 Q624.8 464.1 626.8 463.25 629.05 462.25 630.85 463.3 632.65 464.4 632.95 466.85 633.2 468.95 632.15 471.1 L631.55 472.15" />
    </g>
</svg>