<?xml version="1.0" encoding="utf-8"?>
<svg viewBox="569.85 828 136 136" xmlns="http://www.w3.org/2000/svg">
    <g>
        <path stroke="none" fill="#2C2B2B"
            d="M576.05 867.3 Q580.9 856.75 589.8 847.9 L590.9 846.85 590.95 846.75 Q610.5 828 637.85 828 665.3 828 684.9 846.85 L684.95 846.9 685.95 847.9 Q689.85 851.8 693.05 856.1 696.95 861.4 699.75 867.25 L699.75 867.3 700.65 869.3 700.7 869.4 Q705.85 881.6 705.85 896 L705.85 896.5 705.85 897 705.85 898 705.85 898.5 705.85 898.65 Q705.1 919.6 693.05 935.9 L690.75 938.75 690.8 938.7 689.3 940.45 685.95 944.05 Q676.15 953.85 664.35 958.85 652.15 964 637.85 964 628.8 964 620.65 961.95 615.85 960.75 611.4 958.85 599.55 953.85 589.8 944.05 L586.4 940.45 Q570.8 922.75 569.9 898.9 L569.85 898 569.85 897 569.85 896.5 569.85 896 Q569.85 881.6 575.1 869.4 L575.05 869.5 576.1 867.15 576.05 867.3" />
        <path stroke="none" fill="#545353"
            d="M701.85 898.5 Q701.55 883.45 695.1 870.95 L694.05 868.95 Q692.15 865.6 689.8 862.45 686.8 858.4 683.1 854.7 L682.1 853.7 Q663.7 836 637.85 836 612.05 836 593.65 853.7 L592.6 854.7 Q585.95 861.35 581.7 868.95 L580.6 870.95 Q574.2 883.45 573.9 898.5 L573.85 898 573.85 897 573.85 896.5 573.85 896 Q573.85 882.45 578.75 870.95 L579.65 868.95 Q584.25 859.05 592.6 850.7 L593.65 849.7 Q612.05 832 637.85 832 663.7 832 682.1 849.7 L683.1 850.7 Q686.8 854.4 689.8 858.45 693.5 863.45 696.1 868.95 L697 870.95 Q701.85 882.45 701.85 896 L701.85 896.5 701.85 897 701.85 898 701.85 898.5" />
        <path stroke="none" fill="#414040"
            d="M701.85 898.5 Q701.15 918.2 689.8 933.5 L687.7 936.15 686.3 937.8 683.1 941.2 Q673.9 950.45 662.8 955.15 651.3 960 637.85 960 629.3 960 621.6 958.05 617.15 956.95 612.95 955.15 601.8 950.45 592.6 941.2 L589.4 937.8 Q574.65 921.1 573.9 898.5 574.2 883.45 580.6 870.95 L581.7 868.95 Q585.95 861.35 592.6 854.7 L593.65 853.7 Q612.05 836 637.85 836 663.7 836 682.1 853.7 L683.1 854.7 Q686.8 858.4 689.8 862.45 692.15 865.6 694.05 868.95 L695.1 870.95 Q701.55 883.45 701.85 898.5 M681.4 872.85 L679.35 870.95 676.6 868.95 Q670.15 864.8 662 864.8 653.8 864.8 647.35 868.95 637.85 873.8 628.35 868.95 621.9 864.8 613.75 864.8 605.6 864.8 599.15 868.95 597.75 869.85 596.4 870.95 L594.3 872.85 Q586.25 880.9 586.25 892.25 586.25 903.65 594.3 911.75 L594.4 911.75 598.95 915.45 Q599 931.4 610.35 942.65 614.85 947.2 620.15 949.9 628.15 954.05 637.85 954.05 653.95 954.05 665.4 942.65 L669.05 938.55 Q676.65 928.55 676.75 915.45 L681.4 911.75 Q689.45 903.65 689.45 892.25 689.45 880.9 681.4 872.85 M655.85 859.75 L655.8 859.2 Q655.35 852 650.7 846.75 645.55 841 638.35 841 631.1 841 625.95 846.75 621.35 852 620.9 859.2 L620.85 859.75 Q620.85 860.45 621.15 861.1 622.05 863.25 625.95 864.9 631.1 867 638.35 867 645.55 867 650.7 864.9 654.65 863.25 655.6 861.1 L655.85 859.75" />
        <path stroke="none" fill="#FFFFFF"
            d="M596.2 896.1 Q596.2 891.5 599.45 888.3 602.75 885.1 607.35 885.1 611.9 885.1 615.25 888.3 618.45 891.5 618.45 896.1 618.45 900.7 615.25 903.85 611.9 907.2 607.35 907.2 602.75 907.2 599.45 903.85 596.2 900.7 596.2 896.1 M601.65 896.35 Q601.65 899.2 603.7 901.15 605.6 903.25 608.55 903.25 611.45 903.25 613.5 901.15 615.55 899.2 615.55 896.35 615.55 893.35 613.5 891.4 611.45 889.4 608.55 889.4 605.6 889.4 603.7 891.4 601.65 893.35 601.65 896.35 M620.15 918.4 Q640.15 912.25 657.15 918.4 660.3 927.8 657.15 936.15 655.15 936.3 653.2 935.5 639.45 929.95 622.95 935.7 L620.15 936.2 Q616.6 928.3 620.15 918.4 M680.25 896.1 Q680.25 900.7 677 903.85 673.75 907.2 669.1 907.2 664.55 907.2 661.35 903.85 658 900.7 658 896.1 658 891.5 661.35 888.3 664.55 885.1 669.1 885.1 673.75 885.1 677 888.3 680.25 891.5 680.25 896.1 M674.9 896.35 Q674.9 893.35 672.85 891.4 670.8 889.4 667.95 889.4 665.1 889.4 662.95 891.4 660.9 893.35 660.9 896.35 660.9 899.2 662.95 901.15 665.1 903.25 667.95 903.25 670.8 903.25 672.85 901.15 674.9 899.2 674.9 896.35" />
        <path stroke="none" fill="#BDB6B6"
            d="M596.2 896.1 Q596.2 900.7 599.45 903.85 602.75 907.2 607.35 907.2 611.9 907.2 615.25 903.85 618.45 900.7 618.45 896.1 618.45 891.5 615.25 888.3 611.9 885.1 607.35 885.1 602.75 885.1 599.45 888.3 596.2 891.5 596.2 896.1 M681.4 872.85 Q689.45 880.9 689.45 892.25 689.45 903.65 681.4 911.75 L676.75 915.45 Q676.65 928.55 669.05 938.55 L665.4 942.65 Q653.95 954.05 637.85 954.05 628.15 954.05 620.15 949.9 614.85 947.2 610.35 942.65 599 931.4 598.95 915.45 L594.4 911.75 594.3 911.75 Q586.25 903.65 586.25 892.25 586.25 880.9 594.3 872.85 L596.4 870.95 Q597.75 869.85 599.15 868.95 605.6 864.8 613.75 864.8 621.9 864.8 628.35 868.95 637.85 873.8 647.35 868.95 653.8 864.8 662 864.8 670.15 864.8 676.6 868.95 L679.35 870.95 681.4 872.85 M616.1 875.75 Q614.8 875.9 613.8 876.85 612.85 877.8 612.85 879.15 612.85 880.5 613.8 881.45 614.8 882.4 616.4 882.6 637.8 885.2 659 882.4 660.85 882.4 661.8 881.45 662.75 880.5 662.75 879.15 662.75 877.8 661.8 876.85 660.85 875.9 659 875.7 637 873.65 616.1 875.75 M641.6 899.2 L641.45 899.3 Q640.3 900.45 640.3 902.15 640.3 903.9 641.55 905.15 L641.95 905.45 642.35 905.75 Q643.25 906.35 644.5 906.35 646.15 906.35 647.3 905.2 L647.45 905 649.1 903 Q649.95 901.8 650.25 900.55 L650.35 900.2 Q650.8 898 649.7 896.9 648.5 895.7 646.05 896.35 643.75 897.05 641.6 899.2 M635.1 905.15 Q636.3 903.9 636.3 902.15 636.3 900.45 635.15 899.3 L635 899.2 Q632.9 897.05 630.5 896.35 628.1 895.7 626.85 896.9 625.75 898 626.25 900.2 L626.35 900.55 Q626.65 901.8 627.45 903.05 L629.1 905 629.2 905.2 Q630.4 906.35 632.1 906.35 633.3 906.35 634.3 905.75 L634.7 905.45 635.1 905.15 M620.15 918.4 L617.3 919.3 Q613.85 920.5 612.35 923.7 610.75 927 611.95 930.3 613.1 933.75 616.4 935.3 618.25 936.2 620.15 936.2 L622.95 935.7 Q639.45 929.95 653.2 935.5 655.15 936.3 657.15 936.15 L659.8 935.5 Q663.1 934.2 664.45 930.85 665.8 927.55 664.5 924.2 663.15 920.95 659.9 919.5 L657.15 918.4 Q640.15 912.25 620.15 918.4 M680.25 896.1 Q680.25 891.5 677 888.3 673.75 885.1 669.1 885.1 664.55 885.1 661.35 888.3 658 891.5 658 896.1 658 900.7 661.35 903.85 664.55 907.2 669.1 907.2 673.75 907.2 677 903.85 680.25 900.7 680.25 896.1" />
        <path stroke="none" fill="#464545"
            d="M655.85 859.75 L655.6 861.1 Q654.65 863.25 650.7 864.9 645.55 867 638.35 867 631.1 867 625.95 864.9 622.05 863.25 621.15 861.1 620.85 860.45 620.85 859.75 L620.9 859.2 Q621.35 852 625.95 846.75 631.1 841 638.35 841 645.55 841 650.7 846.75 655.35 852 655.8 859.2 L655.85 859.75" />
        <path stroke="none" fill="#A8A1A1"
            d="M616.1 875.75 Q637 873.65 659 875.7 660.85 875.9 661.8 876.85 662.75 877.8 662.75 879.15 662.75 880.5 661.8 881.45 660.85 882.4 659 882.4 637.8 885.2 616.4 882.6 614.8 882.4 613.8 881.45 612.85 880.5 612.85 879.15 612.85 877.8 613.8 876.85 614.8 875.9 616.1 875.75" />
        <path stroke="none" fill="#989292"
            d="M641.6 899.2 Q643.75 897.05 646.05 896.35 648.5 895.7 649.7 896.9 650.8 898 650.35 900.2 L650.25 900.55 Q649.95 901.8 649.1 903 L647.45 905 647.3 905.2 Q646.15 906.35 644.5 906.35 643.25 906.35 642.35 905.75 L641.95 905.45 641.55 905.15 Q640.3 903.9 640.3 902.15 640.3 900.45 641.45 899.3 L641.6 899.2 M635.1 905.15 L634.7 905.45 634.3 905.75 Q633.3 906.35 632.1 906.35 630.4 906.35 629.2 905.2 L629.1 905 627.45 903.05 Q626.65 901.8 626.35 900.55 L626.25 900.2 Q625.75 898 626.85 896.9 628.1 895.7 630.5 896.35 632.9 897.05 635 899.2 L635.15 899.3 Q636.3 900.45 636.3 902.15 636.3 903.9 635.1 905.15" />
        <path stroke="none" fill="#5B5B5B"
            d="M601.65 896.35 Q601.65 893.35 603.7 891.4 605.6 889.4 608.55 889.4 611.45 889.4 613.5 891.4 615.55 893.35 615.55 896.35 615.55 899.2 613.5 901.15 611.45 903.25 608.55 903.25 605.6 903.25 603.7 901.15 601.65 899.2 601.65 896.35 M674.9 896.35 Q674.9 899.2 672.85 901.15 670.8 903.25 667.95 903.25 665.1 903.25 662.95 901.15 660.9 899.2 660.9 896.35 660.9 893.35 662.95 891.4 665.1 889.4 667.95 889.4 670.8 889.4 672.85 891.4 674.9 893.35 674.9 896.35" />
        <path stroke="none" fill="#E7E7E7"
            d="M620.15 936.2 Q618.25 936.2 616.4 935.3 613.1 933.75 611.95 930.3 610.75 927 612.35 923.7 613.85 920.5 617.3 919.3 L620.15 918.4 Q616.6 928.3 620.15 936.2 M657.15 918.4 L659.9 919.5 Q663.15 920.95 664.5 924.2 665.8 927.55 664.45 930.85 663.1 934.2 659.8 935.5 L657.15 936.15 Q660.3 927.8 657.15 918.4" />
    </g>
</svg>