<?xml version="1.0" encoding="utf-8"?>
<svg viewBox="827.6771 621.25 136.4676 151.2" xmlns="http://www.w3.org/2000/svg">
    <g>
        <path stroke="none" fill="#1B8045"
            d="M940.6 628.4 Q943.85 631.7 945.6 635.75 L945.7 636 Q947.4 640.2 947.5 645.25 L947.5 645.35 947.4 647.8 Q946.95 652.25 945.1 656.05 L949.7 656.75 Q957.5 658.8 961.5 665.85 L961.5 665.8 Q965.5 672.8 963.45 680.6 L962.7 682.85 962.7 682.95 961.4 685.55 Q963.9 694.45 963.9 704.45 L963.9 706.45 963.9 706.55 Q963.25 730.05 948.3 747.75 L943.95 752.45 943.95 752.5 Q939.8 756.65 935.3 759.95 918.1 772.45 895.9 772.45 872.1 772.45 854.2 758.15 L854.15 758.15 847.85 752.5 843.5 747.75 843.5 747.7 Q828.6 730.1 827.95 706.65 L827.9 704.45 Q827.9 694.45 830.4 685.5 L829.15 682.85 829.25 683 828.4 680.6 Q826.3 672.8 830.3 665.85 L830.3 665.8 Q834.4 658.8 842.15 656.75 L846.75 656.05 Q844.85 652.25 844.45 647.85 L844.3 645.35 844.3 645.25 Q844.35 640.5 846.05 636.45 L846.2 635.95 Q847.95 631.65 851.6 628.15 L852.05 627.75 Q858.95 621.25 868.5 621.25 L870.1 621.35 Q876.1 621.6 881.25 624.8 L881.15 624.8 881.95 625.3 884.75 627.4 885.7 628.3 885.75 628.35 Q889.4 632.05 891.15 636.6 L895.9 636.45 900.75 636.6 Q902.5 632 906.3 628.25 L906.3 628.3 906.35 628.25 906.4 628.2 Q908 626.6 909.75 625.45 L909.85 625.4 910.55 624.9 Q915.45 621.75 921.6 621.35 L923.3 621.25 Q933.3 621.25 940.4 628.2 L940.45 628.25 940.6 628.4" />
        <path stroke="none" fill="#31DE7A"
            d="M836.15 681 Q840.85 669 850.65 659.2 858.75 651.1 868.35 646.5 876.65 642.5 886 641.15 L895.9 640.45 905.8 641.15 Q915.15 642.5 923.45 646.5 933 651.1 941.1 659.2 950.95 669.05 955.65 681 L954.15 681.45 Q949.45 671.55 941.1 663.2 932.8 654.9 923 650.3 910.65 644.45 895.9 644.45 881.15 644.45 868.8 650.25 858.95 654.9 850.65 663.2 842.3 671.55 837.7 681.4 L836.15 681" />
        <path stroke="none" fill="#23A35A"
            d="M907.1 656.9 L907.45 657.4 Q907.85 658.15 907.6 659.3 L907.5 659.6 907.25 660.4 Q906.65 661.75 905.4 663 L905.35 663.1 Q904.45 663.95 903.2 663.95 901.9 663.95 901 663 900.1 662.1 900.1 660.85 900.1 660.15 900.35 659.6 L900.95 658.7 901.05 658.6 Q902.55 657.1 904.25 656.55 L904.4 656.55 Q905.75 656.15 906.55 656.55 L907.1 656.9 M886.55 663.1 L886.45 663 Q885.2 661.75 884.65 660.4 884.45 660 884.4 659.6 L884.3 659.3 Q884 658.15 884.4 657.4 L884.8 656.9 Q885 656.65 885.35 656.55 886.15 656.15 887.5 656.55 L887.6 656.55 Q889.3 657.05 890.85 658.6 L890.95 658.7 891.55 659.6 891.8 660.85 Q891.8 662.1 890.85 663 889.95 663.95 888.7 663.95 887.45 663.95 886.55 663.1" />
        <path stroke="none" fill="#2ECC71"
            d="M886.55 663.1 Q887.45 663.95 888.7 663.95 889.95 663.95 890.85 663 891.8 662.1 891.8 660.85 L891.55 659.6 890.95 658.7 890.85 658.6 Q889.3 657.05 887.6 656.55 L887.5 656.55 Q886.15 656.15 885.35 656.55 885 656.65 884.8 656.9 L884.4 657.4 Q884 658.15 884.3 659.3 L884.4 659.6 Q884.45 660 884.65 660.4 885.2 661.75 886.45 663 L886.55 663.1 M837.7 681.4 Q842.3 671.55 850.65 663.2 858.95 654.9 868.8 650.25 881.15 644.45 895.9 644.45 910.65 644.45 923 650.3 932.8 654.9 941.1 663.2 949.45 671.55 954.15 681.45 929.7 688 895.95 688 862.2 688 837.7 681.4 M907.1 656.9 L906.55 656.55 Q905.75 656.15 904.4 656.55 L904.25 656.55 Q902.55 657.1 901.05 658.6 L900.95 658.7 900.35 659.6 Q900.1 660.15 900.1 660.85 900.1 662.1 901 663 901.9 663.95 903.2 663.95 904.45 663.95 905.35 663.1 L905.4 663 Q906.65 661.75 907.25 660.4 L907.5 659.6 907.6 659.3 Q907.85 658.15 907.45 657.4 L907.1 656.9" />
        <path stroke="none" fill="#E5E5E5"
            d="M956.95 684.65 Q959.9 693.9 959.9 704.45 L959.9 706.45 Q959.3 728.55 945.25 745.15 L941.1 749.65 Q937.2 753.6 932.95 756.7 916.8 768.45 895.9 768.45 873.5 768.45 856.65 755 L850.65 749.65 846.55 745.15 Q832.5 728.55 831.95 706.45 L831.9 704.45 Q831.9 693.9 834.85 684.6 L836.15 685 837.7 685.4 Q862.2 692 895.95 692 929.7 692 954.15 685.45 L955.65 685 956.95 684.65 M923 746.25 Q922.4 743.95 920.3 742.8 918.3 741.65 916.05 742.25 913.75 742.85 912.5 744.9 911.4 746.9 912 749.2 912.6 751.45 914.6 752.65 916.7 753.85 919 753.25 921.25 752.65 922.4 750.55 923.6 748.5 923 746.25 M921.85 731.45 Q921.45 730.05 920.2 729.3 918.85 728.55 917.45 728.95 916.05 729.3 915.35 730.6 914.6 731.9 915 733.3 915.35 734.7 916.65 735.45 917.9 736.15 919.3 735.8 920.7 735.4 921.5 734.15 922.2 732.85 921.85 731.45 M935.65 740.15 Q935.15 738.25 933.45 737.25 931.75 736.25 929.9 736.75 928 737.25 927 739 926 740.7 926.5 742.6 927.05 744.45 928.75 745.45 930.45 746.4 932.35 745.9 934.2 745.4 935.2 743.7 936.2 742 935.65 740.15" />
        <path stroke="none" fill="#FFFFFF"
            d="M955.65 681 L956.95 684.65 955.65 685 954.15 685.45 Q929.7 692 895.95 692 862.2 692 837.7 685.4 L836.15 685 834.85 684.6 836.15 681 837.7 681.4 Q862.2 688 895.95 688 929.7 688 954.15 681.45 L955.65 681" />
        <path stroke="none" fill="#D7D7D7"
            d="M935.65 740.15 Q936.2 742 935.2 743.7 934.2 745.4 932.35 745.9 930.45 746.4 928.75 745.45 927.05 744.45 926.5 742.6 926 740.7 927 739 928 737.25 929.9 736.75 931.75 736.25 933.45 737.25 935.15 738.25 935.65 740.15 M921.85 731.45 Q922.2 732.85 921.5 734.15 920.7 735.4 919.3 735.8 917.9 736.15 916.65 735.45 915.35 734.7 915 733.3 914.6 731.9 915.35 730.6 916.05 729.3 917.45 728.95 918.85 728.55 920.2 729.3 921.45 730.05 921.85 731.45 M923 746.25 Q923.6 748.5 922.4 750.55 921.25 752.65 919 753.25 916.7 753.85 914.6 752.65 912.6 751.45 912 749.2 911.4 746.9 912.5 744.9 913.75 742.85 916.05 742.25 918.3 741.65 920.3 742.8 922.4 743.95 923 746.25" />
        <path stroke="none" fill="#31DE7A"
            d="M903.25 647.35 L903.15 645.35 Q903.15 637 909.1 631.1 L909.15 631.05 Q910.55 629.7 912.05 628.7 L912.7 628.25 Q916.75 625.65 921.85 625.35 L923.3 625.25 Q931.65 625.25 937.6 631.05 L937.75 631.2 Q940.5 634 941.95 637.45 L942 637.5 Q943.45 641.05 943.5 645.3 L943.5 645.35 943.4 647.4 Q943.1 644.25 942 641.5 L941.95 641.45 Q940.5 638 937.75 635.2 L937.6 635.05 Q931.65 629.25 923.3 629.25 L921.85 629.35 Q916.75 629.65 912.7 632.25 L912.05 632.7 Q910.55 633.7 909.15 635.05 L909.1 635.1 Q903.85 640.3 903.25 647.35 M848.4 647.45 L848.3 645.35 848.3 645.3 Q848.35 640.9 850.05 637.2 L849.9 637.45 Q851.35 633.9 854.35 631 L854.35 631.05 Q860.25 625.25 868.5 625.25 L869.85 625.35 Q874.85 625.55 879.1 628.2 L879.6 628.55 Q880.9 629.35 882.1 630.4 L882.85 631.1 882.9 631.15 Q888.7 637 888.7 645.35 L888.6 647.3 Q887.95 640.25 882.9 635.15 L882.85 635.1 882.1 634.4 Q880.9 633.35 879.6 632.55 L879.1 632.2 Q874.85 629.55 869.85 629.35 L868.5 629.25 Q860.25 629.25 854.35 635.05 L854.35 635 Q851.35 637.9 849.9 641.45 L850.05 641.2 Q848.7 644.1 848.4 647.45" />
        <path stroke="none" fill="#2ECC71"
            d="M848.4 647.45 Q848.7 644.1 850.05 641.2 L849.9 641.45 Q851.35 637.9 854.35 635 L854.35 635.05 Q860.25 629.25 868.5 629.25 L869.85 629.35 Q874.85 629.55 879.1 632.2 L879.6 632.55 Q880.9 633.35 882.1 634.4 L882.85 635.1 882.9 635.15 Q887.95 640.25 888.6 647.3 887.95 654.5 882.85 659.55 L882.85 659.5 882.5 659.85 882.25 660.15 880.5 661.55 880.45 661.6 Q875.1 665.5 868.5 665.5 860.2 665.55 854.2 659.5 L854.4 659.65 Q849.05 654.6 848.4 647.45 M935.5 645.35 L935.5 645.3 Q935.5 642.75 934.6 640.6 933.7 638.5 932 636.75 928.4 633.25 923.3 633.25 L922.65 633.3 Q919.5 633.4 917 635 L916.85 635.1 Q915.75 635.75 914.75 636.75 911.15 640.3 911.15 645.35 911.15 650.4 914.75 653.85 L916.1 655.1 Q919.2 657.5 923.3 657.5 928.4 657.5 932 653.85 935.5 650.4 935.5 645.35 M943.4 647.4 Q942.75 654.45 937.7 659.5 L937.65 659.55 Q931.7 665.5 923.3 665.5 916.4 665.45 911.2 661.45 L910.9 661.2 909.25 659.65 909.1 659.5 Q903.85 654.45 903.25 647.35 903.85 640.3 909.1 635.1 L909.15 635.05 Q910.55 633.7 912.05 632.7 L912.7 632.25 Q916.75 629.65 921.85 629.35 L923.3 629.25 Q931.65 629.25 937.6 635.05 L937.75 635.2 Q940.5 638 941.95 641.45 L942 641.5 Q943.1 644.25 943.4 647.4 M856.3 645.35 Q856.3 650.4 859.9 653.85 863.5 657.5 868.5 657.5 872.5 657.5 875.7 655.15 L876.85 654.2 877.2 653.85 Q880.7 650.4 880.7 645.35 880.7 640.3 877.2 636.75 L876.85 636.45 874.95 635.05 874.9 635 Q872.3 633.4 869.2 633.3 L868.5 633.25 Q863.5 633.25 859.9 636.75 858.15 638.45 857.3 640.5 856.3 642.7 856.3 645.3 L856.3 645.35" />
        <path stroke="none" fill="#D23007"
            d="M856.3 645.35 L856.3 645.3 Q856.3 642.7 857.3 640.5 858.15 638.45 859.9 636.75 863.5 633.25 868.5 633.25 L869.2 633.3 Q872.3 633.4 874.9 635 L874.95 635.05 876.85 636.45 877.2 636.75 Q880.7 640.3 880.7 645.35 880.7 650.4 877.2 653.85 L876.85 654.2 875.7 655.15 Q872.5 657.5 868.5 657.5 863.5 657.5 859.9 653.85 856.3 650.4 856.3 645.35 M935.5 645.35 Q935.5 650.4 932 653.85 928.4 657.5 923.3 657.5 919.2 657.5 916.1 655.1 L914.75 653.85 Q911.15 650.4 911.15 645.35 911.15 640.3 914.75 636.75 915.75 635.75 916.85 635.1 L917 635 Q919.5 633.4 922.65 633.3 L923.3 633.25 Q928.4 633.25 932 636.75 933.7 638.5 934.6 640.6 935.5 642.75 935.5 645.3 L935.5 645.35 M929.65 645.6 Q929.65 642.3 927.4 640.15 925.15 638 922 638 919.15 638 916.9 639.85 L916.55 640.15 Q914.3 642.3 914.3 645.6 914.3 648.7 916.5 650.85 L916.55 650.9 Q918.9 653.2 922 653.2 925.15 653.2 927.4 650.9 929.65 648.75 929.65 645.6 M862.25 645.6 Q862.25 648.75 864.5 650.9 866.65 653.2 869.85 653.2 873 653.2 875.25 650.9 L875.35 650.85 Q876.3 649.85 876.85 648.7 877.5 647.3 877.5 645.6 877.5 643.85 876.85 642.4 876.3 641.15 875.25 640.15 L874.9 639.85 Q872.75 638 869.85 638 866.65 638 864.5 640.15 862.25 642.3 862.25 645.6" />
        <path stroke="none" fill="#3F3F3F"
            d="M862.25 645.6 Q862.25 642.3 864.5 640.15 866.65 638 869.85 638 872.75 638 874.9 639.85 L875.25 640.15 Q876.3 641.15 876.85 642.4 877.5 643.85 877.5 645.6 877.5 647.3 876.85 648.7 876.3 649.85 875.35 650.85 L875.25 650.9 Q873 653.2 869.85 653.2 866.65 653.2 864.5 650.9 862.25 648.75 862.25 645.6 M929.65 645.6 Q929.65 648.75 927.4 650.9 925.15 653.2 922 653.2 918.9 653.2 916.55 650.9 L916.5 650.85 Q914.3 648.7 914.3 645.6 914.3 642.3 916.55 640.15 L916.9 639.85 Q919.15 638 922 638 925.15 638 927.4 640.15 929.65 642.3 929.65 645.6" />
        <path stroke="none" fill="#2ECC71"
            d="M862.5 673.5 Q863.15 678.6 860.5 683.25 857.35 688.8 851.15 690.45 845 692.1 839.4 688.9 834.7 686.25 832.9 681.45 832.05 676.35 834.8 671.65 838 666.1 844.15 664.45 850.35 662.8 855.9 666 860.5 668.7 862.5 673.5 M958.95 681.45 Q957.05 686.2 952.35 688.9 946.85 692.1 940.65 690.45 934.45 688.8 931.25 683.25 928.6 678.6 929.35 673.5 931.25 668.7 935.85 666 941.45 662.8 947.65 664.45 953.85 666.1 956.95 671.65 959.7 676.3 958.95 681.45" />
        <path stroke="none" fill="#31DE7A"
            d="M929.35 673.5 Q929.45 672.5 929.7 671.55 931.35 665.35 936.9 662.15 942.45 658.95 948.65 660.6 954.85 662.25 958 667.8 961.2 673.35 959.55 679.55 L958.95 681.45 Q959.7 676.3 956.95 671.65 953.85 666.1 947.65 664.45 941.45 662.8 935.85 666 931.25 668.7 929.35 673.5 M862.5 673.5 Q860.5 668.7 855.9 666 850.35 662.8 844.15 664.45 838 666.1 834.8 671.65 832.05 676.35 832.9 681.45 L832.25 679.55 Q830.6 673.35 833.75 667.8 837 662.25 843.15 660.6 849.35 658.95 854.85 662.15 860.45 665.35 862.1 671.55 L862.5 673.5" />
    </g>
</svg>