<?xml version="1.0" encoding="utf-8"?>
<svg viewBox="1081.5 60 136 136" xmlns="http://www.w3.org/2000/svg">
    <g>
        <path stroke="none" fill="#8A1D03"
            d="M1149.5 60 Q1177.7 60 1197.6 79.9 1217.5 99.8 1217.5 128 L1217.5 130 1217.5 130.1 Q1217.1 144.65 1211.3 157 1211.85 161.05 1211.45 167.05 L1211.45 167.1 Q1210.6 177.2 1201.9 184.15 1196.05 188.75 1192.65 187.1 1189.9 186.7 1188.6 183.75 L1182.8 187.55 Q1167.9 196 1149.5 196 1131.15 196 1116.3 187.5 L1110.45 183.75 Q1109.2 186.55 1106.55 187 1103.15 188.75 1097.25 184.25 L1097.2 184.15 Q1088.5 177.15 1087.7 167.05 L1087.65 167 Q1087.25 161.15 1087.85 157.1 1081.95 144.75 1081.55 130.2 L1081.5 128 Q1081.5 99.8 1101.4 79.9 1121.35 60 1149.5 60" />
        <path stroke="none" fill="#F53707"
            d="M1213.5 130 Q1212.8 104.75 1194.75 86.7 1176.05 68 1149.5 68 1123 68 1104.2 86.7 1086.2 104.75 1085.55 130 L1085.5 128 Q1085.5 101.45 1104.2 82.7 1123 64 1149.5 64 1176.05 64 1194.75 82.7 1213.5 101.45 1213.5 128 L1213.5 130" />
        <path stroke="none" fill="#D23007"
            d="M1213.5 130 Q1213.1 144.35 1207.1 156.4 1202.5 165.45 1194.75 173.2 L1191.35 176.45 Q1186.35 180.85 1180.8 184.05 1179.85 182.2 1178.7 180.5 1179.8 179.95 1180.25 179.15 1181.45 177 1177.6 174.2 1174.05 171.5 1167.8 169.85 L1167.65 169.8 1167.3 169.75 Q1159.4 164.95 1149.5 164.95 1139.6 164.95 1131.7 169.75 L1131.35 169.8 1131.2 169.85 Q1124.95 171.5 1121.4 174.2 1117.55 177 1118.75 179.15 1119.2 179.95 1120.35 180.5 1119.15 182.2 1118.25 184 1112.75 180.9 1107.75 176.5 L1104.2 173.2 Q1096.5 165.5 1092 156.5 1085.9 144.4 1085.55 130 1086.2 104.75 1104.2 86.7 1123 68 1149.5 68 1176.05 68 1194.75 86.7 1212.8 104.75 1213.5 130" />
        <path stroke="none" fill="#FFCC00"
            d="M 1118.25 184 C 1118.85 182.8 1119.55 181.633 1120.35 180.5 C 1119.583 180.133 1119.05 179.683 1118.75 179.15 C 1117.95 177.717 1118.833 176.067 1121.4 174.2 C 1123.767 172.4 1127.033 170.95 1131.2 169.85 L 1131.35 169.8 L 1131.7 169.75 C 1136.967 166.55 1142.9 164.95 1149.5 164.95 C 1156.1 164.95 1162.033 166.55 1167.3 169.75 L 1167.65 169.8 L 1167.8 169.85 C 1171.967 170.95 1175.233 172.4 1177.6 174.2 C 1180.167 176.067 1181.05 177.717 1180.25 179.15 C 1179.95 179.683 1179.433 180.133 1178.7 180.5 C 1179.467 181.633 1180.167 182.817 1180.8 184.05 C 1171.467 189.35 1161.033 192 1149.5 192 C 1138 192 1127.583 189.333 1118.25 184" />
        <path stroke="none" fill="#BB2905"
            d="M1092 156.5 Q1096.5 165.5 1104.2 173.2 L1107.75 176.5 1107.55 178.45 Q1106.95 186.65 1099.7 181.05 1092.4 175.15 1091.65 166.7 1091.2 160.5 1092 156.5 M1191.35 176.45 L1194.75 173.2 Q1202.5 165.45 1207.1 156.4 1207.9 160.4 1207.45 166.75 1206.7 175.2 1199.4 181 1192.15 186.75 1191.55 178.55 L1191.35 176.45" />
        <path stroke="none" fill="#D5EEF7"
            d="M 1193.25 121.4 L 1193.4 121.95 C 1195.567 130.017 1195.817 137.317 1194.15 143.85 C 1192.45 150.417 1189.317 154.317 1184.75 155.55 C 1180.183 156.75 1175.517 154.95 1170.75 150.15 C 1165.95 145.35 1162.467 138.917 1160.3 130.85 L 1160.15 130.3 C 1159.083 125.833 1159.7 121.633 1162 117.7 C 1164.4 113.533 1167.867 110.85 1172.4 109.65 C 1176.967 108.417 1181.317 109 1185.45 111.4 C 1189.417 113.7 1192.017 117.033 1193.25 121.4 M 1185.55 133.25 C 1185.55 130.317 1184.517 127.833 1182.45 125.8 C 1180.383 123.767 1177.9 122.75 1175 122.75 C 1172.167 122.75 1169.683 123.767 1167.55 125.8 C 1165.55 127.833 1164.55 130.317 1164.55 133.25 C 1164.55 136.15 1165.55 138.6 1167.55 140.6 C 1169.683 142.7 1172.167 143.75 1175 143.75 C 1177.9 143.75 1180.383 142.7 1182.45 140.6 C 1184.517 138.6 1185.55 136.15 1185.55 133.25 M 1138.9 130.35 L 1138.7 130.9 C 1136.567 138.967 1133.133 145.383 1128.4 150.15 C 1123.633 154.983 1118.95 156.8 1114.35 155.6 C 1109.817 154.333 1106.683 150.433 1104.95 143.9 C 1103.217 137.333 1103.417 130.017 1105.55 121.95 L 1105.75 121.4 C 1107.017 117.033 1109.633 113.7 1113.6 111.4 C 1117.733 109 1122.083 108.433 1126.65 109.7 C 1131.25 110.9 1134.717 113.567 1137.05 117.7 C 1139.383 121.667 1140 125.883 1138.9 130.35 M 1113.3 133.25 C 1113.3 136.15 1114.317 138.6 1116.35 140.6 C 1118.417 142.7 1120.9 143.75 1123.8 143.75 C 1126.667 143.75 1129.15 142.7 1131.25 140.6 C 1133.283 138.6 1134.3 136.15 1134.3 133.25 C 1134.3 130.317 1133.283 127.833 1131.25 125.8 C 1129.15 123.767 1126.667 122.75 1123.8 122.75 C 1120.9 122.75 1118.417 123.767 1116.35 125.8 C 1114.317 127.833 1113.3 130.317 1113.3 133.25" />
        <path stroke="none" fill="#FFFFFF"
            d="M 1113.3 133.25 C 1113.3 130.317 1114.317 127.833 1116.35 125.8 C 1118.417 123.767 1120.9 122.75 1123.8 122.75 C 1126.667 122.75 1129.15 123.767 1131.25 125.8 C 1133.283 127.833 1134.3 130.317 1134.3 133.25 C 1134.3 136.15 1133.283 138.6 1131.25 140.6 C 1129.15 142.7 1126.667 143.75 1123.8 143.75 C 1120.9 143.75 1118.417 142.7 1116.35 140.6 C 1114.317 138.6 1113.3 136.15 1113.3 133.25 M 1179.8 133.2 C 1179.8 131.333 1179.167 129.783 1177.9 128.55 C 1176.6 127.25 1175.033 126.6 1173.2 126.6 C 1171.4 126.6 1169.833 127.25 1168.5 128.55 C 1167.233 129.783 1166.6 131.333 1166.6 133.2 L 1166.6 133.85 C 1166.733 135.35 1167.367 136.65 1168.5 137.75 C 1169.833 139.017 1171.4 139.65 1173.2 139.65 C 1175.033 139.65 1176.6 139.017 1177.9 137.75 C 1179 136.65 1179.617 135.35 1179.75 133.85 L 1179.8 133.2 M 1185.55 133.25 C 1185.55 136.15 1184.517 138.6 1182.45 140.6 C 1180.383 142.7 1177.9 143.75 1175 143.75 C 1172.167 143.75 1169.683 142.7 1167.55 140.6 C 1165.55 138.6 1164.55 136.15 1164.55 133.25 C 1164.55 130.317 1165.55 127.833 1167.55 125.8 C 1169.683 123.767 1172.167 122.75 1175 122.75 C 1177.9 122.75 1180.383 123.767 1182.45 125.8 C 1184.517 127.833 1185.55 130.317 1185.55 133.25 M 1119.05 133.2 L 1119.1 133.85 C 1119.2 135.35 1119.8 136.65 1120.9 137.75 C 1122.2 139.017 1123.783 139.65 1125.65 139.65 C 1127.417 139.65 1128.967 139.017 1130.3 137.75 C 1131.467 136.65 1132.1 135.35 1132.2 133.85 L 1132.25 133.2 C 1132.25 131.333 1131.6 129.783 1130.3 128.55 C 1128.967 127.25 1127.417 126.6 1125.65 126.6 C 1123.783 126.6 1122.2 127.25 1120.9 128.55 C 1119.667 129.783 1119.05 131.333 1119.05 133.2" />
        <path stroke="none" fill="#5B5B5B"
            d="M 1179.8 133.2 L 1179.75 133.85 C 1179.617 135.35 1179 136.65 1177.9 137.75 C 1176.6 139.017 1175.033 139.65 1173.2 139.65 C 1171.4 139.65 1169.833 139.017 1168.5 137.75 C 1167.367 136.65 1166.733 135.35 1166.6 133.85 L 1166.6 133.2 C 1166.6 131.333 1167.233 129.783 1168.5 128.55 C 1169.833 127.25 1171.4 126.6 1173.2 126.6 C 1175.033 126.6 1176.6 127.25 1177.9 128.55 C 1179.167 129.783 1179.8 131.333 1179.8 133.2 M 1119.05 133.2 C 1119.05 131.333 1119.667 129.783 1120.9 128.55 C 1122.2 127.25 1123.783 126.6 1125.65 126.6 C 1127.417 126.6 1128.967 127.25 1130.3 128.55 C 1131.6 129.783 1132.25 131.333 1132.25 133.2 L 1132.2 133.85 C 1132.1 135.35 1131.467 136.65 1130.3 137.75 C 1128.967 139.017 1127.417 139.65 1125.65 139.65 C 1123.783 139.65 1122.2 139.017 1120.9 137.75 C 1119.8 136.65 1119.2 135.35 1119.1 133.85 L 1119.05 133.2" />
        <path stroke="none" fill="#61A3FF"
            d="M 1167.5 149.5 C 1167.467 148.2 1167.267 146.933 1166.9 145.7 L 1166.7 144.95 L 1166.65 144.8 C 1165.817 142.267 1164.333 140.033 1162.2 138.1 C 1158.733 134.8 1154.5 133.15 1149.5 133.15 C 1144.533 133.15 1140.267 134.8 1136.7 138.1 C 1134.633 140.033 1133.183 142.267 1132.35 144.8 L 1132.3 144.95 L 1132.05 145.7 C 1131.717 146.933 1131.533 148.2 1131.5 149.5 L 1131.5 146 C 1131.5 144.433 1131.683 142.933 1132.05 141.5 L 1132.3 140.65 L 1132.35 140.5 C 1133.183 137.8 1134.633 135.4 1136.7 133.3 C 1140.267 129.767 1144.533 128 1149.5 128 C 1154.5 128 1158.733 129.767 1162.2 133.3 C 1164.333 135.4 1165.817 137.8 1166.65 140.5 L 1166.7 140.65 L 1166.9 141.5 C 1167.3 142.933 1167.5 144.433 1167.5 146 L 1167.5 149.5" />
        <path stroke="none" fill="#5D9CF3"
            d="M 1167.5 149.5 L 1167.5 149.9 L 1167.5 155.9 L 1167.5 156.4 L 1167.4 157.85 L 1167.3 158.7 C 1155.433 161.733 1143.567 161.733 1131.7 158.7 L 1131.6 157.85 L 1131.5 156.2 L 1131.5 155.9 L 1131.5 149.9 L 1131.5 149.5 C 1131.533 148.2 1131.717 146.933 1132.05 145.7 L 1132.3 144.95 L 1132.35 144.8 C 1133.183 142.267 1134.633 140.033 1136.7 138.1 C 1140.267 134.8 1144.533 133.15 1149.5 133.15 C 1154.5 133.15 1158.733 134.8 1162.2 138.1 C 1164.333 140.033 1165.817 142.267 1166.65 144.8 L 1166.7 144.95 L 1166.9 145.7 C 1167.267 146.933 1167.467 148.2 1167.5 149.5" />
        <path stroke="none" fill="#397EDE"
            d="M 1166.5 161.95 C 1165.633 164.417 1164.2 166.65 1162.2 168.65 C 1158.733 172.217 1154.5 174 1149.5 174 C 1144.533 174 1140.267 172.217 1136.7 168.65 C 1134.733 166.65 1133.333 164.417 1132.5 161.95 C 1143.833 164.517 1155.167 164.517 1166.5 161.95" />
        <path stroke="none" fill="#3473CB"
            d="M 1166.5 161.95 C 1155.167 164.517 1143.833 164.517 1132.5 161.95 C 1132.133 160.917 1131.867 159.833 1131.7 158.7 C 1143.567 161.733 1155.433 161.733 1167.3 158.7 L 1166.5 161.95" />
        <path stroke="none" fill="#BB2905"
            d="M 1162.9 82.45 C 1165.5 86.95 1167.05 91.167 1167.55 95.1 C 1168.15 99 1167.533 101.467 1165.7 102.5 C 1163.867 103.567 1161.383 102.883 1158.25 100.45 C 1155.183 98.017 1152.35 94.55 1149.75 90.05 L 1148.85 88.5 C 1147.783 86.367 1147.383 84.2 1147.65 82 C 1147.917 79.567 1148.967 77.817 1150.8 76.75 C 1152.633 75.717 1154.683 75.683 1156.95 76.65 C 1158.95 77.517 1160.617 78.95 1161.95 80.95 L 1162.9 82.45" />
        <path stroke="none" fill="#BB2905"
            d="M 1143.2 90.15 C 1141.5 93.15 1139.6 95.45 1137.5 97.05 C 1135.467 98.683 1133.85 99.133 1132.65 98.4 C 1131.45 97.733 1131.033 96.1 1131.4 93.5 C 1131.767 90.9 1132.8 88.117 1134.5 85.15 L 1135.1 84.1 C 1136 82.767 1137.117 81.817 1138.45 81.25 C 1139.95 80.583 1141.3 80.6 1142.5 81.3 C 1143.7 82.033 1144.4 83.217 1144.6 84.85 C 1144.767 86.25 1144.5 87.667 1143.8 89.1 L 1143.2 90.15" />
    </g>
</svg>