<?xml version="1.0" encoding="utf-8"?>
<svg viewBox="47.8477 828 160.3546 136" xmlns="http://www.w3.org/2000/svg">
    <g>
        <path stroke="none" fill="#857E7E"
            d="M179.45 833.6 L181.65 832.35 182.05 832.15 Q186.9 829.85 193.65 833.55 L193.7 833.6 Q199.8 837 204.1 844.4 L204.05 844.4 Q208.3 851.65 208.2 858.65 L208.2 858.7 208.1 860.9 Q207.35 866.9 203.55 869.55 L203.5 869.6 202.55 870.25 202.3 870.4 201.2 871 201.1 871.1 Q196.95 873.45 192.9 874.95 196 884.85 196 896 L196 898 196 898.15 Q195.5 914.3 188.4 927.75 186.3 931.65 183.65 935.35 L183.25 935.85 Q180.05 940.1 176.1 944.1 L171.2 948.6 171.15 948.65 Q169 950.45 166.7 952.05 149.8 964 128 964 106.15 964 89.3 952.1 L89.3 952.05 84.95 948.75 79.9 944.1 Q71.8 936 67.05 926.65 L66.8 926.05 61.25 909.35 61.05 908.2 61.05 908.1 61 907.9 60.8 906.9 60.8 906.7 60.75 906.5 60.75 906.3 60.7 906.1 60.55 904.6 60.45 904.1 60.45 903.8 60.4 903.45 60.4 903.4 60.35 903.15 60.3 902.6 60.25 902.05 60.2 901.5 60.05 898.2 60 896 Q60 884.8 63.15 874.95 59.1 873.45 54.95 871.1 L54.85 871 Q54.3 870.65 53.75 870.4 L53.55 870.25 52.6 869.6 52.5 869.55 Q48.7 866.9 48.05 860.85 L48.05 861.1 47.85 858.7 47.85 858.65 Q47.75 851.65 52 844.4 56.25 837 62.4 833.6 L62.45 833.55 Q69.15 829.85 74.05 832.15 L74.45 832.35 76.65 833.6 Q82.8 837.15 87.15 841.6 L89.3 840 Q106.2 828 128 828 149.85 828 166.7 839.95 L166.75 839.95 168.9 841.6 Q173.25 837.15 179.4 833.6 L179.45 833.6" />
        <path stroke="none" fill="#CDC6C6"
            d="M204.1 860.4 Q203.55 855.45 200.6 850.4 196.95 844.05 191.7 841.05 186.95 838.45 183.55 839.85 L181.4 841.05 Q171.75 846.65 167 854.5 L166.4 854 165.45 853.25 166.2 851.85 Q170.95 843.1 181.4 837.05 L183.55 835.85 Q186.95 834.45 191.7 837.05 196.95 840.05 200.6 846.4 204.25 852.65 204.2 858.65 L204.1 860.4 M89.05 854.45 Q84.25 846.6 74.65 841.05 L72.5 839.85 Q69.1 838.45 64.35 841.05 59.1 844.05 55.45 850.4 52.5 855.45 52 860.4 L51.85 858.65 Q51.8 852.65 55.45 846.4 59.1 840.05 64.35 837.05 69.1 834.45 72.5 835.85 L74.65 837.05 Q85.1 843.1 89.85 851.85 L90.6 853.25 89.05 854.45" />
        <path stroke="none" fill="#BDB6B6"
            d="M89.05 854.45 Q85.95 856.85 83.05 859.75 79.45 855.7 74.05 852.55 L72.3 851.6 Q69.5 850.45 65.55 852.55 61.25 855.05 58.25 860.3 56.3 863.6 55.65 866.85 L54.9 866.35 Q52.45 864.5 52 860.4 52.5 855.45 55.45 850.4 59.1 844.05 64.35 841.05 69.1 838.45 72.5 839.85 L74.65 841.05 Q84.25 846.6 89.05 854.45 M167 854.5 Q171.75 846.65 181.4 841.05 L183.55 839.85 Q186.95 838.45 191.7 841.05 196.95 844.05 200.6 850.4 203.55 855.45 204.1 860.4 203.6 864.5 201.15 866.35 L200.4 866.85 Q199.75 863.6 197.8 860.3 194.8 855.05 190.5 852.55 186.55 850.45 183.75 851.6 L182 852.55 Q176.6 855.7 173 859.75 L167 854.5" />
        <path stroke="none" fill="#A8A1A1"
            d="M173 859.75 Q176.6 855.7 182 852.55 L183.75 851.6 Q186.55 850.45 190.5 852.55 194.8 855.05 197.8 860.3 199.75 863.6 200.4 866.85 L199.1 867.6 Q191.2 872.15 183.6 873.2 179.45 866.15 173.3 860 L173 859.75 M55.65 866.85 Q56.3 863.6 58.25 860.3 61.25 855.05 65.55 852.55 69.5 850.45 72.3 851.6 L74.05 852.55 Q79.45 855.7 83.05 859.75 L82.75 860 Q76.6 866.15 72.45 873.2 64.85 872.15 56.95 867.6 L55.65 866.85" />
        <path stroke="none" fill="#DBD9D9"
            d="M64.05 898 L64 896 Q64 869.45 82.75 850.75 L86.4 847.35 Q88.95 845.15 91.6 843.25 107.5 832 128 832 148.55 832 164.4 843.2 L169.6 847.3 173.3 850.75 Q192 869.45 192 896 L192 898 Q191.3 872.75 173.3 854.75 170.25 851.7 167 849.15 L166.55 849.45 Q150.6 860 128 860 105.4 860 89.4 849.45 L89 849.2 Q85.75 851.75 82.75 854.75 64.7 872.75 64.05 898" />
        <path stroke="none" fill="#D2D0D0"
            d="M64.05 898 Q64.7 872.75 82.75 854.75 85.75 851.75 89 849.2 L89.4 849.45 Q105.4 860 128 860 150.6 860 166.55 849.45 L167 849.15 Q170.25 851.7 173.3 854.75 191.3 872.75 192 898 191.55 913.2 184.85 925.85 182.9 929.55 180.4 933 L180.35 933 Q177.2 937.3 173.25 941.25 L168.6 945.55 Q164.2 943.95 164.25 939.25 163.15 928 153.8 919.75 143.3 910.5 128.45 910.5 113.6 910.5 103.05 919.75 93.75 928 92.7 939.25 91.35 944.05 87.5 945.65 L82.7 941.25 Q75.1 933.65 70.6 924.8 L65.05 908.1 65.05 907.9 64.85 906.8 64.8 906.55 64.75 906.05 64.65 905.5 64.5 904.25 64.5 904.05 64.4 903.45 64.4 903.2 64.35 903 64.35 902.75 64.3 902.45 64.25 901.8 64.25 901.55 64.2 901.25 64.05 898" />
        <path stroke="none" fill="#BDB6B6"
            d="M168.6 945.55 L164.4 948.75 Q148.5 960 128 960 107.45 960 91.6 948.8 L87.5 945.65 Q91.35 944.05 92.7 939.25 93.75 928 103.05 919.75 113.6 910.5 128.45 910.5 143.3 910.5 153.8 919.75 163.15 928 164.25 939.25 164.2 943.95 168.6 945.55 M145.6 923.35 Q144.5 922.25 142.3 922.85 140.05 923.45 138.1 925.45 L137.95 925.55 Q136.9 926.65 136.9 928.25 136.9 929.85 138.05 930.95 139.15 932.1 140.8 932.1 142.3 932.1 143.45 931.05 L143.55 930.95 Q145.55 928.95 146.15 926.75 146.8 924.5 145.6 923.35 M113.45 931.05 Q114.55 932.1 116.1 932.1 117.7 932.1 118.85 930.95 119.95 929.85 119.95 928.25 119.95 926.65 118.9 925.55 L118.8 925.45 Q116.8 923.45 114.6 922.85 112.4 922.25 111.25 923.35 110.1 924.5 110.75 926.75 111.35 928.95 113.35 930.95 L113.45 931.05" />
        <path stroke="none" fill="#9A9494"
            d="M113.45 931.05 L113.35 930.95 Q111.35 928.95 110.75 926.75 110.1 924.5 111.25 923.35 112.4 922.25 114.6 922.85 116.8 923.45 118.8 925.45 L118.9 925.55 Q119.95 926.65 119.95 928.25 119.95 929.85 118.85 930.95 117.7 932.1 116.1 932.1 114.55 932.1 113.45 931.05 M145.6 923.35 Q146.8 924.5 146.15 926.75 145.55 928.95 143.55 930.95 L143.45 931.05 Q142.3 932.1 140.8 932.1 139.15 932.1 138.05 930.95 136.9 929.85 136.9 928.25 136.9 926.65 137.95 925.55 L138.1 925.45 Q140.05 923.45 142.3 922.85 144.5 922.25 145.6 923.35" />
        <path stroke="none" fill="#FFFFFF"
            d="M171.7 903.1 Q171.7 899.45 169.25 897 166.7 894.45 163.05 894.45 159.55 894.45 156.95 897 154.4 899.45 154.4 903.1 L154.45 903.95 Q154.7 906.9 156.95 909.05 159.55 911.55 163.05 911.55 166.7 911.55 169.25 909.05 171.4 906.9 171.65 903.95 L171.7 903.1 M179.25 903.2 Q179.25 908.9 175.2 912.8 171.15 916.9 165.45 916.9 159.85 916.9 155.7 912.8 151.75 908.9 151.75 903.2 151.75 897.45 155.7 893.45 159.85 889.4 165.45 889.4 171.15 889.4 175.2 893.45 179.25 897.45 179.25 903.2" />
        <path stroke="none" fill="#5B5B5B"
            d="M171.7 903.1 L171.65 903.95 Q171.4 906.9 169.25 909.05 166.7 911.55 163.05 911.55 159.55 911.55 156.95 909.05 154.7 906.9 154.45 903.95 L154.4 903.1 Q154.4 899.45 156.95 897 159.55 894.45 163.05 894.45 166.7 894.45 169.25 897 171.7 899.45 171.7 903.1" />
        <path stroke="none" fill="#FFFFFF"
            d="M76.75 903.2 Q76.75 897.45 80.8 893.45 84.85 889.4 90.55 889.4 96.15 889.4 100.3 893.45 104.25 897.45 104.25 903.2 104.25 908.9 100.3 912.8 96.15 916.9 90.55 916.9 84.85 916.9 80.8 912.8 76.75 908.9 76.75 903.2 M84.3 903.1 L84.35 903.95 Q84.6 906.9 86.75 909.05 89.3 911.55 92.95 911.55 96.45 911.55 99.05 909.05 101.3 906.9 101.55 903.95 L101.6 903.1 Q101.6 899.45 99.05 897 96.45 894.45 92.95 894.45 89.3 894.45 86.75 897 84.3 899.45 84.3 903.1" />
        <path stroke="none" fill="#5B5B5B"
            d="M84.3 903.1 Q84.3 899.45 86.75 897 89.3 894.45 92.95 894.45 96.45 894.45 99.05 897 101.6 899.45 101.6 903.1 L101.55 903.95 Q101.3 906.9 99.05 909.05 96.45 911.55 92.95 911.55 89.3 911.55 86.75 909.05 84.6 906.9 84.35 903.95 L84.3 903.1" />
        <path stroke="none" fill="#FFFCF5"
            d="M117.95 893.15 L126.6 863.8 Q126.75 863.35 127.15 863.05 127.55 862.75 128 862.75 128.5 862.75 128.9 863.05 L129.4 863.8 138.1 893.2 139.25 897.15 140 900.6 Q139.65 902.4 138.35 903.65 135.6 906.5 128 906.5 120.4 906.5 117.7 903.65 116.35 902.35 116.05 900.55 116.2 898.95 116.75 897.15 L117.95 893.15" />
        <path stroke="none" fill="#BDB6B6"
            d="M117.95 893.15 L116.75 897.15 Q116.2 898.95 116.05 900.55 115.5 905 117.7 907.6 120.4 911.15 128 911.15 135.6 911.15 138.35 907.6 140.5 905 140 900.6 L139.25 897.15 138.1 893.2 Q139.55 893.95 140.9 895 146.3 899.2 146.3 905.15 146.3 911.1 140.9 915.25 135.6 919.45 128 919.45 120.4 919.45 115 915.25 109.7 911.1 109.7 905.15 109.7 899.2 115 895 116.4 893.95 117.95 893.15" />
        <path stroke="none" fill="#F0EDE7"
            d="M116.05 900.55 Q116.35 902.35 117.7 903.65 120.4 906.5 128 906.5 135.6 906.5 138.35 903.65 139.65 902.4 140 900.6 140.5 905 138.35 907.6 135.6 911.15 128 911.15 120.4 911.15 117.7 907.6 115.5 905 116.05 900.55" />
    </g>
</svg>