<?xml version="1.0" encoding="utf-8"?>
<svg viewBox="303.7977 632.9183 160.3546 139.5317" xmlns="http://www.w3.org/2000/svg">
    <g>
        <path stroke="none" fill="#6D4526"
            d="M309.5 671.9 L308.55 671.25 308.45 671.2 Q304.65 668.55 304 662.5 L304 662.75 303.8 660.35 303.8 660.3 Q303.7 653.3 307.95 646.05 312.2 638.65 318.35 635.25 L318.4 635.2 Q325.1 631.5 330 633.8 L330.4 634 332.6 635.25 Q341.55 640.4 346.7 647.45 363.05 636.45 383.95 636.45 404.9 636.45 421.25 647.45 426.35 640.4 435.35 635.25 L435.4 635.25 Q436.45 634.6 437.6 634 L438 633.8 Q442.85 631.5 449.6 635.2 L449.65 635.25 Q455.75 638.65 460.05 646.05 L460 646.05 Q464.25 653.3 464.15 660.3 L464.15 660.35 464.05 662.55 Q463.3 668.55 459.5 671.2 L459.45 671.25 458.5 671.9 458.25 672.05 457.15 672.65 457.05 672.7 Q451.75 675.8 446.55 677.4 451.95 689.85 451.95 704.45 L451.95 706.45 451.95 706.55 Q451.5 722.4 444.65 735.55 439.9 744.7 432.05 752.5 L429.65 754.75 425.55 758.3 Q407.65 772.45 383.95 772.45 360.25 772.45 342.4 758.3 L342.35 758.3 338.25 754.75 335.9 752.5 Q316.7 733.4 316 706.65 L315.95 704.45 Q315.95 689.8 321.4 677.35 316.2 675.75 310.95 672.75 L310.8 672.65 309.7 672.05 309.5 671.9" />
        <path stroke="none" fill="#8E5A32"
            d="M337.8 660.1 Q334.5 656.85 330 654.2 L328.25 653.25 Q325.45 652.1 321.5 654.2 317.2 656.7 314.2 661.95 312.25 665.25 311.6 668.5 L310.85 668 Q308.4 666.15 307.95 662.05 308.45 657.1 311.4 652.05 315.05 645.7 320.3 642.7 325.05 640.1 328.45 641.5 L330.6 642.7 Q339.15 647.65 343.9 654.45 341.25 656.6 338.7 659.15 L337.8 660.1 M424.05 654.5 Q428.75 647.7 437.35 642.7 L439.5 641.5 Q442.9 640.1 447.65 642.7 452.9 645.7 456.55 652.05 459.5 657.1 460.05 662.05 459.55 666.15 457.1 668 L456.35 668.5 Q455.7 665.25 453.75 661.95 450.75 656.7 446.45 654.2 442.5 652.1 439.7 653.25 L437.95 654.2 Q433.4 656.85 430.15 660.15 L429.2 659.15 Q426.7 656.65 424.05 654.5" />
        <path stroke="none" fill="#B67340"
            d="M424.05 654.5 L422.35 653.15 Q427.1 644.6 437.35 638.7 L439.5 637.5 Q442.9 636.1 447.65 638.7 452.9 641.7 456.55 648.05 460.2 654.3 460.15 660.3 L460.05 662.05 Q459.5 657.1 456.55 652.05 452.9 645.7 447.65 642.7 442.9 640.1 439.5 641.5 L437.35 642.7 Q428.75 647.7 424.05 654.5 M343.9 654.45 Q339.15 647.65 330.6 642.7 L328.45 641.5 Q325.05 640.1 320.3 642.7 315.05 645.7 311.4 652.05 308.45 657.1 307.95 662.05 L307.8 660.3 Q307.75 654.3 311.4 648.05 315.05 641.7 320.3 638.7 325.05 636.1 328.45 637.5 L330.6 638.7 Q340.8 644.6 345.6 653.1 L343.9 654.45" />
        <path stroke="none" fill="#774B2A"
            d="M311.6 668.5 Q312.25 665.25 314.2 661.95 317.2 656.7 321.5 654.2 325.45 652.1 328.25 653.25 L330 654.2 Q334.5 656.85 337.8 660.1 331.25 666.9 327.1 674.65 320.15 673.4 312.9 669.25 L311.6 668.5 M430.15 660.15 Q433.4 656.85 437.95 654.2 L439.7 653.25 Q442.5 652.1 446.45 654.2 450.75 656.7 453.75 661.95 455.7 665.25 456.35 668.5 L455.05 669.25 Q447.8 673.45 440.8 674.65 436.65 666.9 430.15 660.15" />
        <path stroke="none" fill="#BD7841"
            d="M430.15 660.15 Q436.65 666.9 440.8 674.65 447.95 688.1 447.95 704.45 L447.95 706.45 Q447.25 681.25 429.2 663.15 414.1 648.1 393.95 645.15 L383.95 644.45 373.95 645.15 Q353.8 648.1 338.7 663.15 320.65 681.25 320 706.45 L319.95 704.45 Q319.95 688.1 327.1 674.65 331.25 666.9 337.8 660.1 L338.7 659.15 Q341.25 656.6 343.9 654.45 L345.6 653.1 Q362.15 640.45 383.95 640.45 405.8 640.45 422.35 653.15 L424.05 654.5 Q426.7 656.65 429.2 659.15 L430.15 660.15" />
        <path stroke="none" fill="#A16639"
            d="M401.45 663.9 Q401.45 658.7 396.3 655.05 391.2 651.4 383.95 651.4 376.7 651.4 371.55 655.05 366.45 658.7 366.45 663.9 L366.5 664.75 Q366.85 675.35 371.55 683 376.7 691.4 383.95 691.4 391.2 691.4 396.3 683 401.05 675.35 401.45 664.75 L401.45 663.9 M320 706.45 Q320.65 681.25 338.7 663.15 353.8 648.1 373.95 645.15 L383.95 644.45 393.95 645.15 Q414.1 648.1 429.2 663.15 447.25 681.25 447.95 706.45 447.55 721.35 441.1 733.7 436.6 742.3 429.2 749.65 L426.95 751.8 423.05 755.15 Q406.85 741.4 383.95 741.4 361.1 741.4 344.85 755.15 L340.95 751.8 338.7 749.65 Q320.65 731.65 320 706.45" />
        <path stroke="none" fill="#AA6C3C"
            d="M401.45 663.9 L401.45 664.75 Q401.05 675.35 396.3 683 391.2 691.4 383.95 691.4 376.7 691.4 371.55 683 366.85 675.35 366.5 664.75 L366.45 663.9 Q366.45 658.7 371.55 655.05 376.7 651.4 383.95 651.4 391.2 651.4 396.3 655.05 401.45 658.7 401.45 663.9" />
        <path stroke="none" fill="#955E34"
            d="M344.85 755.15 Q361.1 741.4 383.95 741.4 406.85 741.4 423.05 755.15 406.25 768.45 383.95 768.45 361.65 768.45 344.85 755.15" />
        <path stroke="none" fill="#545454"
            d="M371.1 707.65 L370.9 705.3 370.9 704.4 Q371.2 702 374.7 700.3 378.55 698.45 383.95 698.45 389.35 698.45 393.2 700.3 396.65 702 397 704.4 L397 705.3 396.8 707.65 Q396.1 705.75 393.2 704.3 389.35 702.45 383.95 702.45 378.55 702.45 374.7 704.3 371.8 705.7 371.1 707.65" />
        <path stroke="none" fill="#464646"
            d="M371.1 707.65 Q371.8 705.7 374.7 704.3 378.55 702.45 383.95 702.45 389.35 702.45 393.2 704.3 396.1 705.75 396.8 707.65 396.15 711.6 393.2 714.55 391.05 716.7 388.4 717.65 384.15 719.4 379.5 717.65 376.85 716.7 374.7 714.55 371.75 711.6 371.1 707.65" />
        <path stroke="none" fill="#383838"
            d="M388.4 717.65 L389.25 718.65 Q390.2 719.6 391.3 720.15 392.7 720.8 394.35 720.8 397.35 720.8 399.5 718.65 L400.75 717 401.25 716.55 401.95 716.6 406.65 719.05 407.1 719.55 407.05 720.2 405.55 722.5 404.5 723.65 Q400.25 727.85 394.35 727.85 388.45 727.85 384.25 723.65 L383.95 723.35 383.65 723.65 Q379.4 727.85 373.5 727.85 367.55 727.85 363.4 723.65 L362.35 722.5 Q361.45 721.4 360.85 720.3 360.65 719.95 360.8 719.65 360.85 719.3 361.2 719.1 L365.8 716.55 366.45 716.45 367 716.9 Q367.55 717.85 368.35 718.65 370.5 720.8 373.5 720.8 375.15 720.8 376.6 720.15 L378.65 718.65 379.5 717.65 Q384.15 719.4 388.4 717.65" />
        <path stroke="none" fill="#8E5A32"
            d="M427.15 692.1 Q427.15 688.25 424.45 685.55 421.7 682.85 417.85 682.85 414.05 682.85 411.3 685.55 408.6 688.25 408.6 692.1 408.6 695.95 411.3 698.55 414.05 701.35 417.85 701.35 421.7 701.35 424.45 698.55 427.15 695.95 427.15 692.1 M432.8 688.65 Q434.7 695.85 431.85 702 428.95 708.3 422.95 709.9 417 711.45 411.35 707.45 405.8 703.6 403.85 696.4 L403.85 696.35 Q402.25 690.35 405.35 685 408.5 679.6 414.45 678.05 420.45 676.45 425.85 679.55 431.15 682.6 432.8 688.6 L432.8 688.65 M340.75 692.1 Q340.75 695.95 343.45 698.55 346.2 701.35 350.05 701.35 353.85 701.35 356.6 698.55 359.3 695.95 359.3 692.1 359.3 688.25 356.6 685.55 353.85 682.85 350.05 682.85 346.2 682.85 343.45 685.55 340.75 688.25 340.75 692.1 M335.1 688.65 L335.1 688.6 Q336.75 682.6 342.05 679.55 347.45 676.45 353.45 678.05 359.4 679.6 362.55 685 365.65 690.35 364.05 696.35 L364.05 696.4 Q362.1 703.6 356.55 707.45 350.9 711.45 344.95 709.9 338.95 708.3 336.05 702 333.2 695.85 335.1 688.65" />
        <path stroke="none" fill="#FFFFFF"
            d="M427.15 692.1 Q427.15 695.95 424.45 698.55 421.7 701.35 417.85 701.35 414.05 701.35 411.3 698.55 408.6 695.95 408.6 692.1 408.6 688.25 411.3 685.55 414.05 682.85 417.85 682.85 421.7 682.85 424.45 685.55 427.15 688.25 427.15 692.1 M422.65 692.25 Q422.65 689.8 420.95 688.15 419.25 686.45 416.85 686.45 414.45 686.45 412.7 688.15 411 689.8 411 692.25 411 694.65 412.7 696.3 414.45 698.05 416.85 698.05 419.25 698.05 420.95 696.3 422.65 694.65 422.65 692.25 M340.75 692.1 Q340.75 688.25 343.45 685.55 346.2 682.85 350.05 682.85 353.85 682.85 356.6 685.55 359.3 688.25 359.3 692.1 359.3 695.95 356.6 698.55 353.85 701.35 350.05 701.35 346.2 701.35 343.45 698.55 340.75 695.95 340.75 692.1 M345.25 692.25 Q345.25 694.65 346.95 696.3 348.65 698.05 351.05 698.05 353.45 698.05 355.2 696.3 356.9 694.65 356.9 692.25 356.9 689.8 355.2 688.15 353.45 686.45 351.05 686.45 348.65 686.45 346.95 688.15 345.25 689.8 345.25 692.25" />
        <path stroke="none" fill="#5B5B5B"
            d="M345.25 692.25 Q345.25 689.8 346.95 688.15 348.65 686.45 351.05 686.45 353.45 686.45 355.2 688.15 356.9 689.8 356.9 692.25 356.9 694.65 355.2 696.3 353.45 698.05 351.05 698.05 348.65 698.05 346.95 696.3 345.25 694.65 345.25 692.25 M422.65 692.25 Q422.65 694.65 420.95 696.3 419.25 698.05 416.85 698.05 414.45 698.05 412.7 696.3 411 694.65 411 692.25 411 689.8 412.7 688.15 414.45 686.45 416.85 686.45 419.25 686.45 420.95 688.15 422.65 689.8 422.65 692.25" />
    </g>
</svg>