<?xml version="1.0" encoding="utf-8"?>
<svg viewBox="565.2244 610.5 145.2807 161.9973" xmlns="http://www.w3.org/2000/svg">
    <g>
        <path stroke="none" fill="#2D4D7B"
            d="M652.6 635.15 L652.7 635.15 653.6 635.35 653.8 635.35 Q661.05 637.1 667.75 640.45 677.65 645.35 686.1 653.8 703.7 671.4 706.1 695.3 L706.1 695.35 706.45 700.85 706.45 701 706.45 702.95 706.45 704.25 706.45 704.65 706.45 704.85 706.45 705.3 706.35 707.1 706.35 707.3 706.3 707.7 706.3 708 706.2 709.3 706.2 709.35 Q705.2 721.5 700.3 732.05 707.1 740.1 709.45 749 L709.5 749.05 Q710.9 754.35 710.35 758.55 709.65 764.15 705.9 767.9 L703.05 770.15 702.85 770.25 701.95 770.75 Q696.15 773.85 687.1 771.45 679.3 769.4 672.15 763.85 L672.2 763.9 671.6 763.45 Q656.1 772.45 636.95 772.45 618.4 772.45 603.45 764 L602.7 764.6 602.65 764.6 Q595.9 769.5 588.65 771.45 580.85 773.5 575.6 771.5 L575.5 771.5 Q574.1 771 572.9 770.25 L572.85 770.25 Q571.25 769.3 569.85 767.9 566.05 764.15 565.4 758.55 564.8 754.35 566.25 749.05 L566.25 749 Q568.4 740.95 574.35 733.5 568.85 722.35 567.75 709.45 L567.6 707.45 567.5 705.45 567.5 705.35 567.45 704.25 567.45 702.95 567.5 700.9 Q568.2 673.4 587.8 653.8 602.7 638.9 622.15 634.95 L622.2 634.95 623.1 634.75 624.8 634.45 624.7 634.45 629.95 633.8 631.85 616 631.85 615.95 Q632.1 613.55 633.8 612.05 L634.1 611.8 634.95 611.25 635.1 611.2 Q636.35 610.5 637.9 610.5 639.4 610.5 640.75 611.2 L641.2 611.45 642.05 612.05 Q643.8 613.7 644 616.2 L645.9 634 651.3 634.85 651.4 634.85 652.6 635.15" />
        <path stroke="none" fill="#5A9BF3"
            d="M702.45 701 L702.25 701.15 702.1 699.7 Q699.85 677.2 683.25 660.6 675.3 652.65 665.95 648 659.7 644.9 652.85 643.25 L650.5 642.75 Q644 641.45 636.95 641.45 L625.35 642.4 622.95 642.85 Q604.65 646.6 590.6 660.6 573.55 677.7 571.7 701.15 L571.5 701 Q572.15 675.1 590.6 656.6 604.65 642.6 622.95 638.85 L624 638.65 625.35 638.4 636.95 637.45 Q644 637.45 650.5 638.75 L651.8 639.05 652.85 639.25 Q659.7 640.9 665.95 644 675.3 648.65 683.25 656.6 699.85 673.2 702.1 695.7 L702.45 701" />
        <path stroke="none" fill="#528CDB"
            d="M702.45 701 L702.45 702.95 702.45 704.25 702.45 704.65 702.45 705.05 702.35 706.85 702.3 707.7 702.2 709 Q701.15 721.8 695.5 732.75 L692.55 737.9 691.75 739.1 Q688.1 744.4 683.25 749.25 L681.25 751.2 Q676.8 755.35 671.95 758.5 656.5 768.45 636.95 768.45 618.05 768.45 603.05 759.15 597.6 755.8 592.65 751.25 L590.6 749.25 Q586.6 745.25 583.5 740.95 L582.2 739.1 579.1 734 Q572.85 722.6 571.7 709.1 L571.7 709 571.6 707.25 571.5 705.25 571.5 705.15 571.45 704.25 571.45 702.95 571.5 701 571.7 701.15 Q573.55 677.7 590.6 660.6 604.65 646.6 622.95 642.85 L625.35 642.4 636.95 641.45 Q644 641.45 650.5 642.75 L652.85 643.25 Q659.7 644.9 665.95 648 675.3 652.65 683.25 660.6 699.85 677.2 702.1 699.7 L702.25 701.15 702.45 701 M624.35 669.7 Q624.35 667.75 622.95 666.35 621.55 664.95 619.6 664.95 617.65 664.95 616.25 666.35 614.85 667.75 614.85 669.7 614.85 671.65 616.25 673.05 617.65 674.45 619.6 674.45 621.55 674.45 622.95 673.05 624.35 671.65 624.35 669.7 M613.2 657.75 Q613.2 656.3 612.15 655.25 611.1 654.2 609.65 654.2 608.2 654.2 607.15 655.25 606.1 656.3 606.1 657.75 606.1 659.2 607.15 660.25 608.2 661.3 609.65 661.3 611.1 661.3 612.15 660.25 613.2 659.2 613.2 657.75 M610.5 672.35 Q610.5 670 608.8 668.3 607.15 666.65 604.8 666.65 602.45 666.65 600.75 668.3 599.1 670 599.1 672.35 599.1 674.7 600.75 676.35 602.45 678.05 604.8 678.05 607.15 678.05 608.8 676.35 610.5 674.7 610.5 672.35 M658.15 753.2 Q657.55 750.9 655.45 749.75 653.45 748.6 651.2 749.2 648.9 749.8 647.65 751.85 646.55 753.85 647.15 756.15 647.75 758.4 649.75 759.6 651.85 760.8 654.15 760.2 656.4 759.6 657.55 757.5 658.75 755.45 658.15 753.2 M670.8 747.1 Q670.3 745.2 668.6 744.2 666.9 743.2 665.05 743.7 663.15 744.2 662.15 745.95 661.15 747.65 661.65 749.55 662.2 751.4 663.9 752.4 665.6 753.35 667.5 752.85 669.35 752.35 670.35 750.65 671.35 748.95 670.8 747.1 M657 738.4 Q656.6 737 655.35 736.25 654 735.5 652.6 735.9 651.2 736.25 650.5 737.55 649.75 738.85 650.15 740.25 650.5 741.65 651.8 742.4 653.05 743.1 654.45 742.75 655.85 742.35 656.65 741.1 657.35 739.8 657 738.4" />
        <path stroke="none" fill="#406EAF"
            d="M582.2 739.1 L583.5 740.95 Q586.6 745.25 590.6 749.25 L592.65 751.25 Q597.6 755.8 603.05 759.15 L602.2 759.85 600.3 761.35 Q594.2 765.8 587.6 767.55 581.2 769.25 576.85 767.7 575.8 767.35 574.9 766.8 572.8 763.2 573.35 758.05 573.55 756.15 574.1 754.05 575.95 747.2 580.75 740.85 L582.2 739.1 M671.95 758.5 Q676.8 755.35 681.25 751.2 L683.25 749.25 Q688.1 744.4 691.75 739.1 L692.55 737.9 693.95 739.6 Q699.55 746.5 701.6 754.05 L702.35 758.05 Q702.9 763.25 700.8 766.8 L700.15 767.15 Q695.45 769.5 688.1 767.55 681.05 765.7 674.6 760.7 L672.7 759.15 671.95 758.5" />
        <path stroke="none" fill="#4475BB"
            d="M579.1 734 L582.2 739.1 580.75 740.85 Q575.95 747.2 574.1 754.05 573.55 756.15 573.35 758.05 572.8 763.2 574.9 766.8 573.7 766.1 572.65 765.05 569.85 762.25 569.35 758.05 568.9 754.55 570.1 750.05 572.15 742.5 577.8 735.55 L579.1 734 M692.55 737.9 L695.5 732.75 696.8 734.15 Q703.35 741.7 705.6 750.05 706.8 754.55 706.35 758.05 705.85 762.25 703.05 765.05 L700.8 766.8 Q702.9 763.25 702.35 758.05 L701.6 754.05 Q699.55 746.5 693.95 739.6 L692.55 737.9" />
        <path stroke="none" fill="#4A7FC6"
            d="M657 738.4 Q657.35 739.8 656.65 741.1 655.85 742.35 654.45 742.75 653.05 743.1 651.8 742.4 650.5 741.65 650.15 740.25 649.75 738.85 650.5 737.55 651.2 736.25 652.6 735.9 654 735.5 655.35 736.25 656.6 737 657 738.4 M670.8 747.1 Q671.35 748.95 670.35 750.65 669.35 752.35 667.5 752.85 665.6 753.35 663.9 752.4 662.2 751.4 661.65 749.55 661.15 747.65 662.15 745.95 663.15 744.2 665.05 743.7 666.9 743.2 668.6 744.2 670.3 745.2 670.8 747.1 M658.15 753.2 Q658.75 755.45 657.55 757.5 656.4 759.6 654.15 760.2 651.85 760.8 649.75 759.6 647.75 758.4 647.15 756.15 646.55 753.85 647.65 751.85 648.9 749.8 651.2 749.2 653.45 748.6 655.45 749.75 657.55 750.9 658.15 753.2 M610.5 672.35 Q610.5 674.7 608.8 676.35 607.15 678.05 604.8 678.05 602.45 678.05 600.75 676.35 599.1 674.7 599.1 672.35 599.1 670 600.75 668.3 602.45 666.65 604.8 666.65 607.15 666.65 608.8 668.3 610.5 670 610.5 672.35 M613.2 657.75 Q613.2 659.2 612.15 660.25 611.1 661.3 609.65 661.3 608.2 661.3 607.15 660.25 606.1 659.2 606.1 657.75 606.1 656.3 607.15 655.25 608.2 654.2 609.65 654.2 611.1 654.2 612.15 655.25 613.2 656.3 613.2 657.75 M624.35 669.7 Q624.35 671.65 622.95 673.05 621.55 674.45 619.6 674.45 617.65 674.45 616.25 673.05 614.85 671.65 614.85 669.7 614.85 667.75 616.25 666.35 617.65 664.95 619.6 664.95 621.55 664.95 622.95 666.35 624.35 667.75 624.35 669.7" />
        <path stroke="none" fill="#5A9BF3"
            d="M680.2 688.6 Q676.4 687.65 673 689.6 669.5 691.6 668.5 695.4 667.45 699.2 669.45 702.7 671.4 706.05 675.2 707.05 679.05 708.1 682.5 706.2 685.9 704.15 686.95 700.35 687.95 696.5 686 693.1 684.05 689.7 680.2 688.6 M690.9 702.6 L690.7 703.05 Q689.1 708.3 684.3 711.15 679.3 714.05 673.7 712.55 668.2 711.05 665.3 706.1 662.5 701.2 663.95 695.85 L663.9 695.45 Q666.55 685.6 672.4 679.7 678.15 673.8 683.75 675.3 689.25 676.75 691.35 684.8 693.35 692.75 690.9 702.6 M595.5 688.6 Q591.65 689.7 589.7 693.1 587.75 696.5 588.75 700.35 589.8 704.15 593.2 706.2 596.65 708.1 600.5 707.05 604.3 706.05 606.25 702.7 608.25 699.2 607.2 695.4 606.2 691.6 602.7 689.6 599.3 687.65 595.5 688.6 M584.8 702.6 Q582.35 692.75 584.35 684.8 586.45 676.75 591.95 675.3 597.55 673.8 603.3 679.7 609.15 685.6 611.8 695.45 L611.75 695.85 Q613.2 701.2 610.4 706.1 607.5 711.05 602 712.55 596.4 714.05 591.4 711.15 586.6 708.3 585 703.05 L584.8 702.6" />
        <path stroke="none" fill="#FFFFFF"
            d="M677.3 692.3 L676.7 692.2 Q674.7 691.9 672.85 692.95 670.7 694.2 670.1 696.55 669.4 699 670.7 701.2 671.7 703.1 673.65 703.8 L674.2 703.95 Q676.65 704.6 678.8 703.35 681 702.05 681.6 699.7 682.25 697.25 680.95 695.05 679.75 693 677.3 692.3 M680.2 688.6 Q684.05 689.7 686 693.1 687.95 696.5 686.95 700.35 685.9 704.15 682.5 706.2 679.05 708.1 675.2 707.05 671.4 706.05 669.45 702.7 667.45 699.2 668.5 695.4 669.5 691.6 673 689.6 676.4 687.65 680.2 688.6 M595.5 688.6 Q599.3 687.65 602.7 689.6 606.2 691.6 607.2 695.4 608.25 699.2 606.25 702.7 604.3 706.05 600.5 707.05 596.65 708.1 593.2 706.2 589.8 704.15 588.75 700.35 587.75 696.5 589.7 693.1 591.65 689.7 595.5 688.6 M598.4 692.3 Q595.95 693 594.75 695.05 593.45 697.25 594.1 699.7 594.7 702.05 596.9 703.35 599.05 704.6 601.5 703.95 L602.05 703.8 Q604 703.1 605 701.2 606.3 699 605.6 696.55 605 694.2 602.85 692.95 601 691.9 599 692.2 L598.4 692.3" />
        <path stroke="none" fill="#5B5B5B"
            d="M598.4 692.3 L599 692.2 Q601 691.9 602.85 692.95 605 694.2 605.6 696.55 606.3 699 605 701.2 604 703.1 602.05 703.8 L601.5 703.95 Q599.05 704.6 596.9 703.35 594.7 702.05 594.1 699.7 593.45 697.25 594.75 695.05 595.95 693 598.4 692.3 M677.3 692.3 Q679.75 693 680.95 695.05 682.25 697.25 681.6 699.7 681 702.05 678.8 703.35 676.65 704.6 674.2 703.95 L673.65 703.8 Q671.7 703.1 670.7 701.2 669.4 699 670.1 696.55 670.7 694.2 672.85 692.95 674.7 691.9 676.7 692.2 L677.3 692.3" />
        <path stroke="none" fill="#FFFCF5"
            d="M632.25 650.2 L635.8 616.4 Q635.9 615.55 636.5 615 L636.9 614.75 637.9 614.5 638.95 614.75 639.3 615 639.35 615 Q639.95 615.55 640 616.4 L643.6 650 637.55 650.75 632.25 650.2 M644.05 653.9 L645.75 670.1 Q643.55 672.25 637.55 672.3 632.1 672.35 630.05 670.45 L631.8 654.15 Q633.9 654.85 637.55 654.8 641.65 654.75 644.05 653.9 M646.2 674.35 L646.95 681.4 Q646.05 686.7 637.55 686.85 629.6 686.95 628.85 681.8 L629.6 674.75 Q631.45 677.15 637.55 677.05 644.2 676.95 646.2 674.35" />
        <path stroke="none" fill="#F0EDE7"
            d="M646.2 674.35 Q644.2 676.95 637.55 677.05 631.45 677.15 629.6 674.75 L630.05 670.45 Q632.1 672.35 637.55 672.3 643.55 672.25 645.75 670.1 L646.2 674.35 M643.6 650 L644.05 653.9 Q641.65 654.75 637.55 654.8 633.9 654.85 631.8 654.15 L632.25 650.2 637.55 650.75 643.6 650 M646.95 681.4 L647.05 682.25 Q647.3 690.95 637.55 691.15 628.2 691.35 628.75 682.25 L628.85 681.8 Q629.6 686.95 637.55 686.85 646.05 686.7 646.95 681.4" />
        <path stroke="none" fill="#E7E7E7"
            d="M621.15 710.9 Q617.9 718.15 621.15 727.25 L618.55 726.4 Q615.4 725.3 614 722.35 612.55 719.35 613.65 716.3 614.7 713.15 617.7 711.7 619.4 710.9 621.15 710.9 M655.15 727.25 Q658.05 718.6 655.15 710.95 L657.55 711.55 Q660.6 712.75 661.85 715.8 663.1 718.85 661.9 721.9 660.65 724.9 657.65 726.25 L655.15 727.25" />
        <path stroke="none" fill="#FFFFFF"
            d="M655.15 727.25 Q639.55 732.9 621.15 727.25 617.9 718.15 621.15 710.9 622.45 710.9 623.75 711.35 638.9 716.65 651.5 711.55 653.3 710.8 655.15 710.95 658.05 718.6 655.15 727.25" />
    </g>
</svg>