<?xml version="1.0" encoding="utf-8"?>
<svg viewBox="315.95 814.8066 136 149.1934" xmlns="http://www.w3.org/2000/svg">
    <g>
        <path stroke="none" fill="#857E7E"
            d="M414.05 816.3 Q421.85 813.5 428.3 815.95 434.9 818.45 436.7 824.5 L436.75 824.75 437.35 827.6 437.35 827.5 Q440.3 842.2 437.75 854.25 451.95 872.25 451.95 896 L451.95 898 451.95 898.1 Q451.85 902.25 451.35 906.3 L451.3 906.35 Q449.7 917.4 444.65 927.1 442.75 930.75 440.3 934.3 436.7 939.35 432.05 944.05 412.1 964 383.95 964 355.8 964 335.9 944.05 331.15 939.35 327.6 934.25 L327.65 934.25 Q318.85 921.6 316.7 906.3 316.1 902.35 316 898.2 L315.95 896 Q315.95 872.15 330.25 854.25 327.7 842.2 330.65 827.6 L330.6 827.65 331.2 824.75 331.3 824.5 Q333.05 818.4 339.7 816 346.2 813.55 353.9 816.35 L353.85 816.35 Q360.35 818.55 364.6 823.4 366.75 821.85 369.65 821.9 L398.25 821.9 Q401.1 821.95 403.25 823.5 407.5 818.6 414.1 816.3 L414.05 816.3" />
        <path stroke="none" fill="#FFFFFF"
            d="M409.25 841 L409 840.9 Q406.1 839.65 403.05 838.75 L403.05 838.7 403.65 834.9 Q407.7 836.2 411.55 838.05 L409.6 840.45 409.25 841 M364.85 838.75 Q361.8 839.65 358.9 840.9 L358.7 841 358.35 840.45 356.35 838.05 Q360.2 836.2 364.3 834.9 L364.85 838.15 364.85 838.3 364.85 838.75 M345.6 848.7 Q342.75 850.85 340.1 853.4 L338.7 854.7 335.45 858.25 Q320.6 875.2 320 898 L319.95 896 Q319.95 872.6 334.55 855.25 L338.7 850.7 Q339.55 849.85 340.4 849.1 L342.4 847.25 345.6 848.7 M447.95 898 Q447.3 875.2 432.5 858.25 L429.2 854.7 428.4 853.9 427.9 853.45 Q425.2 850.85 422.35 848.7 423.85 847.95 425.5 847.25 L427.6 849.15 429.2 850.7 432.25 853.9 433.4 855.25 Q447.95 872.65 447.95 896 L447.95 898 M432.45 878.55 Q432.45 883.7 428.8 887.3 425.15 891 419.95 891 414.85 891 411.15 887.3 407.5 883.7 407.5 878.55 407.5 873.35 411.15 869.7 414.85 866.05 419.95 866.05 425.15 866.05 428.8 869.7 432.45 873.35 432.45 878.55 M427.7 878.75 Q427.7 875.15 425.2 872.6 422.7 870.1 419.05 870.1 415.5 870.1 412.9 872.6 410.4 875.15 410.4 878.75 410.4 882.35 412.9 884.8 415.5 887.35 419.05 887.35 422.7 887.35 425.2 884.8 427.7 882.35 427.7 878.75 M335.45 878.55 Q335.45 873.35 339.1 869.7 342.75 866.05 347.95 866.05 353.05 866.05 356.75 869.7 360.4 873.35 360.4 878.55 360.4 883.7 356.75 887.3 353.05 891 347.95 891 342.75 891 339.1 887.3 335.45 883.7 335.45 878.55 M340.15 878.75 Q340.15 882.35 342.7 884.8 345.2 887.35 348.85 887.35 352.4 887.35 354.95 884.8 357.5 882.35 357.5 878.75 357.5 875.15 354.95 872.6 352.4 870.1 348.85 870.1 345.2 870.1 342.7 872.6 340.15 875.15 340.15 878.75" />
        <path stroke="none" fill="#E9E9E9"
            d="M403.05 838.75 Q406.1 839.65 409 840.9 L409.25 841 Q406.65 844.8 405.65 849.45 405.15 851.55 405.05 853.9 L405 854.95 Q405.3 858.7 408.95 856.7 L410.65 855.55 413 853.9 Q417.15 851.15 422.35 848.7 425.2 850.85 427.9 853.45 L428.4 853.9 429.2 854.7 432.5 858.25 Q447.3 875.2 447.95 898 447.85 901.95 447.35 905.75 438.35 900.55 427.15 900.75 421.15 901.05 426.3 906 437.15 916.4 437 932 433.6 936.8 429.2 941.2 410.45 960 383.95 960 357.45 960 338.7 941.2 334.25 936.8 330.9 931.95 330.8 916.4 341.6 906 346.75 901.05 340.75 900.75 329.55 900.55 320.65 905.7 320.1 901.95 320 898 320.6 875.2 335.45 858.25 L338.7 854.7 340.1 853.4 Q342.75 850.85 345.6 848.7 352.3 851.85 357.25 855.55 L359.05 856.7 Q362.6 858.65 362.9 854.95 362.85 852.15 362.3 849.6 361.3 844.85 358.7 841 L358.9 840.9 Q361.8 839.65 364.85 838.75 L366.6 850.65 Q367.05 853.05 368.75 854.65 L372.75 857.7 Q378.45 861.45 383.9 861.5 389.4 861.45 395.4 857.6 L399.15 854.65 Q400.35 853.5 400.95 851.95 L401.3 850.65 403.05 838.75 M432.45 878.55 Q432.45 873.35 428.8 869.7 425.15 866.05 419.95 866.05 414.85 866.05 411.15 869.7 407.5 873.35 407.5 878.55 407.5 883.7 411.15 887.3 414.85 891 419.95 891 425.15 891 428.8 887.3 432.45 883.7 432.45 878.55 M335.45 878.55 Q335.45 883.7 339.1 887.3 342.75 891 347.95 891 353.05 891 356.75 887.3 360.4 883.7 360.4 878.55 360.4 873.35 356.75 869.7 353.05 866.05 347.95 866.05 342.75 866.05 339.1 869.7 335.45 873.35 335.45 878.55 M402.5 898.1 L400.1 889.95 Q397.95 880.8 383.95 880.4 371.05 880.05 367.8 889.95 L365.45 898.05 Q361.15 900.15 357.4 903.35 346.85 912.4 346.45 925 L346.45 926 346.5 927.9 Q347.25 939.9 357.4 948.6 368.4 958 383.95 958 399.45 958 410.45 948.6 420.65 939.95 421.4 927.9 L421.45 926 421.45 925 Q421 912.4 410.45 903.35 406.7 900.2 402.5 898.1" />
        <path stroke="none" fill="#414040"
            d="M402.5 898.1 Q394.2 894 383.95 894 373.7 894 365.45 898.05 L367.8 889.95 Q371.05 880.05 383.95 880.4 397.95 880.8 400.1 889.95 L402.5 898.1 M411.55 838.05 Q407.7 836.2 403.65 834.9 L403.7 834.45 403.8 832.2 404.45 831.25 Q408.25 826.15 414.65 823.9 420.9 821.65 426.1 823.55 430.8 825.35 432.05 829.5 L432.65 832.2 Q435 843.95 433.6 853.9 L433.45 854.95 433.4 855.25 432.25 853.9 429.2 850.7 427.6 849.15 426.8 844.2 426.35 842.3 Q425.5 839.25 422.15 837.95 L413.85 838.2 412.8 838.65 411.55 838.05 M403.05 838.7 L403.05 838.75 401.3 850.65 400.95 851.95 Q400.35 853.5 399.15 854.65 L395.4 857.6 Q389.4 861.45 383.9 861.5 378.45 861.45 372.75 857.7 L368.75 854.65 Q367.05 853.05 366.6 850.65 L364.85 838.75 364.85 838.3 364.85 838.15 Q364.65 837.05 364.9 836 L365.4 834.55 365.6 834.1 365.95 833.5 Q367.5 831.05 370.2 831.05 L397.75 831.05 Q399.65 831.05 400.95 832.3 L401.95 833.5 402.35 834.15 402.55 834.55 403 836.05 Q403.2 837.3 403.05 838.7 M358.7 841 Q361.3 844.85 362.3 849.6 362.85 852.15 362.9 854.95 362.6 858.65 359.05 856.7 L357.25 855.55 Q352.3 851.85 345.6 848.7 351.75 843.95 358.7 841 M320.65 905.7 Q329.55 900.55 340.75 900.75 346.75 901.05 341.6 906 330.8 916.4 330.9 931.95 322.65 920.1 320.65 905.7 M437 932 Q437.15 916.4 426.3 906 421.15 901.05 427.15 900.75 438.35 900.55 447.35 905.75 445.85 916.15 441.1 925.25 439.3 928.7 437 932 M422.35 848.7 Q417.15 851.15 413 853.9 L410.65 855.55 408.95 856.7 Q405.3 858.7 405 854.95 L405.05 853.9 Q405.15 851.55 405.65 849.45 406.65 844.8 409.25 841 416.15 843.95 422.35 848.7 M334.5 855 Q332.85 844.6 335.3 832.25 L335.9 829.5 Q337.15 825.35 341.85 823.6 347.05 821.7 353.35 823.95 359.7 826.15 363.5 831.3 L364.1 832.2 Q364 833.25 364.2 834.45 L364.3 834.9 Q360.2 836.2 356.35 838.05 L355.15 838.65 354.1 838.25 345.85 838 Q342.45 839.3 341.55 842.35 L341.15 844.2 340.4 849.1 Q339.55 849.85 338.7 850.7 L334.55 855.25 334.5 855 M421.4 927.9 Q420.65 939.95 410.45 948.6 399.45 958 383.95 958 368.4 958 357.4 948.6 347.25 939.9 346.5 927.9 347.3 916 357.4 907.35 360.45 904.75 363.8 902.9 372.7 898 383.95 898 395.2 898 404.1 902.95 407.45 904.8 410.45 907.35 420.55 916 421.4 927.9 M402.45 908.15 L401.6 907.55 Q400.2 906.85 398 907.5 L397.75 907.6 Q394.9 908.45 392.4 910.95 L392.25 911.1 Q391.6 911.8 391.25 912.65 390.85 913.55 390.85 914.65 390.85 916.8 392.35 918.3 393.85 919.8 396 919.8 398.05 919.8 399.55 918.4 L399.7 918.25 Q401.75 916.2 402.7 913.95 L403.15 912.65 403.3 912.15 Q403.7 910.25 403.05 909 L402.45 908.15 M368.35 918.4 Q369.85 919.8 371.9 919.8 374.05 919.8 375.55 918.3 377.05 916.8 377.05 914.65 377.05 913.55 376.7 912.65 L375.65 911.1 375.5 910.95 Q372.95 908.4 370.1 907.55 L369.9 907.5 Q367.7 906.85 366.35 907.55 365.85 907.75 365.45 908.15 L364.85 909 Q364.2 910.25 364.65 912.15 L364.75 912.65 365.2 913.95 Q366.15 916.2 368.2 918.25 L368.35 918.4" />
        <path stroke="none" fill="#2E2D2D"
            d="M368.35 918.4 L368.2 918.25 Q366.15 916.2 365.2 913.95 L364.75 912.65 364.65 912.15 Q364.2 910.25 364.85 909 L365.45 908.15 Q365.85 907.75 366.35 907.55 367.7 906.85 369.9 907.5 L370.1 907.55 Q372.95 908.4 375.5 910.95 L375.65 911.1 376.7 912.65 Q377.05 913.55 377.05 914.65 377.05 916.8 375.55 918.3 374.05 919.8 371.9 919.8 369.85 919.8 368.35 918.4 M425.5 847.25 Q419.5 842.05 412.8 838.65 L413.85 838.2 422.15 837.95 Q425.5 839.25 426.35 842.3 L426.8 844.2 427.6 849.15 425.5 847.25 M340.4 849.1 L341.15 844.2 341.55 842.35 Q342.45 839.3 345.85 838 L354.1 838.25 355.15 838.65 Q348.4 842.05 342.4 847.25 L340.4 849.1 M402.45 908.15 L403.05 909 Q403.7 910.25 403.3 912.15 L403.15 912.65 402.7 913.95 Q401.75 916.2 399.7 918.25 L399.55 918.4 Q398.05 919.8 396 919.8 393.85 919.8 392.35 918.3 390.85 916.8 390.85 914.65 390.85 913.55 391.25 912.65 391.6 911.8 392.25 911.1 L392.4 910.95 Q394.9 908.45 397.75 907.6 L398 907.5 Q400.2 906.85 401.6 907.55 L402.45 908.15" />
        <path stroke="none" fill="#545353"
            d="M403.65 834.9 L403.05 838.7 Q403.2 837.3 403 836.05 L402.55 834.55 402.35 834.15 401.95 833.5 400.95 832.3 Q399.65 831.05 397.75 831.05 L370.2 831.05 Q367.5 831.05 365.95 833.5 L365.6 834.1 365.4 834.55 364.9 836 Q364.65 837.05 364.85 838.15 L364.3 834.9 364.2 834.45 Q364 833.25 364.1 832.2 L363.5 831.3 Q359.7 826.15 353.35 823.95 347.05 821.7 341.85 823.6 337.15 825.35 335.9 829.5 L335.3 832.25 Q332.85 844.6 334.5 855 L334.2 853.8 Q331.75 842.35 334.55 828.35 L335.1 825.65 Q336.4 821.45 341.05 819.75 346.3 817.85 352.55 820.1 358.9 822.3 362.7 827.4 363.75 828.9 364.45 830.35 L365.25 828.55 Q366.85 825.9 369.65 825.9 L398.25 825.9 Q399.8 825.9 400.95 826.75 401.9 827.35 402.6 828.55 403.15 829.4 403.5 830.4 404.15 828.9 405.25 827.35 409.05 822.3 415.4 820.05 421.7 817.8 426.9 819.7 431.55 821.45 432.85 825.65 L433.4 828.3 Q436.25 842.35 433.75 853.8 L433.75 853.9 433.45 854.95 433.6 853.9 Q435 843.95 432.65 832.2 L432.05 829.5 Q430.8 825.35 426.1 823.55 420.9 821.65 414.65 823.9 408.25 826.15 404.45 831.25 L403.8 832.2 403.7 834.45 403.65 834.9 M402.5 898.1 Q406.7 900.2 410.45 903.35 421 912.4 421.45 925 L421.45 926 421.4 927.9 Q420.55 916 410.45 907.35 407.45 904.8 404.1 902.95 395.2 898 383.95 898 372.7 898 363.8 902.9 360.45 904.75 357.4 907.35 347.3 916 346.5 927.9 L346.45 926 346.45 925 Q346.85 912.4 357.4 903.35 361.15 900.15 365.45 898.05 373.7 894 383.95 894 394.2 894 402.5 898.1" />
        <path stroke="none" fill="#4F4E4E"
            d="M409.25 841 L409.6 840.45 411.55 838.05 412.8 838.65 Q419.5 842.05 425.5 847.25 423.85 847.95 422.35 848.7 416.15 843.95 409.25 841 M342.4 847.25 Q348.4 842.05 355.15 838.65 L356.35 838.05 358.35 840.45 358.7 841 Q351.75 843.95 345.6 848.7 L342.4 847.25" />
        <path stroke="none" fill="#5B5B5B"
            d="M427.7 878.75 Q427.7 882.35 425.2 884.8 422.7 887.35 419.05 887.35 415.5 887.35 412.9 884.8 410.4 882.35 410.4 878.75 410.4 875.15 412.9 872.6 415.5 870.1 419.05 870.1 422.7 870.1 425.2 872.6 427.7 875.15 427.7 878.75 M340.15 878.75 Q340.15 875.15 342.7 872.6 345.2 870.1 348.85 870.1 352.4 870.1 354.95 872.6 357.5 875.15 357.5 878.75 357.5 882.35 354.95 884.8 352.4 887.35 348.85 887.35 345.2 887.35 342.7 884.8 340.15 882.35 340.15 878.75" />
    </g>
</svg>