<?xml version="1.0" encoding="utf-8"?>
<svg viewBox="1073.2611 828 152.4609 136" xmlns="http://www.w3.org/2000/svg">
    <g>
        <path stroke="none" fill="#2C2B2B"
            d="M1225.65 848.05 Q1225.35 850.85 1224.3 853.9 L1224.3 853.95 Q1221.6 861.45 1215.6 865.95 L1215.5 866.05 1211.8 868.2 Q1217.5 880.95 1217.5 896 L1217.5 898 1217.5 898.1 Q1217.05 913.95 1210.2 927.1 1208.6 930.2 1206.65 933.15 1202.75 938.9 1197.6 944.05 1177.65 964 1149.5 964 1121.35 964 1101.45 944.05 1096.25 938.85 1092.45 933.15 1082.05 917.65 1081.55 898.2 L1081.5 896 Q1081.5 880.95 1087.25 868.25 1085.35 867.35 1083.45 866.05 L1083.35 865.95 Q1077.35 861.45 1074.7 853.95 L1074.7 853.9 Q1073.6 850.85 1073.35 848.05 L1073.35 847.95 Q1072.95 843.6 1074.35 839.75 L1074.35 839.7 Q1076.85 833.1 1082.9 831.35 L1083.15 831.25 1086 830.7 1085.9 830.7 Q1100.85 827.65 1113.05 830.35 L1113.2 830.4 1114.3 830.7 1114.4 830.7 Q1118.95 831.8 1122.15 833.55 1127.15 831.35 1132.55 830.05 1140.6 828 1149.5 828 1158.2 828 1166.1 829.9 L1166.45 830 Q1171.8 831.3 1176.85 833.5 1180 831.8 1184.55 830.7 L1184.65 830.7 1185.8 830.4 1185.9 830.35 Q1198.1 827.65 1213.05 830.7 L1213 830.7 1215.8 831.25 1216.1 831.35 Q1222.1 833.1 1224.6 839.7 L1224.65 839.75 Q1226 843.6 1225.65 847.95 L1225.65 848.05" />
        <path stroke="none" fill="#414040"
            d="M1122.25 841.35 L1120.95 840.95 Q1112.7 839.15 1102.6 841.2 L1100.7 841.65 Q1097.65 842.5 1096.35 845.85 1095.45 848.3 1095.8 851 1096 852.55 1096.6 854.15 1098.25 858.75 1101.9 861.5 1103.65 862.7 1105.2 863.25 L1101.6 864.3 1100.65 864.55 1097.7 865.15 1094.9 865.65 1093.65 865.75 Q1089.85 865.65 1085.75 862.75 1080.7 858.95 1078.45 852.6 1077.55 850 1077.3 847.6 1077.5 845.8 1078.1 844.1 1079.85 839.45 1084.05 838.15 L1086.7 837.6 Q1100.75 834.75 1112.2 837.25 L1113.35 837.55 Q1119.05 838.95 1122.25 841.35 M1176.7 841.35 Q1179.9 838.95 1185.6 837.55 L1186.75 837.25 Q1198.2 834.75 1212.25 837.6 L1214.9 838.15 Q1219.1 839.45 1220.85 844.1 1221.45 845.8 1221.65 847.6 1221.4 850 1220.5 852.6 1218.25 858.95 1213.2 862.75 1209.1 865.65 1205.3 865.75 L1204.05 865.65 1201.25 865.15 1198.3 864.55 1197.35 864.3 1193.75 863.25 Q1195.3 862.7 1197.05 861.5 1200.7 858.75 1202.35 854.15 1202.95 852.55 1203.15 851 1203.5 848.3 1202.6 845.85 1201.3 842.5 1198.25 841.65 L1196.35 841.2 Q1186.25 839.15 1178 840.95 L1176.7 841.35" />
        <path stroke="none" fill="#545353"
            d="M1176.7 841.35 L1176.65 841.35 Q1174.7 841.8 1173.25 842.45 L1173.5 841.9 Q1176.2 836.85 1185.6 834.55 L1186.75 834.25 Q1198.2 831.75 1212.25 834.6 L1214.9 835.15 Q1219.1 836.45 1220.85 841.1 1221.95 844.15 1221.65 847.6 1221.45 845.8 1220.85 844.1 1219.1 839.45 1214.9 838.15 L1212.25 837.6 Q1198.2 834.75 1186.75 837.25 L1185.6 837.55 Q1179.9 838.95 1176.7 841.35 M1122.25 841.35 Q1119.05 838.95 1113.35 837.55 L1112.2 837.25 Q1100.75 834.75 1086.7 837.6 L1084.05 838.15 Q1079.85 839.45 1078.1 844.1 1077.5 845.8 1077.3 847.6 1077 844.15 1078.1 841.1 1079.85 836.45 1084.05 835.15 L1086.7 834.6 Q1100.75 831.75 1112.2 834.25 L1113.35 834.55 Q1122.75 836.85 1125.45 841.9 L1125.7 842.45 1122.3 841.35 1122.25 841.35" />
        <path stroke="none" fill="#FFAAFF"
            d="M1176.7 841.35 L1178 840.95 Q1186.25 839.15 1196.35 841.2 L1198.25 841.65 Q1201.3 842.5 1202.6 845.85 1203.5 848.3 1203.15 851 1202.95 852.55 1202.35 854.15 1200.7 858.75 1197.05 861.5 1195.3 862.7 1193.75 863.25 L1192.35 862.8 Q1184.5 860.1 1179.05 855.85 1175.1 852.85 1173.55 849.8 1171.8 846.45 1172.95 843.05 L1173.25 842.45 Q1174.7 841.8 1176.65 841.35 L1176.7 841.35 M1122.25 841.35 L1122.3 841.35 1125.7 842.45 1126 843.05 Q1127.15 846.45 1125.4 849.8 1123.85 852.85 1119.9 855.85 1114.45 860.1 1106.6 862.8 L1105.2 863.25 Q1103.65 862.7 1101.9 861.5 1098.25 858.75 1096.6 854.15 1096 852.55 1095.8 851 1095.45 848.3 1096.35 845.85 1097.65 842.5 1100.7 841.65 L1102.6 841.2 Q1112.7 839.15 1120.95 840.95 L1122.25 841.35" />
        <path stroke="none" fill="#4F4E4E"
            d="M1165.05 837.75 L1165.5 833.85 Q1181.9 837.9 1194.75 850.7 L1196 852 Q1213.5 870.4 1213.5 896 L1213.5 898 Q1212.8 873.7 1196 856 L1194.75 854.7 Q1181.75 841.75 1165.05 837.75 M1133.5 833.9 L1133.95 837.75 1133.95 837.8 Q1123.8 840.2 1115 845.95 1109.35 849.65 1104.25 854.7 1086.2 872.8 1085.55 898 L1085.5 896 Q1085.5 869.5 1104.25 850.7 1109.35 845.6 1115 841.95 1123.6 836.3 1133.5 833.9" />
        <path stroke="none" fill="#FFFFFF"
            d="M1133.5 833.9 Q1141.1 832 1149.5 832 1157.85 832 1165.45 833.85 L1165.5 833.85 1165.05 837.75 1165 837.75 1159.5 836.7 1149.5 836 1139.5 836.7 1133.95 837.8 1133.95 837.75 1133.5 833.9" />
        <path stroke="none" fill="#F0F0F0"
            d="M1133.95 837.8 L1139.5 836.7 1149.5 836 1159.5 836.7 1165 837.75 1165.05 837.75 Q1161.8 853.2 1160.85 868.95 1160.1 881.1 1160.75 893.45 1161.95 915.65 1203.3 930.9 1199.65 936.35 1194.75 941.2 1176 960 1149.5 960 1123 960 1104.25 941.2 1099.35 936.3 1095.75 930.9 1137.05 915.65 1138.25 893.45 1138.9 881.1 1138.2 868.95 1137.2 853.25 1133.95 837.8" />
        <path stroke="none" fill="#414040"
            d="M1133.95 837.8 Q1137.2 853.25 1138.2 868.95 1138.9 881.1 1138.25 893.45 1137.05 915.65 1095.75 930.9 1086 916.35 1085.55 898 1086.2 872.8 1104.25 854.7 1109.35 849.65 1115 845.95 1123.8 840.2 1133.95 837.8 M1203.3 930.9 Q1161.95 915.65 1160.75 893.45 1160.1 881.1 1160.85 868.95 1161.8 853.2 1165.05 837.75 1181.75 841.75 1194.75 854.7 L1196 856 Q1212.8 873.7 1213.5 898 1213.1 912.9 1206.65 925.25 L1203.3 930.9" />
        <path stroke="none" fill="#FFC4FF"
            d="M1112.05 927.9 L1112 926 1112 925 Q1112.4 912.4 1122.95 903.35 1133.95 894 1149.5 894 1165 894 1176 903.35 1186.55 912.4 1187 925 L1187 926 1186.95 927.9 Q1186.1 916 1176 907.35 1165 898 1149.5 898 1133.95 898 1122.95 907.35 1112.85 916 1112.05 927.9" />
        <path stroke="none" fill="#FFAAFF"
            d="M1112.05 927.9 Q1112.85 916 1122.95 907.35 1133.95 898 1149.5 898 1165 898 1176 907.35 1186.1 916 1186.95 927.9 1186.3 938.1 1178.9 945.9 L1176 948.6 Q1173.9 950.4 1171.6 951.9 1161.75 949.9 1149.5 949.9 1137.2 949.9 1127.4 951.9 L1122.95 948.6 1120.1 945.9 Q1112.7 938.1 1112.05 927.9 M1168 908.15 L1167.15 907.55 Q1165.75 906.85 1163.55 907.5 L1163.3 907.6 Q1160.45 908.45 1157.95 910.95 L1157.8 911.1 Q1157.15 911.8 1156.8 912.65 1156.4 913.55 1156.4 914.65 1156.4 916.8 1157.9 918.3 1159.4 919.8 1161.55 919.8 1163.6 919.8 1165.1 918.4 L1165.25 918.25 Q1167.3 916.2 1168.25 913.95 L1168.7 912.65 1168.85 912.15 Q1169.25 910.25 1168.6 909 L1168 908.15 M1133.9 918.4 Q1135.4 919.8 1137.45 919.8 1139.6 919.8 1141.1 918.3 1142.6 916.8 1142.6 914.65 1142.6 913.55 1142.25 912.65 L1141.2 911.1 1141.05 910.95 Q1138.5 908.4 1135.65 907.55 L1135.45 907.5 Q1133.25 906.85 1131.9 907.55 1131.4 907.75 1131 908.15 L1130.4 909 Q1129.75 910.25 1130.2 912.15 L1130.3 912.65 1130.75 913.95 Q1131.7 916.2 1133.75 918.25 L1133.9 918.4" />
        <path stroke="none" fill="#A66EA6"
            d="M1133.9 918.4 L1133.75 918.25 Q1131.7 916.2 1130.75 913.95 L1130.3 912.65 1130.2 912.15 Q1129.75 910.25 1130.4 909 L1131 908.15 Q1131.4 907.75 1131.9 907.55 1133.25 906.85 1135.45 907.5 L1135.65 907.55 Q1138.5 908.4 1141.05 910.95 L1141.2 911.1 1142.25 912.65 Q1142.6 913.55 1142.6 914.65 1142.6 916.8 1141.1 918.3 1139.6 919.8 1137.45 919.8 1135.4 919.8 1133.9 918.4 M1168 908.15 L1168.6 909 Q1169.25 910.25 1168.85 912.15 L1168.7 912.65 1168.25 913.95 Q1167.3 916.2 1165.25 918.25 L1165.1 918.4 Q1163.6 919.8 1161.55 919.8 1159.4 919.8 1157.9 918.3 1156.4 916.8 1156.4 914.65 1156.4 913.55 1156.8 912.65 1157.15 911.8 1157.8 911.1 L1157.95 910.95 Q1160.45 908.45 1163.3 907.6 L1163.55 907.5 Q1165.75 906.85 1167.15 907.55 L1168 908.15" />
        <path stroke="none" fill="#F0A0F0"
            d="M1171.6 951.9 Q1162 958 1149.5 958 1136.95 958 1127.4 951.9 1137.2 949.9 1149.5 949.9 1161.75 949.9 1171.6 951.9" />
        <path stroke="none" fill="#FFFFFF"
            d="M1190.5 872.05 Q1190.5 876.15 1187.55 879.05 1184.65 882 1180.5 882 1176.4 882 1173.45 879.05 1170.55 876.15 1170.55 872.05 1170.55 867.85 1173.45 864.95 1176.4 862.05 1180.5 862.05 1184.65 862.05 1187.55 864.95 1190.5 867.85 1190.5 872.05 M1186.7 872.2 Q1186.7 869.3 1184.7 867.25 1182.7 865.25 1179.75 865.25 1176.95 865.25 1174.85 867.25 1172.85 869.3 1172.85 872.2 1172.85 875.05 1174.85 877.05 1176.95 879.05 1179.75 879.05 1182.7 879.05 1184.7 877.05 1186.7 875.05 1186.7 872.2 M1108.5 872.05 Q1108.5 867.85 1111.4 864.95 1114.35 862.05 1118.5 862.05 1122.55 862.05 1125.55 864.95 1128.45 867.85 1128.45 872.05 1128.45 876.15 1125.55 879.05 1122.55 882 1118.5 882 1114.35 882 1111.4 879.05 1108.5 876.15 1108.5 872.05 M1112.25 872.2 Q1112.25 875.05 1114.3 877.05 1116.3 879.05 1119.2 879.05 1122.05 879.05 1124.1 877.05 1126.15 875.05 1126.15 872.2 1126.15 869.3 1124.1 867.25 1122.05 865.25 1119.2 865.25 1116.3 865.25 1114.3 867.25 1112.25 869.3 1112.25 872.2" />
        <path stroke="none" fill="#5B5B5B"
            d="M1112.25 872.2 Q1112.25 869.3 1114.3 867.25 1116.3 865.25 1119.2 865.25 1122.05 865.25 1124.1 867.25 1126.15 869.3 1126.15 872.2 1126.15 875.05 1124.1 877.05 1122.05 879.05 1119.2 879.05 1116.3 879.05 1114.3 877.05 1112.25 875.05 1112.25 872.2 M1186.7 872.2 Q1186.7 875.05 1184.7 877.05 1182.7 879.05 1179.75 879.05 1176.95 879.05 1174.85 877.05 1172.85 875.05 1172.85 872.2 1172.85 869.3 1174.85 867.25 1176.95 865.25 1179.75 865.25 1182.7 865.25 1184.7 867.25 1186.7 869.3 1186.7 872.2" />
    </g>
</svg>