<?xml version="1.0" encoding="utf-8"?>
<svg viewBox="37.5 252 181 136" xmlns="http://www.w3.org/2000/svg">
    <g>
        <path stroke="none" fill="#6D4526"
            d="M79.95 271.9 L81.05 270.85 81.1 270.75 Q100.65 252 128 252 155.45 252 175.05 270.85 L175.1 270.9 176.1 271.9 177.9 273.8 184.5 273.15 Q198.55 273.15 208.5 283.1 218.5 293.15 218.5 307.15 L218.45 309.35 218.45 309.4 Q217.75 322 208.5 331.2 201.75 337.95 193.2 340.15 189.95 350.75 183.15 359.9 L180.95 362.75 180.95 362.7 179.45 364.45 176.1 368.05 Q166.3 377.85 154.5 382.85 142.3 388 128 388 118.95 388 110.8 385.95 106 384.7 101.55 382.85 89.7 377.85 79.95 368.05 L76.55 364.45 Q66.85 353.45 62.85 340.15 54.25 337.95 47.55 331.2 38.25 322 37.55 309.4 L37.55 309.35 37.5 307.15 Q37.5 293.15 47.55 283.1 57.45 273.15 71.5 273.15 L78.1 273.75 79.95 271.9" />
        <path stroke="none" fill="#8E5A32"
            d="M195.95 307.15 Q195.95 300.2 190.95 295.25 186 290.3 179.1 290.3 172.05 290.3 167.1 295.25 162.1 300.2 162.1 307.15 162.1 314.2 167.1 319.1 172.05 324.15 179.1 324.15 186 324.15 190.95 319.1 195.95 314.2 195.95 307.15 M60.05 307.15 Q60.05 314.2 65.05 319.1 70 324.15 76.9 324.15 83.95 324.15 88.9 319.1 93.9 314.2 93.9 307.15 93.9 300.2 88.9 295.25 83.95 290.3 76.9 290.3 70 290.3 65.05 295.25 60.05 300.2 60.05 307.15 M41.55 309.15 Q42.2 298.05 50.35 289.9 59.1 281.15 71.5 281.15 83.85 281.15 92.75 289.9 100.8 298.05 101.45 309.15 100.8 320.25 92.75 328.35 83.85 337.15 71.5 337.15 59.1 337.15 50.35 328.35 42.2 320.25 41.55 309.15 M214.45 309.15 Q213.8 320.25 205.65 328.35 196.9 337.15 184.5 337.15 172.15 337.15 163.25 328.35 155.2 320.25 154.55 309.15 155.2 298.05 163.25 289.9 172.15 281.15 184.5 281.15 196.9 281.15 205.65 289.9 213.8 298.05 214.45 309.15" />
        <path stroke="none" fill="#B67340"
            d="M41.55 309.15 L41.5 307.15 Q41.5 294.8 50.35 285.9 59.1 277.15 71.5 277.15 83.85 277.15 92.75 285.9 101.5 294.8 101.5 307.15 L101.45 309.15 Q100.8 298.05 92.75 289.9 83.85 281.15 71.5 281.15 59.1 281.15 50.35 289.9 42.2 298.05 41.55 309.15 M154.55 309.15 L154.5 307.15 Q154.5 294.8 163.25 285.9 172.15 277.15 184.5 277.15 196.9 277.15 205.65 285.9 214.5 294.8 214.5 307.15 L214.45 309.15 Q213.8 298.05 205.65 289.9 196.9 281.15 184.5 281.15 172.15 281.15 163.25 289.9 155.2 298.05 154.55 309.15" />
        <path stroke="none" fill="#774B2A"
            d="M60.05 307.15 Q60.05 300.2 65.05 295.25 70 290.3 76.9 290.3 83.95 290.3 88.9 295.25 93.9 300.2 93.9 307.15 93.9 314.2 88.9 319.1 83.95 324.15 76.9 324.15 70 324.15 65.05 319.1 60.05 314.2 60.05 307.15 M195.95 307.15 Q195.95 314.2 190.95 319.1 186 324.15 179.1 324.15 172.05 324.15 167.1 319.1 162.1 314.2 162.1 307.15 162.1 300.2 167.1 295.25 172.05 290.3 179.1 290.3 186 290.3 190.95 295.25 195.95 300.2 195.95 307.15" />
        <path stroke="none" fill="#A16639"
            d="M192 320.5 L192 321 192 322 Q191.45 342 179.95 357.5 L177.85 360.15 176.45 361.8 173.25 365.2 Q164.05 374.45 152.95 379.15 141.45 384 128 384 119.45 384 111.75 382.05 107.3 380.95 103.1 379.15 91.95 374.45 82.75 365.2 L79.55 361.8 Q64.65 344.9 64 322 L64 321 64 320.5 Q64.55 294.9 82.75 276.7 L85 274.6 Q87.75 276.5 91.4 278.25 106.55 285.5 128 285.5 149.45 285.5 164.6 278.25 168.25 276.5 171.05 274.6 L173.25 276.7 Q176.95 280.4 179.95 284.45 191.55 300.15 192 320.5 M168 299.85 Q160.6 292.45 150.2 292.45 139.7 292.45 132.35 299.85 130.8 301.35 128 301.35 125.2 301.35 123.7 299.85 116.3 292.45 105.9 292.45 95.45 292.45 88.05 299.85 80.65 307.25 80.65 317.65 80.65 328.1 88.05 335.55 L88.1 335.55 92.3 338.95 Q92.35 353.6 102.75 363.95 106.9 368.1 111.75 370.6 119.1 374.4 128 374.4 142.8 374.4 153.3 363.95 L156.65 360.15 Q163.65 351 163.75 338.95 L168 335.55 Q175.4 328.1 175.4 317.65 175.4 307.25 168 299.85 M133.3 333.7 Q135.25 331.75 137.4 331.1 139.65 330.5 140.75 331.6 141.85 332.7 141.25 334.95 140.65 337.1 138.65 339.05 L138.55 339.2 Q137.45 340.25 135.95 340.25 134.35 340.25 133.25 339.15 132.1 338 132.1 336.4 132.1 334.85 133.15 333.8 L133.3 333.7 M123.65 339.15 Q122.45 340.25 120.9 340.25 119.35 340.25 118.25 339.2 L118.15 339.05 Q116.15 337.1 115.6 334.95 115 332.7 116.1 331.6 117.25 330.5 119.45 331.1 121.65 331.75 123.55 333.7 L123.7 333.8 Q124.75 334.85 124.75 336.4 124.75 338 123.65 339.15" />
        <path stroke="none" fill="#AA6C3B"
            d="M85 274.6 Q103.05 258 128 258 153 258 171.05 274.6 168.25 276.5 164.6 278.25 149.45 285.5 128 285.5 106.55 285.5 91.4 278.25 87.75 276.5 85 274.6" />
        <path stroke="none" fill="#B4723F"
            d="M85 274.6 L82.75 276.7 Q64.55 294.9 64 320.5 L64 320 Q64 293.45 82.75 274.7 L83.8 273.7 Q102.2 256 128 256 153.85 256 172.25 273.7 L173.25 274.7 Q176.95 278.4 179.95 282.45 192 298.7 192 320 L192 320.5 Q191.55 300.15 179.95 284.45 176.95 280.4 173.25 276.7 L171.05 274.6 Q153 258 128 258 103.05 258 85 274.6" />
        <path stroke="none" fill="#FFFFFF"
            d="M163.1 319.15 Q163.1 315.85 160.85 313.7 158.6 311.55 155.45 311.55 152.35 311.55 150 313.7 147.75 315.85 147.75 319.15 147.75 322.3 150 324.45 152.35 326.75 155.45 326.75 158.6 326.75 160.85 324.45 163.1 322.3 163.1 319.15 M168.95 318.9 Q168.95 323.95 165.45 327.4 161.85 331.05 156.75 331.05 151.75 331.05 148.2 327.4 144.6 323.95 144.6 318.9 144.6 313.85 148.2 310.3 151.75 306.8 156.75 306.8 161.85 306.8 165.45 310.3 168.95 313.85 168.95 318.9 M145.75 343.85 Q148.65 351.5 145.75 360.15 130.15 365.8 111.75 360.15 108.5 351.05 111.75 343.8 L114.35 344.25 Q129.5 349.55 142.1 344.45 143.9 343.7 145.75 343.85 M87.75 318.9 Q87.75 313.85 91.35 310.3 94.95 306.8 99.95 306.8 104.95 306.8 108.65 310.3 112.15 313.85 112.15 318.9 112.15 323.95 108.65 327.4 104.95 331.05 99.95 331.05 94.95 331.05 91.35 327.4 87.75 323.95 87.75 318.9 M93.7 319.15 Q93.7 322.3 95.95 324.45 98.1 326.75 101.3 326.75 104.45 326.75 106.7 324.45 108.95 322.3 108.95 319.15 108.95 315.85 106.7 313.7 104.45 311.55 101.3 311.55 98.1 311.55 95.95 313.7 93.7 315.85 93.7 319.15" />
        <path stroke="none" fill="#5B5B5B"
            d="M93.7 319.15 Q93.7 315.85 95.95 313.7 98.1 311.55 101.3 311.55 104.45 311.55 106.7 313.7 108.95 315.85 108.95 319.15 108.95 322.3 106.7 324.45 104.45 326.75 101.3 326.75 98.1 326.75 95.95 324.45 93.7 322.3 93.7 319.15 M163.1 319.15 Q163.1 322.3 160.85 324.45 158.6 326.75 155.45 326.75 152.35 326.75 150 324.45 147.75 322.3 147.75 319.15 147.75 315.85 150 313.7 152.35 311.55 155.45 311.55 158.6 311.55 160.85 313.7 163.1 315.85 163.1 319.15" />
        <path stroke="none" fill="#BF8559"
            d="M168.95 318.9 Q168.95 313.85 165.45 310.3 161.85 306.8 156.75 306.8 151.75 306.8 148.2 310.3 144.6 313.85 144.6 318.9 144.6 323.95 148.2 327.4 151.75 331.05 156.75 331.05 161.85 331.05 165.45 327.4 168.95 323.95 168.95 318.9 M168 299.85 Q175.4 307.25 175.4 317.65 175.4 328.1 168 335.55 L163.75 338.95 Q163.65 351 156.65 360.15 L153.3 363.95 Q142.8 374.4 128 374.4 119.1 374.4 111.75 370.6 106.9 368.1 102.75 363.95 92.35 353.6 92.3 338.95 L88.1 335.55 88.05 335.55 Q80.65 328.1 80.65 317.65 80.65 307.25 88.05 299.85 95.45 292.45 105.9 292.45 116.3 292.45 123.7 299.85 125.2 301.35 128 301.35 130.8 301.35 132.35 299.85 139.7 292.45 150.2 292.45 160.6 292.45 168 299.85 M133.3 333.7 L133.15 333.8 Q132.1 334.85 132.1 336.4 132.1 338 133.25 339.15 134.35 340.25 135.95 340.25 137.45 340.25 138.55 339.2 L138.65 339.05 Q140.65 337.1 141.25 334.95 141.85 332.7 140.75 331.6 139.65 330.5 137.4 331.1 135.25 331.75 133.3 333.7 M123.65 339.15 Q124.75 338 124.75 336.4 124.75 334.85 123.7 333.8 L123.55 333.7 Q121.65 331.75 119.45 331.1 117.25 330.5 116.1 331.6 115 332.7 115.6 334.95 116.15 337.1 118.15 339.05 L118.25 339.2 Q119.35 340.25 120.9 340.25 122.45 340.25 123.65 339.15 M145.75 360.15 L148.25 359.15 Q151.25 357.8 152.5 354.8 153.7 351.75 152.45 348.7 151.2 345.65 148.15 344.45 L145.75 343.85 Q143.9 343.7 142.1 344.45 129.5 349.55 114.35 344.25 L111.75 343.8 Q110 343.8 108.3 344.6 105.3 346.05 104.25 349.2 103.15 352.25 104.6 355.25 106 358.2 109.15 359.3 L111.75 360.15 Q130.15 365.8 145.75 360.15 M87.75 318.9 Q87.75 323.95 91.35 327.4 94.95 331.05 99.95 331.05 104.95 331.05 108.65 327.4 112.15 323.95 112.15 318.9 112.15 313.85 108.65 310.3 104.95 306.8 99.95 306.8 94.95 306.8 91.35 310.3 87.75 313.85 87.75 318.9" />
        <path stroke="none" fill="#E7E7E7"
            d="M 145.75 343.85 L 148.15 344.45 C 150.183 345.25 151.617 346.667 152.45 348.7 C 153.283 350.733 153.3 352.767 152.5 354.8 C 151.667 356.8 150.25 358.25 148.25 359.15 L 145.75 360.15 C 147.683 354.383 147.683 348.95 145.75 343.85 M 111.75 360.15 L 109.15 359.3 C 107.05 358.567 105.533 357.217 104.6 355.25 C 103.633 353.25 103.517 351.233 104.25 349.2 C 104.95 347.1 106.3 345.567 108.3 344.6 C 109.433 344.067 110.583 343.8 111.75 343.8 C 109.583 348.633 109.583 354.083 111.75 360.15" />
    </g>
</svg>