<?xml version="1.0" encoding="utf-8"?>
<svg viewBox="303.7977 252 160.3546 136" xmlns="http://www.w3.org/2000/svg">
    <g>
        <path stroke="none" fill="#2D548C"
            d="M422.7 263.95 L424.9 265.6 Q429.2 261.15 435.35 257.6 L435.4 257.6 Q436.45 256.95 437.6 256.35 L438 256.15 Q442.85 253.85 449.6 257.55 L449.65 257.6 Q455.75 261 460.05 268.4 L460 268.4 Q464.25 275.65 464.15 282.65 L464.15 282.7 464.05 284.9 Q463.3 290.9 459.5 293.55 L459.45 293.6 458.5 294.25 458.25 294.4 457.15 295 457.05 295.1 Q452.9 297.45 448.85 298.95 451.95 308.8 451.95 320 L451.95 322 451.95 322.15 Q451.45 338.3 444.35 351.75 442.25 355.65 439.6 359.35 L439.2 359.85 Q436 364.1 432.05 368.1 L427.15 372.6 427.1 372.65 422.65 376.05 Q405.75 388 383.95 388 362.1 388 345.25 376.1 L345.25 376.05 340.9 372.75 335.85 368.1 Q327.75 360 323 350.65 L322.75 350.05 317.2 333.35 317 332.2 316.95 331.9 316.75 330.9 316.75 330.7 316.7 330.5 316.7 330.3 316.65 330.1 316.5 328.6 316.4 328.1 316.4 327.8 316.35 327.45 316.35 327.4 316.3 327.15 316.25 326.6 316.2 326.05 316.15 325.5 316 322.2 315.95 320 Q315.95 308.8 319.1 298.95 315.05 297.45 310.9 295.1 L310.8 295 309.7 294.4 309.5 294.25 308.55 293.6 308.45 293.55 Q304.65 290.9 304 284.85 L304 285.1 303.8 282.7 303.8 282.65 Q303.7 275.65 307.95 268.4 312.2 261 318.35 257.6 L318.4 257.55 Q325.1 253.85 330 256.15 L330.4 256.35 332.6 257.6 Q338.75 261.15 343.1 265.6 L345.25 264 Q362.15 252 383.95 252 405.8 252 422.65 263.95 L422.7 263.95" />
        <path stroke="none" fill="#528CDB"
            d="M460.05 284.4 Q459.5 279.45 456.55 274.4 452.9 268.05 447.65 265.05 442.9 262.45 439.5 263.85 L437.35 265.05 Q427.7 270.65 422.95 278.5 L422.35 278 421.4 277.25 422.15 275.85 Q426.9 267.1 437.35 261.05 L439.5 259.85 Q442.9 258.45 447.65 261.05 452.9 264.05 456.55 270.4 460.2 276.65 460.15 282.65 L460.05 284.4 M345 278.45 Q340.2 270.6 330.6 265.05 L328.45 263.85 Q325.05 262.45 320.3 265.05 315.05 268.05 311.4 274.4 308.45 279.45 307.95 284.4 L307.8 282.65 Q307.75 276.65 311.4 270.4 315.05 264.05 320.3 261.05 325.05 258.45 328.45 259.85 L330.6 261.05 Q341.05 267.1 345.8 275.85 L346.55 277.25 345 278.45" />
        <path stroke="none" fill="#4B80C9"
            d="M345 278.45 Q341.9 280.85 339 283.75 335.4 279.7 330 276.55 L328.25 275.6 Q325.45 274.45 321.5 276.55 317.2 279.05 314.2 284.3 312.25 287.6 311.6 290.85 L310.85 290.35 Q308.4 288.5 307.95 284.4 308.45 279.45 311.4 274.4 315.05 268.05 320.3 265.05 325.05 262.45 328.45 263.85 L330.6 265.05 Q340.2 270.6 345 278.45 M422.95 278.5 Q427.7 270.65 437.35 265.05 L439.5 263.85 Q442.9 262.45 447.65 265.05 452.9 268.05 456.55 274.4 459.5 279.45 460.05 284.4 459.55 288.5 457.1 290.35 L456.35 290.85 Q455.7 287.6 453.75 284.3 450.75 279.05 446.45 276.55 442.5 274.45 439.7 275.6 L437.95 276.55 Q432.55 279.7 428.95 283.75 L422.95 278.5" />
        <path stroke="none" fill="#3B6EB4"
            d="M428.95 283.75 Q432.55 279.7 437.95 276.55 L439.7 275.6 Q442.5 274.45 446.45 276.55 450.75 279.05 453.75 284.3 455.7 287.6 456.35 290.85 L455.05 291.6 Q447.15 296.15 439.55 297.2 435.4 290.15 429.25 284 L428.95 283.75 M311.6 290.85 Q312.25 287.6 314.2 284.3 317.2 279.05 321.5 276.55 325.45 274.45 328.25 275.6 L330 276.55 Q335.4 279.7 339 283.75 L338.7 284 Q332.55 290.15 328.4 297.2 320.8 296.15 312.9 291.6 L311.6 290.85" />
        <path stroke="none" fill="#5A9BF3"
            d="M447.95 322 Q447.25 296.75 429.25 278.75 426.2 275.7 422.95 273.15 L422.5 273.45 Q406.55 284 383.95 284 361.35 284 345.35 273.45 L344.95 273.2 Q341.7 275.75 338.7 278.75 320.65 296.75 320 322 L319.95 320 Q319.95 293.45 338.7 274.75 L342.35 271.35 Q344.9 269.15 347.55 267.25 363.45 256 383.95 256 404.5 256 420.35 267.2 423 269.1 425.55 271.3 L429.25 274.75 Q447.95 293.45 447.95 320 L447.95 322" />
        <path stroke="none" fill="#528CDB"
            d="M447.95 322 Q447.5 337.2 440.8 349.85 438.85 353.55 436.35 357 L436.3 357 Q433.15 361.3 429.2 365.25 L424.55 369.55 Q420.15 367.95 420.2 363.25 419.1 352 409.75 343.75 399.25 334.5 384.4 334.5 369.55 334.5 359 343.75 349.7 352 348.65 363.25 347.3 368.05 343.45 369.65 L338.65 365.25 Q331.05 357.65 326.55 348.8 L321 332.1 321 331.9 320.8 330.8 320.75 330.55 320.7 330.05 320.6 329.5 320.45 328.25 320.45 328.05 320.35 327.45 320.35 327.2 320.3 327 320.3 326.75 320.25 326.45 320.2 325.8 320.2 325.55 320.15 325.25 320 322 Q320.65 296.75 338.7 278.75 341.7 275.75 344.95 273.2 L345.35 273.45 Q361.35 284 383.95 284 406.55 284 422.5 273.45 L422.95 273.15 Q426.2 275.7 429.25 278.75 447.25 296.75 447.95 322" />
        <path stroke="none" fill="#4178C2"
            d="M343.45 369.65 Q347.3 368.05 348.65 363.25 349.7 352 359 343.75 369.55 334.5 384.4 334.5 399.25 334.5 409.75 343.75 419.1 352 420.2 363.25 420.15 367.95 424.55 369.55 L420.35 372.75 Q404.45 384 383.95 384 363.4 384 347.55 372.8 L343.45 369.65 M401.55 347.35 Q400.45 346.25 398.25 346.85 396 347.45 394.05 349.45 L393.9 349.55 Q392.85 350.65 392.85 352.25 392.85 353.85 394 354.95 395.1 356.1 396.75 356.1 398.25 356.1 399.4 355.05 L399.5 354.95 Q401.5 352.95 402.1 350.75 402.75 348.5 401.55 347.35 M369.4 355.05 Q370.5 356.1 372.05 356.1 373.65 356.1 374.8 354.95 375.9 353.85 375.9 352.25 375.9 350.65 374.85 349.55 L374.75 349.45 Q372.75 347.45 370.55 346.85 368.35 346.25 367.2 347.35 366.05 348.5 366.7 350.75 367.3 352.95 369.3 354.95 L369.4 355.05" />
        <path stroke="none" fill="#2D5D9C"
            d="M401.55 347.35 Q402.75 348.5 402.1 350.75 401.5 352.95 399.5 354.95 L399.4 355.05 Q398.25 356.1 396.75 356.1 395.1 356.1 394 354.95 392.85 353.85 392.85 352.25 392.85 350.65 393.9 349.55 L394.05 349.45 Q396 347.45 398.25 346.85 400.45 346.25 401.55 347.35 M369.4 355.05 L369.3 354.95 Q367.3 352.95 366.7 350.75 366.05 348.5 367.2 347.35 368.35 346.25 370.55 346.85 372.75 347.45 374.75 349.45 L374.85 349.55 Q375.9 350.65 375.9 352.25 375.9 353.85 374.8 354.95 373.65 356.1 372.05 356.1 370.5 356.1 369.4 355.05" />
        <path stroke="none" fill="#FFFFFF"
            d="M435.2 327.2 Q435.2 332.9 431.15 336.8 427.1 340.9 421.4 340.9 415.8 340.9 411.65 336.8 407.7 332.9 407.7 327.2 407.7 321.45 411.65 317.45 415.8 313.4 421.4 313.4 427.1 313.4 431.15 317.45 435.2 321.45 435.2 327.2 M427.65 327.1 Q427.65 323.45 425.2 321 422.65 318.45 419 318.45 415.5 318.45 412.9 321 410.35 323.45 410.35 327.1 L410.4 327.95 Q410.65 330.9 412.9 333.05 415.5 335.55 419 335.55 422.65 335.55 425.2 333.05 427.35 330.9 427.6 327.95 L427.65 327.1" />
        <path stroke="none" fill="#5B5B5B"
            d="M427.65 327.1 L427.6 327.95 Q427.35 330.9 425.2 333.05 422.65 335.55 419 335.55 415.5 335.55 412.9 333.05 410.65 330.9 410.4 327.95 L410.35 327.1 Q410.35 323.45 412.9 321 415.5 318.45 419 318.45 422.65 318.45 425.2 321 427.65 323.45 427.65 327.1" />
        <path stroke="none" fill="#FFFFFF"
            d="M340.25 327.1 L340.3 327.95 Q340.55 330.9 342.7 333.05 345.25 335.55 348.9 335.55 352.4 335.55 355 333.05 357.25 330.9 357.5 327.95 L357.55 327.1 Q357.55 323.45 355 321 352.4 318.45 348.9 318.45 345.25 318.45 342.7 321 340.25 323.45 340.25 327.1 M332.7 327.2 Q332.7 321.45 336.75 317.45 340.8 313.4 346.5 313.4 352.1 313.4 356.25 317.45 360.2 321.45 360.2 327.2 360.2 332.9 356.25 336.8 352.1 340.9 346.5 340.9 340.8 340.9 336.75 336.8 332.7 332.9 332.7 327.2" />
        <path stroke="none" fill="#5B5B5B"
            d="M340.25 327.1 Q340.25 323.45 342.7 321 345.25 318.45 348.9 318.45 352.4 318.45 355 321 357.55 323.45 357.55 327.1 L357.5 327.95 Q357.25 330.9 355 333.05 352.4 335.55 348.9 335.55 345.25 335.55 342.7 333.05 340.55 330.9 340.3 327.95 L340.25 327.1" />
    </g>
</svg>