<?xml version="1.0" encoding="utf-8"?>
<svg viewBox="55.3744 418.4714 145.2807 161.5759" xmlns="http://www.w3.org/2000/svg">
    <g>
        <path stroke="none" fill="#233B43"
            d="M196.6 511.8 L196.6 512.2 196.6 512.4 196.6 512.85 196.5 514.65 196.5 514.85 196.45 515.25 196.45 515.55 196.35 516.85 196.35 516.9 Q195.35 529.05 190.45 539.6 197.25 547.65 199.6 556.55 L199.65 556.6 Q201.05 561.9 200.5 566.1 199.8 571.7 196.05 575.45 L193.2 577.7 193 577.8 192.1 578.3 Q186.3 581.4 177.25 579 169.45 576.95 162.3 571.4 L162.35 571.45 161.75 571 Q146.25 580 127.1 580 108.55 580 93.6 571.55 L92.85 572.15 92.8 572.15 Q86.05 577.05 78.8 579 71 581.05 65.75 579.05 L65.65 579.05 63.05 577.8 63 577.8 60 575.45 Q56.2 571.7 55.55 566.1 54.95 561.9 56.4 556.6 L56.4 556.55 Q58.55 548.5 64.5 541.05 59 529.9 57.9 517 L57.75 515 57.65 513 57.65 512.9 57.6 511.8 57.6 510.5 57.65 508.45 Q58.35 480.95 77.95 461.35 91.9 447.4 109.8 443.05 111.7 435.45 114.55 429.85 L114.55 429.9 Q120.45 417.9 128.05 418.5 135.6 417.9 141.55 429.9 144.35 435.6 146.35 443.55 152.35 445.2 157.9 448 167.8 452.9 176.25 461.35 193.85 478.95 196.25 502.85 L196.25 502.9 196.6 508.4 196.6 508.55 196.6 510.5 196.6 511.8" />
        <path stroke="none" fill="#C3DCE9"
            d="M93.2 566.7 Q87.75 563.35 82.8 558.8 L80.75 556.8 Q76.75 552.8 73.65 548.5 L72.35 546.65 69.25 541.55 Q63 530.15 61.85 516.65 L61.85 516.55 61.75 514.8 61.65 512.8 61.65 512.7 61.65 512.55 61.85 512.7 62.25 512.9 62.85 513.25 63.45 513.6 Q89.8 528.65 127.1 528.65 164.4 528.65 190.75 513.6 L192 512.9 192.4 512.7 192.6 512.6 192.5 514.4 192.45 515.25 192.35 516.55 Q191.3 529.35 185.65 540.3 L182.7 545.45 181.9 546.65 Q178.25 551.95 173.4 556.8 L171.4 558.75 Q166.95 562.9 162.1 566.05 146.65 576 127.1 576 108.2 576 93.2 566.7" />
        <path stroke="none" fill="#D5F0FF"
            d="M61.85 508.7 L62.25 508.9 62.85 509.25 63.45 509.6 Q89.8 524.65 127.1 524.65 164.4 524.65 190.75 509.6 L192 508.9 192.4 508.7 192.6 508.55 192.6 510.5 192.6 511.8 192.6 512.2 192.6 512.6 192.4 512.7 192 512.9 190.75 513.6 Q164.4 528.65 127.1 528.65 89.8 528.65 63.45 513.6 L62.85 513.25 62.25 512.9 61.85 512.7 61.65 512.55 61.65 512.7 61.6 511.8 61.6 510.5 61.65 508.55 61.85 508.7" />
        <path stroke="none" fill="#365A66"
            d="M61.85 508.7 Q63.7 485.25 80.75 468.15 94.8 454.15 113.1 450.4 L115.5 449.95 127.1 449 Q134.15 449 140.65 450.3 L143 450.8 Q149.85 452.45 156.1 455.55 165.45 460.2 173.4 468.15 190 484.75 192.25 507.25 L192.4 508.7 192 508.9 190.75 509.6 Q164.4 524.65 127.1 524.65 89.8 524.65 63.45 509.6 L62.85 509.25 62.25 508.9 61.85 508.7" />
        <path stroke="none" fill="#48798A"
            d="M61.85 508.7 L61.65 508.55 Q62.3 482.65 80.75 464.15 94.8 450.15 113.1 446.4 L114.15 446.2 115.5 445.95 127.1 445 Q134.15 445 140.65 446.3 L141.95 446.6 143 446.8 Q149.85 448.45 156.1 451.55 165.45 456.2 173.4 464.15 190 480.75 192.25 503.25 L192.6 508.55 192.4 508.7 192.25 507.25 Q190 484.75 173.4 468.15 165.45 460.2 156.1 455.55 149.85 452.45 143 450.8 L140.65 450.3 Q134.15 449 127.1 449 L115.5 449.95 113.1 450.4 Q94.8 454.15 80.75 468.15 63.7 485.25 61.85 508.7" />
        <path stroke="none" fill="#39606D"
            d="M185.65 540.3 L186.95 541.7 Q193.5 549.25 195.75 557.6 196.95 562.1 196.5 565.6 196 569.8 193.2 572.6 192.15 573.65 190.95 574.35 193.05 570.8 192.5 565.6 L191.75 561.6 Q189.7 554.05 184.1 547.15 L182.7 545.45 185.65 540.3 M65.05 574.35 L62.8 572.6 Q60 569.8 59.5 565.6 59.05 562.1 60.25 557.6 62.3 550.05 67.95 543.1 L69.25 541.55 72.35 546.65 70.9 548.4 Q66.1 554.75 64.25 561.6 63.7 563.7 63.5 565.6 62.95 570.75 65.05 574.35 M141.95 446.6 Q140.25 440.35 137.95 435.65 133.4 426.5 128.05 426.5 122.65 426.5 118.1 435.65 115.8 440.2 114.15 446.2 L113.1 446.4 Q115.05 437.75 118.1 431.65 122.65 422.5 128.05 422.5 133.4 422.5 137.95 431.65 141 437.85 143 446.8 L141.95 446.6" />
        <path stroke="none" fill="#2F4E58"
            d="M141.95 446.6 L140.65 446.3 Q134.15 445 127.1 445 L115.5 445.95 114.15 446.2 Q115.8 440.2 118.1 435.65 122.65 426.5 128.05 426.5 133.4 426.5 137.95 435.65 140.25 440.35 141.95 446.6 M190.95 574.35 L190.3 574.7 Q185.6 577.05 178.25 575.1 171.2 573.25 164.75 568.25 L162.85 566.7 162.1 566.05 Q166.95 562.9 171.4 558.75 L173.4 556.8 Q178.25 551.95 181.9 546.65 L182.7 545.45 184.1 547.15 Q189.7 554.05 191.75 561.6 L192.5 565.6 Q193.05 570.8 190.95 574.35 M93.2 566.7 L92.35 567.4 90.45 568.9 Q84.35 573.35 77.75 575.1 71.35 576.8 67 575.25 65.95 574.9 65.05 574.35 62.95 570.75 63.5 565.6 63.7 563.7 64.25 561.6 66.1 554.75 70.9 548.4 L72.35 546.65 73.65 548.5 Q76.75 552.8 80.75 556.8 L82.8 558.8 Q87.75 563.35 93.2 566.7" />
        <path stroke="none" fill="#FFFFFF"
            d="M167.2 498.35 Q164.4 501.1 160.45 501.1 156.45 501.1 153.65 498.3 150.9 495.55 150.85 491.5 150.85 487.6 153.65 484.85 156.45 482 160.4 481.95 164.4 482.05 167.15 484.8 169.95 487.6 170 491.55 170 495.5 167.2 498.35 M162.85 496.55 Q164.65 494.75 164.65 492.35 164.65 489.8 162.9 488.05 161.15 486.3 158.6 486.3 156.15 486.25 154.35 488.05 L153.95 488.45 Q152.6 490.05 152.65 492.2 152.7 494.75 154.45 496.5 156.2 498.25 158.7 498.25 160.8 498.25 162.4 496.95 L162.85 496.55" />
        <path stroke="none" fill="#5B5B5B"
            d="M162.85 496.55 L162.4 496.95 Q160.8 498.25 158.7 498.25 156.2 498.25 154.45 496.5 152.7 494.75 152.65 492.2 152.6 490.05 153.95 488.45 L154.35 488.05 Q156.15 486.25 158.6 486.3 161.15 486.3 162.9 488.05 164.65 489.8 164.65 492.35 164.65 494.75 162.85 496.55" />
        <path stroke="none" fill="#C3DCE9"
            d="M169.45 480.85 Q176.55 488.15 178.8 496.05 180.95 504.05 176.95 508.05 172.85 512.15 164.9 509.95 156.9 507.8 149.7 500.55 L149.5 500.2 Q145.55 496.3 145.55 490.65 145.6 484.9 149.6 480.85 153.7 476.75 159.5 476.75 165.05 476.8 169.05 480.55 L169.45 480.85 M167.2 498.35 Q170 495.5 170 491.55 169.95 487.6 167.15 484.8 164.4 482.05 160.4 481.95 156.45 482 153.65 484.85 150.85 487.6 150.85 491.5 150.9 495.55 153.65 498.3 156.45 501.1 160.45 501.1 164.4 501.1 167.2 498.35" />
        <path stroke="none" fill="#C3DCE9"
            d="M84.65 480.85 L85.05 480.55 Q89.05 476.8 94.6 476.75 100.4 476.75 104.5 480.85 108.5 484.9 108.55 490.65 108.55 496.3 104.6 500.2 L104.4 500.55 Q97.2 507.8 89.2 509.95 81.25 512.15 77.15 508.05 73.15 504.05 75.3 496.05 77.55 488.15 84.65 480.85 M86.9 498.35 Q89.7 501.1 93.65 501.1 97.65 501.1 100.45 498.3 103.2 495.55 103.25 491.5 103.25 487.6 100.45 484.85 97.65 482 93.7 481.95 89.7 482.05 86.95 484.8 84.15 487.6 84.1 491.55 84.1 495.5 86.9 498.35" />
        <path stroke="none" fill="#FFFFFF"
            d="M86.9 498.35 Q84.1 495.5 84.1 491.55 84.15 487.6 86.95 484.8 89.7 482.05 93.7 481.95 97.65 482 100.45 484.85 103.25 487.6 103.25 491.5 103.2 495.55 100.45 498.3 97.65 501.1 93.65 501.1 89.7 501.1 86.9 498.35 M91.25 496.55 L91.7 496.95 Q93.3 498.25 95.4 498.25 97.9 498.25 99.65 496.5 101.4 494.75 101.45 492.2 101.5 490.05 100.15 488.45 L99.75 488.05 Q97.95 486.25 95.5 486.3 92.95 486.3 91.2 488.05 89.45 489.8 89.45 492.35 89.45 494.75 91.25 496.55" />
        <path stroke="none" fill="#5B5B5B"
            d="M91.25 496.55 Q89.45 494.75 89.45 492.35 89.45 489.8 91.2 488.05 92.95 486.3 95.5 486.3 97.95 486.25 99.75 488.05 L100.15 488.45 Q101.5 490.05 101.45 492.2 101.4 494.75 99.65 496.5 97.9 498.25 95.4 498.25 93.3 498.25 91.7 496.95 L91.25 496.55" />
    </g>
</svg>