<?xml version="1.0" encoding="utf-8"?>
<svg viewBox="60 60 136 149.45" xmlns="http://www.w3.org/2000/svg">
    <g>
        <path stroke="none" fill="#1B8045"
            d="M166.75 71.95 Q171.65 75.45 176.15 79.95 196 99.8 196 128 L196 130 196 130.15 Q195.5 146.3 188.4 159.75 183.7 168.5 176.15 176.1 163 189.2 146.3 193.7 L146.25 193.75 145.25 194 145.25 202.25 Q145.3 205.1 143.2 207.3 L143.05 207.45 Q140.95 209.45 138.05 209.45 135 209.45 133 207.4 L128.05 202.45 123.1 207.4 123 207.45 Q120.9 209.45 117.95 209.45 115.05 209.45 112.95 207.45 L112.8 207.3 Q110.7 205.1 110.75 202.25 L110.75 193.95 109.75 193.7 Q93.05 189.2 79.95 176.1 72.35 168.5 67.65 159.7 60.5 146.3 60.05 130.2 L60 128 Q60 99.8 79.95 79.95 84.45 75.4 89.3 72 106.2 60 128 60 149.85 60 166.7 71.95 L166.75 71.95" />
        <path stroke="none" fill="#31DE7A"
            d="M64.05 130 L64 128 Q64 101.45 82.75 82.75 87 78.5 91.6 75.25 107.5 64 128 64 148.55 64 164.4 75.2 169.05 78.5 173.3 82.75 192 101.45 192 128 L192 130 Q191.3 104.75 173.3 86.75 168.9 82.35 164.1 79 148.35 68 128 68 107.7 68 91.9 79.05 87.1 82.4 82.75 86.75 64.7 104.75 64.05 130" />
        <path stroke="none" fill="#2ECC71"
            d="M64.05 130 Q64.7 104.75 82.75 86.75 87.1 82.4 91.9 79.05 93.6 95.05 102.2 107.05 112.9 122 128 122 143.1 122 153.8 107.05 162.4 95.05 164.1 79 168.9 82.35 173.3 86.75 191.3 104.75 192 130 191.55 145.2 184.85 157.85 L182.85 159.35 182.4 159.7 181.55 160.3 162.1 170.45 160.7 170.95 Q155.25 172.8 149.5 174 L141.25 175.3 136.7 175.75 136.55 175.75 135.55 175.85 128.3 176.05 128 176.05 126.65 176.05 121.45 175.9 119.75 175.8 114.75 175.3 112.7 175.05 106.6 174 Q100.75 172.8 95.35 170.95 83.3 166.8 73.2 159.35 L71.15 157.8 Q64.45 145.2 64.05 130 M120.55 153.4 Q118.95 151.8 116.7 151.8 114.55 151.8 112.95 153.3 L112.8 153.45 Q110.05 156.2 109.15 159.35 108.3 162.45 109.9 164.05 110.55 164.7 111.5 164.95 L114.6 164.75 Q116.95 164.1 119.15 162.35 L120.5 161.15 120.65 161 Q122.15 159.45 122.15 157.25 122.15 155 120.55 153.4 M146.1 164.05 Q147.7 162.45 146.85 159.35 146 156.2 143.2 153.45 L143.05 153.3 Q141.5 151.8 139.3 151.8 137.05 151.8 135.45 153.4 133.85 155 133.85 157.25 133.85 159.45 135.35 161 L135.5 161.15 136.9 162.35 Q139.05 164.1 141.4 164.75 L144.55 164.95 Q145.45 164.7 146.1 164.05" />
        <path stroke="none" fill="#2ABD68"
            d="M184.85 157.85 Q180.45 166.1 173.3 173.25 160.95 185.6 145.25 189.85 L141.25 190.75 141.25 175.3 149.5 174 153.15 177.1 Q155.5 179.05 157.85 175.35 L160.7 170.95 162.1 170.45 181.55 160.3 182.4 159.7 182.85 159.35 184.85 157.85 M114.75 190.75 L110.75 189.8 Q95.1 185.6 82.75 173.25 75.6 166.1 71.15 157.8 L73.2 159.35 Q83.3 166.8 95.35 170.95 L98.15 175.35 Q100.5 179.05 102.85 177.1 L106.6 174 112.7 175.05 114.75 175.3 114.75 190.75 M119.75 175.8 L121.45 175.9 126.65 176.05 128 176.05 128.3 176.05 135.55 175.85 136.55 175.75 128 176.25 119.75 175.8" />
        <path stroke="none" fill="#28BD68"
            d="M91.9 79.05 Q107.7 68 128 68 148.35 68 164.1 79 162.4 95.05 153.8 107.05 143.1 122 128 122 112.9 122 102.2 107.05 93.6 95.05 91.9 79.05 M152 93.5 L152.05 93.45 Q152.35 92.45 152.05 91.55 L152.05 91.5 Q151.6 90.35 150.6 89.95 L150.65 90 Q129.05 78.95 105.45 89.95 L105.5 89.95 Q104.35 90.4 104 91.55 103.65 92.45 104 93.45 104.35 94.45 105.45 95 L105.45 95.05 Q129.05 105.95 150.65 95 151.6 94.5 152 93.5 M113.45 112.55 L113.4 112.55 Q128.65 119.6 142.65 112.55 L142.7 112.5 Q143.55 112.1 143.85 111.2 L143.8 111.3 Q144.1 110.45 143.85 109.75 143.55 108.8 142.7 108.4 L142.65 108.4 Q128.7 101.25 113.5 108.35 112.45 108.75 112.2 109.75 111.9 110.45 112.25 111.3 112.5 112.1 113.45 112.55" />
        <path stroke="none" fill="#31DB79"
            d="M113.45 112.55 Q112.5 112.1 112.25 111.3 111.9 110.45 112.2 109.75 112.45 108.75 113.5 108.35 128.7 101.25 142.65 108.4 L142.7 108.4 Q143.55 108.8 143.85 109.75 144.1 110.45 143.8 111.3 L143.85 111.2 Q143.55 112.1 142.7 112.5 L142.65 112.55 Q128.65 119.6 113.4 112.55 L113.45 112.55 M152 93.5 Q151.6 94.5 150.65 95 129.05 105.95 105.45 95.05 L105.45 95 Q104.35 94.45 104 93.45 103.65 92.45 104 91.55 104.35 90.4 105.5 89.95 L105.45 89.95 Q129.05 78.95 150.65 90 L150.6 89.95 Q151.6 90.35 152.05 91.5 L152.05 91.55 Q152.35 92.45 152.05 93.45 L152 93.5" />
        <path stroke="none" fill="#24A35A"
            d="M 120.55 153.4 C 121.617 154.467 122.15 155.75 122.15 157.25 C 122.15 158.717 121.65 159.967 120.65 161 L 120.5 161.15 L 119.15 162.35 C 117.683 163.517 116.167 164.317 114.6 164.75 L 111.5 164.95 C 110.867 164.783 110.333 164.483 109.9 164.05 C 108.833 162.983 108.583 161.417 109.15 159.35 C 109.75 157.25 110.967 155.283 112.8 153.45 L 112.95 153.3 C 114.017 152.3 115.267 151.8 116.7 151.8 C 118.2 151.8 119.483 152.333 120.55 153.4 M 146.1 164.05 C 145.667 164.483 145.15 164.783 144.55 164.95 L 141.4 164.75 C 139.833 164.317 138.333 163.517 136.9 162.35 L 135.5 161.15 L 135.35 161 C 134.35 159.967 133.85 158.717 133.85 157.25 C 133.85 155.75 134.383 154.467 135.45 153.4 C 136.517 152.333 137.8 151.8 139.3 151.8 C 140.767 151.8 142.017 152.3 143.05 153.3 L 143.2 153.45 C 145.067 155.283 146.283 157.25 146.85 159.35 C 147.417 161.417 147.167 162.983 146.1 164.05" />
        <path stroke="none" fill="#E74C3C"
            d="M128 196.75 L120.25 204.55 Q119.3 205.45 117.95 205.45 116.65 205.45 115.7 204.55 114.75 203.55 114.75 202.25 L114.75 190.75 114.75 175.3 119.75 175.8 128 176.25 128 196.75" />
        <path stroke="none" fill="#FFFFFF"
            d="M95.35 170.95 Q100.75 172.8 106.6 174 L102.85 177.1 Q100.5 179.05 98.15 175.35 L95.35 170.95 M149.5 174 Q155.25 172.8 160.7 170.95 L157.85 175.35 Q155.5 179.05 153.15 177.1 L149.5 174" />
        <path stroke="none" fill="#D24436"
            d="M141.25 190.75 L141.25 202.25 Q141.25 203.55 140.3 204.55 139.35 205.45 138.05 205.45 136.7 205.45 135.8 204.55 L128 196.75 128 176.25 136.55 175.75 136.7 175.75 141.25 175.3 141.25 190.75" />
        <path stroke="none" fill="#FFFFFF"
            d="M179.65 143.8 Q179.65 149.5 175.6 153.4 171.55 157.5 165.85 157.5 160.25 157.5 156.1 153.4 152.15 149.5 152.15 143.8 152.15 138.05 156.1 134.05 160.25 130 165.85 130 171.55 130 175.6 134.05 179.65 138.05 179.65 143.8 M166.85 143.7 Q166.85 140.05 165.9 137.6 164.9 135.1 163.5 135.05 L163.4 135.05 Q162.05 135.1 161.05 137.6 160.05 140.05 160.05 143.7 L160.05 144.55 Q160.15 147.5 161.05 149.65 162.05 152.1 163.4 152.15 L163.5 152.15 Q164.9 152.1 165.9 149.65 166.75 147.5 166.85 144.55 L166.85 143.7 M89.95 143.7 L89.95 144.55 Q90.05 147.5 90.9 149.65 91.9 152.1 93.3 152.15 L93.4 152.15 Q94.7 152.1 95.75 149.65 96.6 147.5 96.7 144.55 L96.75 143.7 Q96.75 140.05 95.75 137.6 94.7 135.1 93.4 135.05 L93.3 135.05 Q91.9 135.1 90.9 137.6 89.95 140.05 89.95 143.7 M77.15 143.8 Q77.15 138.05 81.2 134.05 85.25 130 90.95 130 96.55 130 100.7 134.05 104.65 138.05 104.65 143.8 104.65 149.5 100.7 153.4 96.55 157.5 90.95 157.5 85.25 157.5 81.2 153.4 77.15 149.5 77.15 143.8" />
        <path stroke="none" fill="#5B5B5B"
            d="M166.85 143.7 L166.85 144.55 Q166.75 147.5 165.9 149.65 164.9 152.1 163.5 152.15 L163.4 152.15 Q162.05 152.1 161.05 149.65 160.15 147.5 160.05 144.55 L160.05 143.7 Q160.05 140.05 161.05 137.6 162.05 135.1 163.4 135.05 L163.5 135.05 Q164.9 135.1 165.9 137.6 166.85 140.05 166.85 143.7 M89.95 143.7 Q89.95 140.05 90.9 137.6 91.9 135.1 93.3 135.05 L93.4 135.05 Q94.7 135.1 95.75 137.6 96.75 140.05 96.75 143.7 L96.7 144.55 Q96.6 147.5 95.75 149.65 94.7 152.1 93.4 152.15 L93.3 152.15 Q91.9 152.1 90.9 149.65 90.05 147.5 89.95 144.55 L89.95 143.7" />
    </g>
</svg>