<?xml version="1.0" encoding="utf-8"?>
<svg viewBox="1081.5 204.3415 136 183.6585" xmlns="http://www.w3.org/2000/svg">
    <g>
        <path stroke="none" fill="#857E7E"
            d="M1099.25 225 Q1098.6 206.75 1108.35 204.9 1117.8 201.5 1131.7 218.8 L1132 219.25 Q1142.7 237.25 1145.65 252.1 L1149.5 252 1153.35 252.1 Q1156.25 237.25 1167.05 219.25 L1167.35 218.8 Q1181.2 201.5 1190.65 204.9 L1190.7 204.9 Q1200.4 206.75 1199.75 225 L1199.55 228.65 Q1198.05 245.95 1198.05 257.7 L1198.1 258.1 1198.1 258.65 1198.05 261.8 1198.05 269.8 1197.9 270.9 1197.6 271.9 1197.65 271.95 Q1217.5 291.8 1217.5 320 L1217.5 322 1217.5 322.1 Q1216.75 348.95 1197.65 368.1 1187.25 378.45 1174.7 383.45 L1174.65 383.45 Q1163.05 388 1149.5 388 1136 388 1124.45 383.45 1111.8 378.45 1101.45 368.1 1082.25 349 1081.55 322.2 L1081.5 320 Q1081.5 291.8 1101.45 271.95 L1101.1 270.9 Q1100.95 270.35 1100.95 269.8 L1100.95 261.8 1100.9 258.65 1100.95 258.1 1100.95 257.7 Q1100.95 245.95 1099.5 228.65 L1099.25 225" />
        <path stroke="none" fill="#A8A1A1"
            d="M 1110.15 278.1 L 1110.15 273.9 C 1110.15 267.133 1109.717 258.783 1108.85 248.85 C 1108.017 238.917 1109.7 233.367 1113.9 232.2 C 1118.133 231.033 1123.583 234.6 1130.25 242.9 C 1136.25 253 1140.017 262.183 1141.55 270.45 L 1140 273.4 C 1137.267 277.733 1133.333 280.6 1128.2 282 C 1123.067 283.367 1118.217 282.85 1113.65 280.45 L 1110.15 278.1 M 1188.85 278.1 L 1185.35 280.45 C 1180.783 282.85 1175.933 283.367 1170.8 282 C 1165.667 280.6 1161.733 277.733 1159 273.4 C 1158.367 272.433 1157.85 271.45 1157.45 270.45 C 1158.983 262.183 1162.75 253 1168.75 242.9 C 1175.417 234.6 1180.867 231.033 1185.1 232.2 C 1189.3 233.367 1190.983 238.917 1190.15 248.85 C 1189.283 258.783 1188.85 267.133 1188.85 273.9 L 1188.85 278.1" />
        <path stroke="none" fill="#BDB6B6"
            d="M1188.85 278.1 L1188.85 273.9 Q1188.85 263.75 1190.15 248.85 1191.4 233.95 1185.1 232.2 1178.75 230.45 1168.75 242.9 1159.75 258.05 1157.45 270.45 1156.65 268.5 1156.4 266.55 L1156.3 265.4 Q1156.95 247.95 1170.45 225.3 1182.15 210.7 1189.6 212.75 1195.25 214.3 1195.75 224.85 L1195.55 228.3 Q1194.05 245.8 1194.05 257.7 L1194.1 258.55 1194.05 261.7 1194.05 269.8 Q1192.65 274.85 1188.85 278.1 M1103.25 224.85 Q1103.75 214.3 1109.4 212.75 1116.85 210.7 1128.55 225.3 1142.05 247.95 1142.7 265.4 L1142.6 266.55 Q1142.35 268.5 1141.55 270.45 1139.25 258.05 1130.25 242.9 1120.25 230.45 1113.9 232.2 1107.6 233.95 1108.85 248.85 1110.15 263.75 1110.15 273.9 L1110.15 278.1 Q1106.35 274.85 1104.95 269.8 L1104.95 261.7 1104.9 258.55 1104.95 257.7 Q1104.95 245.8 1103.45 228.3 L1103.25 224.85" />
        <path stroke="none" fill="#CBC3C3"
            d="M 1103.25 224.85 C 1102.917 215.35 1104.967 209.983 1109.4 208.75 C 1114.367 207.383 1120.75 211.567 1128.55 221.3 C 1138.617 238.167 1143.333 252.867 1142.7 265.4 C 1142.267 253.767 1137.55 240.4 1128.55 225.3 C 1120.75 215.567 1114.367 211.383 1109.4 212.75 C 1105.633 213.783 1103.583 217.817 1103.25 224.85 M 1156.3 265.4 C 1155.667 252.867 1160.383 238.167 1170.45 221.3 C 1178.25 211.567 1184.633 207.383 1189.6 208.75 C 1194.033 209.983 1196.083 215.35 1195.75 224.85 C 1195.417 217.817 1193.367 213.783 1189.6 212.75 C 1184.633 211.383 1178.25 215.567 1170.45 225.3 C 1161.45 240.4 1156.733 253.767 1156.3 265.4" />
        <path stroke="none" fill="#DBD9D9"
            d="M1085.55 322 L1085.5 320 Q1085.5 293.45 1104.25 274.75 1111.65 267.35 1120.25 262.9 1133.45 256 1149.5 256 1165.55 256 1178.8 262.85 1187.4 267.35 1194.8 274.75 1213.5 293.45 1213.5 320 L1213.5 322 Q1212.8 296.75 1194.8 278.75 1186.4 270.35 1176.45 265.7 L1172.45 269.1 Q1162.95 276 1149.5 276 1136.05 276 1126.5 269.1 1124.25 267.5 1122.6 265.75 1112.65 270.35 1104.25 278.75 1086.2 296.75 1085.55 322" />
        <path stroke="none" fill="#D2D0D0"
            d="M1085.55 322 Q1086.2 296.75 1104.25 278.75 1112.65 270.35 1122.6 265.75 1124.25 267.5 1126.5 269.1 1136.05 276 1149.5 276 1162.95 276 1172.45 269.1 L1176.45 265.7 Q1186.4 270.35 1194.8 278.75 1212.8 296.75 1213.5 322 1212.8 347.25 1194.8 365.25 1185.05 375 1173.2 379.7 1163 359.75 1149.5 359.75 1136.1 359.75 1125.9 379.7 1114 375 1104.25 365.25 1086.2 347.25 1085.55 322" />
        <path stroke="none" fill="#E5E3E3"
            d="M1173.2 379.7 Q1162.25 384 1149.5 384 1136.8 384 1125.9 379.7 1136.1 359.75 1149.5 359.75 1163 359.75 1173.2 379.7" />
        <path stroke="none" fill="#FFFFFF"
            d="M1184.25 305.25 Q1184.25 301.95 1182 299.8 1179.75 297.65 1176.6 297.65 1173.5 297.65 1171.15 299.8 1168.9 301.95 1168.9 305.25 1168.9 308.4 1171.15 310.55 1173.5 312.85 1176.6 312.85 1179.75 312.85 1182 310.55 1184.25 308.4 1184.25 305.25 M1108.9 305 Q1108.9 299.95 1112.5 296.4 1116.1 292.9 1121.1 292.9 1126.1 292.9 1129.8 296.4 1133.3 299.95 1133.3 305 1133.3 310.05 1129.8 313.5 1126.1 317.15 1121.1 317.15 1116.1 317.15 1112.5 313.5 1108.9 310.05 1108.9 305 M1114.85 305.25 Q1114.85 308.4 1117.1 310.55 1119.25 312.85 1122.45 312.85 1125.6 312.85 1127.85 310.55 1130.1 308.4 1130.1 305.25 1130.1 301.95 1127.85 299.8 1125.6 297.65 1122.45 297.65 1119.25 297.65 1117.1 299.8 1114.85 301.95 1114.85 305.25 M1190.1 305 Q1190.1 310.05 1186.6 313.5 1183 317.15 1177.9 317.15 1172.9 317.15 1169.35 313.5 1165.75 310.05 1165.75 305 1165.75 299.95 1169.35 296.4 1172.9 292.9 1177.9 292.9 1183 292.9 1186.6 296.4 1190.1 299.95 1190.1 305" />
        <path stroke="none" fill="#5B5B5B"
            d="M1114.85 305.25 Q1114.85 301.95 1117.1 299.8 1119.25 297.65 1122.45 297.65 1125.6 297.65 1127.85 299.8 1130.1 301.95 1130.1 305.25 1130.1 308.4 1127.85 310.55 1125.6 312.85 1122.45 312.85 1119.25 312.85 1117.1 310.55 1114.85 308.4 1114.85 305.25 M1184.25 305.25 Q1184.25 308.4 1182 310.55 1179.75 312.85 1176.6 312.85 1173.5 312.85 1171.15 310.55 1168.9 308.4 1168.9 305.25 1168.9 301.95 1171.15 299.8 1173.5 297.65 1176.6 297.65 1179.75 297.65 1182 299.8 1184.25 301.95 1184.25 305.25" />
        <path stroke="none" fill="#FFFFFF"
            d="M1142.65 349.15 Q1139.35 350.7 1135.45 350.7 1128.5 350.7 1123.55 345.75 1118.65 340.85 1118.65 333.9 1118.65 326.9 1123.55 322 1128.5 317.05 1135.45 317.05 L1163.95 317.05 Q1170.65 317.2 1175.4 322 1180.35 326.9 1180.35 333.9 1180.35 340.85 1175.4 345.75 1170.5 350.7 1163.5 350.7 1159.6 350.7 1156.35 349.15 1153.8 347.95 1151.6 345.75 L1149.5 343.25 1147.35 345.75 Q1145.2 347.95 1142.65 349.15" />
        <path stroke="none" fill="#A8A1A1"
            d="M1142.65 349.15 Q1145.2 347.95 1147.35 345.75 L1149.5 343.25 1151.6 345.75 Q1153.8 347.95 1156.35 349.15 1153.25 350.7 1149.5 350.7 1145.75 350.7 1142.65 349.15" />
        <path stroke="none" fill="#FFC4FF"
            d="M1137.6 316.3 L1137.5 314.7 1137.5 313.8 Q1137.75 311.55 1141.1 309.9 1144.8 308.15 1150 308.15 1155.15 308.15 1158.8 309.9 1162.15 311.55 1162.45 313.8 L1162.5 314.7 1162.4 316.45 Q1161.9 314.4 1158.8 312.9 1155.15 311.15 1150 311.15 1144.8 311.15 1141.1 312.9 1138.1 314.35 1137.6 316.3" />
        <path stroke="none" fill="#FFAAFF"
            d="M1137.6 316.3 Q1138.1 314.35 1141.1 312.9 1144.8 311.15 1150 311.15 1155.15 311.15 1158.8 312.9 1161.9 314.4 1162.4 316.45 1161.85 320.5 1158.8 323.45 1155.15 327.15 1150 327.15 1144.8 327.15 1141.1 323.45 1138.1 320.45 1137.6 316.3" />
        <path stroke="none" fill="#A8A1A1"
            d="M1110.05 322.3 Q1110.1 321.95 1110.3 321.8 L1110.8 321.5 Q1119.35 319.85 1129.15 325.2 L1129.6 325.7 1129.6 326.3 1129.3 326.85 1128.7 327.05 Q1120 326.6 1110.3 328.1 L1109.8 328 1109.35 327.55 1109.35 326.95 1110.05 322.3 M1113.6 334.45 L1113.6 334 1113.9 333.6 Q1119.45 329.55 1128.3 330.05 L1128.8 330.25 1129 330.7 1129 331.2 1128.6 331.55 Q1121.35 333.55 1115.75 338.5 L1115.3 338.6 1114.85 338.45 1114.65 338.05 1113.6 334.45 M1185.4 334.45 L1184.35 338.05 1184.15 338.45 1183.7 338.6 1183.25 338.5 Q1177.65 333.55 1170.4 331.55 L1170 331.2 1170 330.7 1170.2 330.25 1170.7 330.05 Q1179.55 329.55 1185.1 333.6 L1185.4 334 1185.4 334.45 M1188.95 322.3 L1189.65 326.95 1189.65 327.55 1189.2 328 1188.7 328.1 Q1179 326.6 1170.3 327.05 L1169.7 326.85 Q1169.4 326.6 1169.4 326.3 L1169.4 325.7 Q1169.55 325.4 1169.85 325.2 1179.65 319.85 1188.2 321.5 L1188.7 321.8 1188.95 322.3" />
    </g>
</svg>