<?xml version="1.0" encoding="utf-8"?>
<svg viewBox="60 636 136 146.0612" xmlns="http://www.w3.org/2000/svg">
    <g>
        <path stroke="none" fill="#624630"
            d="M79.95 655.95 Q87.75 648.05 96.9 643.35 110.95 636 128 636 145.05 636 159.15 643.3 168.3 648.05 176.15 655.95 196 675.8 196 704 L196 706 196 706.1 Q195.25 732.95 176.15 752.1 165.75 762.45 153.2 767.45 L153.15 767.45 Q149.3 768.95 145.25 769.95 143.25 779.15 139.85 780.7 137.55 782.3 134.9 782 131.4 781.75 129.35 779.1 L129.4 779.2 Q128.45 778 128 776.7 127.55 778 126.6 779.2 L126.7 779.1 Q124.65 781.75 121.2 782 118.5 782.35 116.15 780.7 112.75 779.15 110.8 769.95 106.75 768.95 102.95 767.45 90.3 762.45 79.95 752.1 60.75 733 60.05 706.2 L60 704 Q60 675.8 79.95 655.95" />
        <path stroke="none" fill="#B17E58"
            d="M64.05 706 L64 704 Q64 677.45 82.75 658.75 90.15 651.35 98.75 646.9 111.95 640 128 640 144.05 640 157.3 646.85 165.9 651.35 173.3 658.75 192 677.45 192 704 L192 706 Q191.3 680.75 173.3 662.75 164.9 654.35 154.95 649.7 L150.95 653.1 Q141.45 660 128 660 114.55 660 105 653.1 102.75 651.5 101.1 649.75 91.15 654.35 82.75 662.75 64.7 680.75 64.05 706" />
        <path stroke="none" fill="#986C4C"
            d="M64.05 706 Q64.7 680.75 82.75 662.75 91.15 654.35 101.1 649.75 102.75 651.5 105 653.1 114.55 660 128 660 141.45 660 150.95 653.1 L154.95 649.7 Q164.9 654.35 173.3 662.75 191.3 680.75 192 706 191.3 731.25 173.3 749.25 163.55 759 151.7 763.7 145.95 752.45 139.15 747.55 149.35 744.8 157.35 736.8 169.5 724.65 169.5 707.45 169.5 690.25 157.35 678.1 145.2 665.95 128 665.95 110.8 665.95 98.65 678.1 86.5 690.25 86.5 707.45 86.5 724.65 98.65 736.8 106.7 744.85 116.9 747.55 110.15 752.45 104.4 763.7 92.5 759 82.75 749.25 64.7 731.25 64.05 706" />
        <path stroke="none" fill="#916546"
            d="M116.9 747.55 Q106.7 744.85 98.65 736.8 86.5 724.65 86.5 707.45 86.5 690.25 98.65 678.1 110.8 665.95 128 665.95 145.2 665.95 157.35 678.1 169.5 690.25 169.5 707.45 169.5 724.65 157.35 736.8 149.35 744.8 139.15 747.55 133.85 748.95 128 748.95 122.15 748.95 116.9 747.55" />
        <path stroke="none" fill="#845C41"
            d="M151.7 763.7 Q140.75 768 128 768 115.3 768 104.4 763.7 110.15 752.45 116.9 747.55 122.15 748.95 128 748.95 133.85 748.95 139.15 747.55 145.95 752.45 151.7 763.7" />
        <path stroke="none" fill="#FFFFFF"
            d="M94.4 687 Q94.4 681.95 98 678.4 101.6 674.9 106.6 674.9 111.6 674.9 115.3 678.4 118.8 681.95 118.8 687 118.8 692.05 115.3 695.5 111.6 699.15 106.6 699.15 101.6 699.15 98 695.5 94.4 692.05 94.4 687 M100.35 687.25 Q100.35 690.4 102.6 692.55 104.75 694.85 107.95 694.85 111.1 694.85 113.35 692.55 115.6 690.4 115.6 687.25 115.6 683.95 113.35 681.8 111.1 679.65 107.95 679.65 104.75 679.65 102.6 681.8 100.35 683.95 100.35 687.25 M161.6 687 Q161.6 692.05 158.1 695.5 154.5 699.15 149.4 699.15 144.4 699.15 140.85 695.5 137.25 692.05 137.25 687 137.25 681.95 140.85 678.4 144.4 674.9 149.4 674.9 154.5 674.9 158.1 678.4 161.6 681.95 161.6 687 M155.75 687.25 Q155.75 683.95 153.5 681.8 151.25 679.65 148.1 679.65 145 679.65 142.65 681.8 140.4 683.95 140.4 687.25 140.4 690.4 142.65 692.55 145 694.85 148.1 694.85 151.25 694.85 153.5 692.55 155.75 690.4 155.75 687.25" />
        <path stroke="none" fill="#5B5B5B"
            d="M155.75 687.25 Q155.75 690.4 153.5 692.55 151.25 694.85 148.1 694.85 145 694.85 142.65 692.55 140.4 690.4 140.4 687.25 140.4 683.95 142.65 681.8 145 679.65 148.1 679.65 151.25 679.65 153.5 681.8 155.75 683.95 155.75 687.25 M100.35 687.25 Q100.35 683.95 102.6 681.8 104.75 679.65 107.95 679.65 111.1 679.65 113.35 681.8 115.6 683.95 115.6 687.25 115.6 690.4 113.35 692.55 111.1 694.85 107.95 694.85 104.75 694.85 102.6 692.55 100.35 690.4 100.35 687.25" />
        <path stroke="none" fill="#F0EDE7"
            d="M131.65 744 L131.65 733.05 Q131.65 731.8 132.55 730.95 133.4 730.05 134.65 730.05 L141.4 730.05 Q142.2 730.05 142.95 730.5 L144.05 731.6 144.4 733.15 144.15 740.8 144.05 742.6 142.95 741.5 Q142.2 741.05 141.4 741.05 L134.65 741.05 Q133.4 741.05 132.55 741.95 131.7 742.75 131.65 744 M111.95 742.6 L111.9 740.8 111.6 733.15 Q111.6 732.35 111.95 731.6 112.35 730.9 113.05 730.5 113.8 730.05 114.6 730.05 L121.35 730.05 Q122.6 730.05 123.45 730.95 124.35 731.8 124.35 733.05 L124.35 744 Q124.3 742.75 123.45 741.95 122.6 741.05 121.35 741.05 L114.6 741.05 Q113.8 741.05 113.05 741.5 112.35 741.9 111.95 742.6" />
        <path stroke="none" fill="#FFFCF5"
            d="M111.95 742.6 Q112.35 741.9 113.05 741.5 113.8 741.05 114.6 741.05 L121.35 741.05 Q122.6 741.05 123.45 741.95 124.3 742.75 124.35 744 L124.35 774.2 124.35 774.5 Q124.3 775.65 123.5 776.65 122.5 777.95 120.75 778 119.45 778.15 118.3 777.3 113.45 774.5 111.95 742.6 M131.65 744 Q131.7 742.75 132.55 741.95 133.4 741.05 134.65 741.05 L141.4 741.05 Q142.2 741.05 142.95 741.5 L144.05 742.6 Q142.55 774.5 137.7 777.3 136.55 778.15 135.25 778 133.5 777.95 132.5 776.65 131.7 775.65 131.65 774.5 L131.65 774.2 131.65 744" />
        <path stroke="none" fill="#3C6672"
            d="M121.15 736.15 Q117.85 737.7 113.95 737.7 107 737.7 102.05 732.75 97.15 727.85 97.15 720.9 97.15 713.9 102.05 709 107 704.05 113.95 704.05 L142.45 704.05 Q149.15 704.2 153.9 709 158.85 713.9 158.85 720.9 158.85 727.85 153.9 732.75 149 737.7 142 737.7 138.1 737.7 134.85 736.15 132.3 734.95 130.1 732.75 L128 730.25 125.85 732.75 Q123.7 734.95 121.15 736.15" />
        <path stroke="none" fill="#333333"
            d="M115.6 703.3 L115.5 701.7 115.5 700.8 Q115.75 698.55 119.1 696.9 122.8 695.15 128 695.15 133.15 695.15 136.8 696.9 140.15 698.55 140.45 700.8 L140.5 701.7 140.4 703.45 Q139.9 701.4 136.8 699.9 133.15 698.15 128 698.15 122.8 698.15 119.1 699.9 116.1 701.35 115.6 703.3" />
        <path stroke="none" fill="#252525"
            d="M115.6 703.3 Q116.1 701.35 119.1 699.9 122.8 698.15 128 698.15 133.15 698.15 136.8 699.9 139.9 701.4 140.4 703.45 139.85 707.5 136.8 710.45 133.15 714.15 128 714.15 122.8 714.15 119.1 710.45 116.1 707.45 115.6 703.3" />
        <path stroke="none" fill="#252525"
            d="M163.9 721.45 L162.85 725.05 162.65 725.45 162.2 725.6 161.75 725.5 Q156.15 720.55 148.9 718.55 L148.5 718.2 148.5 717.7 148.7 717.25 Q148.9 717.1 149.2 717.05 158.05 716.55 163.6 720.6 L163.9 721 163.9 721.45 M167.45 709.3 L168.15 713.95 168.15 714.55 167.7 715 167.2 715.1 Q157.5 713.6 148.8 714.05 L148.2 713.85 147.9 713.3 147.9 712.7 Q148.05 712.4 148.35 712.2 158.15 706.85 166.7 708.5 166.95 708.55 167.2 708.8 L167.45 709.3 M92.1 721.45 L92.1 721 92.4 720.6 Q97.95 716.55 106.8 717.05 L107.3 717.25 107.5 717.7 107.5 718.2 107.1 718.55 Q99.85 720.55 94.25 725.5 L93.8 725.6 93.35 725.45 93.15 725.05 92.1 721.45 M88.55 709.3 Q88.6 708.95 88.8 708.8 L89.3 708.5 Q97.85 706.85 107.65 712.2 L108.1 712.7 108.1 713.3 107.8 713.85 107.2 714.05 Q98.5 713.6 88.8 715.1 L88.3 715 87.85 714.55 87.85 713.95 88.55 709.3" />
    </g>
</svg>