<?xml version="1.0" encoding="utf-8"?>
<svg viewBox="315.95 426.7 136 153.3" xmlns="http://www.w3.org/2000/svg">
    <g>
        <path stroke="none" fill="#989898"
            d="M316 514.2 L315.95 512 Q315.95 483.85 335.9 463.95 346 453.8 358.25 448.85 359.2 446.95 360.65 445.3 L360.5 442.95 Q360.5 436.2 365.2 431.45 L365.25 431.4 Q370 426.7 376.75 426.7 380.7 426.7 383.95 428.35 387.2 426.7 391.2 426.7 397.9 426.7 402.65 431.4 L402.7 431.45 Q407.4 436.2 407.4 442.95 L407.25 445.25 Q408.7 446.95 409.75 448.9 421.9 453.85 432 463.95 451.95 483.85 451.95 512 L451.95 514 451.95 514.1 Q451.2 540.8 432 560 L432 560.05 Q427.85 564.2 423.35 567.5 406.15 580 383.95 580 360.15 580 342.25 565.7 L342.2 565.7 335.9 560.05 Q316.7 540.85 316 514.2" />
        <path stroke="none" fill="#FFFFFF"
            d="M320 514 L319.95 512 Q319.95 485.5 338.7 466.75 357.45 448 383.95 448 410.4 448 429.15 466.75 447.95 485.5 447.95 512 L447.95 514 Q447.25 488.8 429.15 470.75 410.4 452 383.95 452 357.45 452 338.7 470.75 320.65 488.8 320 514 M421 564.25 Q404.85 576 383.95 576 361.55 576 344.7 562.55 L345.95 560.25 Q361.05 533.9 382.4 533.9 403.75 533.9 418.8 560.25 L421 564.25" />
        <path stroke="none" fill="#F0F0F0"
            d="M421 564.25 L418.8 560.25 Q403.75 533.9 382.4 533.9 361.05 533.9 345.95 560.25 L344.7 562.55 338.7 557.2 Q320.65 539.15 320 514 320.65 488.8 338.7 470.75 357.45 452 383.95 452 410.4 452 429.15 470.75 447.25 488.8 447.95 514 447.25 539.15 429.15 557.2 425.25 561.15 421 564.25" />
        <path stroke="none" fill="#FFFFFF"
            d="M435.2 515 Q435.2 520.7 431.15 524.6 427.1 528.7 421.4 528.7 415.8 528.7 411.65 524.6 407.7 520.7 407.7 515 407.7 509.25 411.65 505.25 415.8 501.2 421.4 501.2 427.1 501.2 431.15 505.25 435.2 509.25 435.2 515 M427.65 514.9 Q427.65 511.25 425.2 508.8 422.65 506.25 419 506.25 415.5 506.25 412.9 508.8 410.35 511.25 410.35 514.9 L410.4 515.75 Q410.65 518.7 412.9 520.85 415.5 523.35 419 523.35 422.65 523.35 425.2 520.85 427.35 518.7 427.6 515.75 L427.65 514.9" />
        <path stroke="none" fill="#5B5B5B"
            d="M427.65 514.9 L427.6 515.75 Q427.35 518.7 425.2 520.85 422.65 523.35 419 523.35 415.5 523.35 412.9 520.85 410.65 518.7 410.4 515.75 L410.35 514.9 Q410.35 511.25 412.9 508.8 415.5 506.25 419 506.25 422.65 506.25 425.2 508.8 427.65 511.25 427.65 514.9" />
        <path stroke="none" fill="#5B5B5B"
            d="M340.25 514.9 Q340.25 511.25 342.7 508.8 345.25 506.25 348.9 506.25 352.4 506.25 355 508.8 357.55 511.25 357.55 514.9 L357.5 515.75 Q357.25 518.7 355 520.85 352.4 523.35 348.9 523.35 345.25 523.35 342.7 520.85 340.55 518.7 340.3 515.75 L340.25 514.9" />
        <path stroke="none" fill="#FFFFFF"
            d="M340.25 514.9 L340.3 515.75 Q340.55 518.7 342.7 520.85 345.25 523.35 348.9 523.35 352.4 523.35 355 520.85 357.25 518.7 357.5 515.75 L357.55 514.9 Q357.55 511.25 355 508.8 352.4 506.25 348.9 506.25 345.25 506.25 342.7 508.8 340.25 511.25 340.25 514.9 M332.7 515 Q332.7 509.25 336.75 505.25 340.8 501.2 346.5 501.2 352.1 501.2 356.25 505.25 360.2 509.25 360.2 515 360.2 520.7 356.25 524.6 352.1 528.7 346.5 528.7 340.8 528.7 336.75 524.6 332.7 520.7 332.7 515" />
        <path stroke="none" fill="#D23007"
            d="M366.3 553.15 Q366.3 549.3 369.75 546.2 L371.8 544.3 Q378.9 537.4 382.35 528.65 382.8 528.2 383.45 528.05 L383.8 528 384.1 528 384.4 528.05 Q385.05 528.2 385.55 528.65 389.05 537.4 396.15 544.35 L398.15 546.2 Q401.6 549.3 401.6 553.15 L401.55 553.3 Q399.6 559.55 391.15 558.55 387.75 558.15 384.95 555.95 L383.95 555.05 382.9 555.95 Q380.15 558.15 376.7 558.55 368.25 559.55 366.35 553.3 L366.3 553.15" />
        <path stroke="none" fill="#C62C05"
            d="M366.3 553.15 L366.35 553.3 Q368.25 559.55 376.7 558.55 380.15 558.15 382.9 555.95 L383.95 555.05 384.95 555.95 Q387.75 558.15 391.15 558.55 399.6 559.55 401.55 553.3 L401.6 553.15 401.3 555.4 Q399.4 563.25 391.05 562 387.7 561.45 384.95 558.7 L383.95 557.6 382.95 558.7 Q380.2 561.45 376.8 562 368.5 563.25 366.6 555.4 366.3 554.25 366.3 553.15" />
        <path stroke="none" fill="#FF9900"
            d="M361.7 524.05 Q362.8 517.1 368 511.8 L370.65 509.55 Q376.45 505.2 384.05 505.2 391.65 505.2 397.45 509.55 L400 511.8 Q405.25 517.1 406.3 524.05 405.8 525.4 404.35 526.65 403.05 521.6 398.85 517.65 L396.5 515.7 Q391.1 511.95 384.05 511.95 377 511.95 371.6 515.7 L369.15 517.65 Q365 521.6 363.7 526.65 362.2 525.45 361.7 524.05" />
        <path stroke="none" fill="#F39100"
            d="M363.7 526.65 Q365 521.6 369.15 517.65 L371.6 515.7 Q377 511.95 384.05 511.95 391.1 511.95 396.5 515.7 L398.85 517.65 Q403.05 521.6 404.35 526.65 402.75 527.95 400 529.05 393.4 531.75 384.05 531.75 374.65 531.75 368 529.05 365.25 527.95 363.7 526.65" />
        <path stroke="none" fill="#E08600"
            d="M363.7 526.65 Q365.25 527.95 368 529.05 374.65 531.75 384.05 531.75 393.4 531.75 400 529.05 402.75 527.95 404.35 526.65 405.8 525.4 406.3 524.05 L406.6 527.75 406.5 529.25 Q406.1 534.25 400 537.85 393.4 541.7 384.05 541.7 374.65 541.7 368 537.85 361.95 534.25 361.5 529.25 L361.45 527.75 Q361.45 525.8 361.7 524.05 362.2 525.45 363.7 526.65" />
        <path stroke="none" fill="#F53707"
            d="M403 450.45 L402.95 450.45 403 450.3 403 450.45 M359.85 460.95 L359.75 458.95 Q359.75 451.95 364.5 446.95 L364.95 446.45 Q365.45 449.55 363.2 452.45 360.35 456.2 359.85 460.95 M364.65 445 L364.5 442.95 Q364.5 437.85 368.05 434.25 371.65 430.7 376.75 430.7 380.85 430.7 383.95 433.05 387.05 430.7 391.2 430.7 396.25 430.7 399.85 434.25 403.4 437.85 403.4 442.95 L403.25 445 Q402.7 441.15 399.85 438.25 396.25 434.7 391.2 434.7 387.05 434.7 383.95 437.05 380.85 434.7 376.75 434.7 371.65 434.7 368.05 438.25 365.2 441.15 364.65 445 M402.95 446.45 L403 446.45 403.4 446.9 Q405.8 449.4 407 452.45 408.15 455.45 408.15 458.95 L408.05 460.95 Q407.55 456.2 404.75 452.45 402.45 449.55 402.95 446.45" />
        <path stroke="none" fill="#D23007"
            d="M408.05 460.95 Q407.6 465.4 405.1 468.95 L405.6 472.2 405.65 473.9 405.6 475.9 Q404.95 483.05 399.7 488.3 393.7 494.3 385.25 494.3 L383.95 494.25 382.65 494.3 Q374.2 494.3 368.25 488.3 363 483.1 362.35 475.95 L362.25 473.9 362.35 472.15 Q362.45 470.5 362.85 468.95 360.3 465.4 359.85 460.95 360.35 456.2 363.2 452.45 365.45 449.55 364.95 446.45 L364.65 445 Q365.2 441.15 368.05 438.25 371.65 434.7 376.75 434.7 380.85 434.7 383.95 437.05 387.05 434.7 391.2 434.7 396.25 434.7 399.85 438.25 402.7 441.15 403.25 445 L402.95 446.45 Q402.45 449.55 404.75 452.45 407.55 456.2 408.05 460.95 M403 450.45 L403 450.3 402.95 450.45 403 450.45" />
    </g>
</svg>