<?xml version="1.0" encoding="utf-8"?>
<svg viewBox="827.7 430.8067 136 149.1933" xmlns="http://www.w3.org/2000/svg">
    <g>
        <path stroke="none" fill="#6D4526"
            d="M943.05 431.95 Q949.65 434.45 951.45 440.5 L951.5 440.75 952.1 443.6 952.1 443.5 Q955.1 458.45 952.4 470.65 L952.4 470.8 952.1 471.9 952.05 472 951.75 473.3 Q963.7 490.15 963.7 512 L963.7 514 963.7 514.1 Q963.25 529.95 956.4 543.1 951.65 552.25 943.8 560.05 923.85 580 895.7 580 867.55 580 847.65 560.05 828.45 540.95 827.75 514.2 L827.7 512 Q827.7 490.15 839.7 473.25 L839.35 471.95 839.4 472 839.1 470.8 839.05 470.65 Q836.4 458.45 839.4 443.6 L839.35 443.65 839.95 440.75 840.05 440.5 Q841.8 434.4 848.45 432 854.95 429.55 862.65 432.35 L862.6 432.35 Q870.15 434.95 874.65 441 L874.7 441.1 875.55 442.35 Q877.5 440.95 879.75 439.7 895 430.9 911.55 439.6 L911.7 439.7 915.9 442.35 916.75 441.05 916.8 440.95 Q921.3 434.95 928.85 432.3 L928.8 432.3 Q936.6 429.5 943.05 431.95" />
        <path stroke="none" fill="#B67340"
            d="M917 451.25 Q917.1 447.45 920 443.35 923.8 438.3 930.15 436.05 936.45 433.8 941.65 435.7 946.3 437.45 947.6 441.65 L948.15 444.3 Q951 458.35 948.5 469.8 L948.2 470.95 Q949.85 460.6 947.4 448.2 L946.8 445.5 Q945.55 441.35 940.85 439.55 935.65 437.65 929.4 439.9 923 442.15 919.2 447.25 917.7 449.25 917 451.25 M874.45 451.25 Q873.7 449.3 872.25 447.3 868.45 442.15 862.1 439.95 855.8 437.7 850.6 439.6 845.9 441.35 844.65 445.5 L844.05 448.25 Q841.6 460.6 843.25 471 L842.95 469.8 Q840.5 458.35 843.3 444.35 L843.85 441.65 Q845.15 437.45 849.8 435.75 855.05 433.85 861.3 436.1 867.65 438.3 871.45 443.4 874.35 447.45 874.45 451.25" />
        <path stroke="none" fill="#8E5A32"
            d="M874.45 451.25 L874.4 452.55 873.85 455.35 873.2 458.25 871.95 462.85 Q871.4 461.25 870.2 459.55 867.45 455.85 862.85 454.25 L854.6 454 Q851.2 455.3 850.3 458.35 L849.9 460.2 Q847.85 470.3 849.65 478.55 L850 479.95 Q850.45 481.85 851.15 483.35 L850.55 483.05 Q845.5 480.35 843.25 471 841.6 460.6 844.05 448.25 L844.65 445.5 Q845.9 441.35 850.6 439.6 855.8 437.7 862.1 439.95 868.45 442.15 872.25 447.3 873.7 449.3 874.45 451.25 M948.2 470.95 Q945.9 480.35 940.85 483.05 L940.3 483.3 941.4 479.9 941.8 478.55 Q943.6 470.3 941.55 460.2 L941.1 458.3 Q940.25 455.25 936.9 453.95 L928.6 454.2 Q924 455.85 921.25 459.5 920.05 461.25 919.5 462.8 L918.2 458.25 917.6 455.3 917.1 452.5 917 451.25 Q917.7 449.25 919.2 447.25 923 442.15 929.4 439.9 935.65 437.65 940.85 439.55 945.55 441.35 946.8 445.5 L947.4 448.2 Q949.85 460.6 948.2 470.95" />
        <path stroke="none" fill="#774B2A"
            d="M940.3 483.3 L939.7 483.6 Q936.3 484.75 932.95 483 929.9 481.45 926.9 477.5 922.65 472.05 919.95 464.2 L919.5 462.8 Q920.05 461.25 921.25 459.5 924 455.85 928.6 454.2 L936.9 453.95 Q940.25 455.25 941.1 458.3 L941.55 460.2 Q943.6 470.3 941.8 478.55 L941.4 479.9 940.3 483.3 M851.15 483.35 Q850.45 481.85 850 479.95 L849.65 478.55 Q847.85 470.3 849.9 460.2 L850.3 458.35 Q851.2 455.3 854.6 454 L862.85 454.25 Q867.45 455.85 870.2 459.55 871.4 461.25 871.95 462.85 L871.55 464.2 Q868.85 472.1 864.55 477.5 861.55 481.45 858.5 483 855.15 484.75 851.75 483.6 L851.15 483.35" />
        <path stroke="none" fill="#BD7841"
            d="M905.7 452.7 L895.7 452 885.7 452.7 Q865.55 455.65 850.45 470.7 832.4 488.8 831.75 514 L831.7 512 Q831.7 485.5 850.45 466.7 869.2 448 895.7 448 922.2 448 940.95 466.7 959.7 485.5 959.7 512 L959.7 514 Q959 488.8 940.95 470.7 925.85 455.65 905.7 452.7" />
        <path stroke="none" fill="#F3DBC8"
            d="M905.7 452.7 Q905 502.85 925.75 541.25 L865.65 541.25 Q886.4 502.85 885.7 452.7 L895.7 452 905.7 452.7" />
        <path stroke="none" fill="#A16639"
            d="M905.7 452.7 Q925.85 455.65 940.95 470.7 959 488.8 959.7 514 959.3 528.9 952.85 541.25 948.35 549.85 940.95 557.2 922.2 576 895.7 576 869.2 576 850.45 557.2 832.4 539.2 831.75 514 832.4 488.8 850.45 470.7 865.55 455.65 885.7 452.7 886.4 502.85 865.65 541.25 L925.75 541.25 Q905 502.85 905.7 452.7" />
        <path stroke="none" fill="#9C6236"
            d="M867.9 460.7 Q866.35 457.75 870.3 452.65 874.25 447.4 881.7 443.15 895.15 435.5 909.7 443.15 917.1 447.4 921.05 452.65 925.05 457.75 923.5 460.65 922.8 458.85 921.05 456.65 917.1 451.4 909.7 447.15 895.15 439.5 881.7 447.15 874.25 451.4 870.3 456.65 868.55 458.85 867.9 460.7" />
        <path stroke="none" fill="#8E5A32"
            d="M867.9 460.7 Q868.55 458.85 870.3 456.65 874.25 451.4 881.7 447.15 895.15 439.5 909.7 447.15 917.1 451.4 921.05 456.65 922.8 458.85 923.5 460.65 L923.4 460.8 Q921.65 463.9 915.05 463 910.6 462.35 905.7 460.1 906.5 462.3 906.75 464.35 L906.8 464.6 Q907 466.5 906.65 467.75 906.35 468.9 905.5 469.4 903.6 470.5 900.35 468 897.85 466 895.7 462.7 893.5 466 891 468 887.8 470.5 885.9 469.4 885.05 468.9 884.7 467.75 884.35 466.5 884.6 464.65 L884.6 464.35 Q884.9 462.3 885.75 460.1 880.8 462.35 876.3 463 869.75 463.9 867.95 460.8 L867.9 460.7" />
        <path stroke="none" fill="#B67340"
            d="M858.25 543.9 L858.2 542 858.2 541 Q858.6 528.4 869.15 519.35 880.15 510 895.7 510 911.2 510 922.2 519.35 932.75 528.4 933.2 541 L933.2 542 933.15 543.9 Q932.3 532 922.2 523.35 911.2 514 895.7 514 880.15 514 869.15 523.35 859.05 532 858.25 543.9" />
        <path stroke="none" fill="#8E5A32"
            d="M858.25 543.9 Q859.05 532 869.15 523.35 880.15 514 895.7 514 911.2 514 922.2 523.35 932.3 532 933.15 543.9 932.4 555.95 922.2 564.6 911.2 574 895.7 574 880.15 574 869.15 564.6 859 555.9 858.25 543.9 M880.1 534.4 Q881.6 535.8 883.65 535.8 885.8 535.8 887.3 534.3 888.8 532.8 888.8 530.65 888.8 529.55 888.45 528.65 L887.4 527.1 887.25 526.95 Q884.7 524.4 881.85 523.55 L881.65 523.5 Q879.45 522.85 878.1 523.55 877.6 523.75 877.2 524.15 L876.6 525 Q875.95 526.25 876.4 528.15 L876.5 528.65 876.95 529.95 Q877.9 532.2 879.95 534.25 L880.1 534.4 M914.2 524.15 L913.35 523.55 Q911.95 522.85 909.75 523.5 L909.5 523.6 Q906.65 524.45 904.15 526.95 L904 527.1 Q903.35 527.8 903 528.65 902.6 529.55 902.6 530.65 902.6 532.8 904.1 534.3 905.6 535.8 907.75 535.8 909.8 535.8 911.3 534.4 L911.45 534.25 Q913.5 532.2 914.45 529.95 L914.9 528.65 915.05 528.15 Q915.45 526.25 914.8 525 L914.2 524.15" />
        <path stroke="none" fill="#704627"
            d="M880.1 534.4 L879.95 534.25 Q877.9 532.2 876.95 529.95 L876.5 528.65 876.4 528.15 Q875.95 526.25 876.6 525 L877.2 524.15 Q877.6 523.75 878.1 523.55 879.45 522.85 881.65 523.5 L881.85 523.55 Q884.7 524.4 887.25 526.95 L887.4 527.1 888.45 528.65 Q888.8 529.55 888.8 530.65 888.8 532.8 887.3 534.3 885.8 535.8 883.65 535.8 881.6 535.8 880.1 534.4 M914.2 524.15 L914.8 525 Q915.45 526.25 915.05 528.15 L914.9 528.65 914.45 529.95 Q913.5 532.2 911.45 534.25 L911.3 534.4 Q909.8 535.8 907.75 535.8 905.6 535.8 904.1 534.3 902.6 532.8 902.6 530.65 902.6 529.55 903 528.65 903.35 527.8 904 527.1 L904.15 526.95 Q906.65 524.45 909.5 523.6 L909.75 523.5 Q911.95 522.85 913.35 523.55 L914.2 524.15" />
        <path stroke="none" fill="#FFFFFF"
            d="M944.2 494.55 Q944.2 499.7 940.55 503.3 936.9 507 931.7 507 926.6 507 922.9 503.3 919.25 499.7 919.25 494.55 919.25 489.35 922.9 485.7 926.6 482.05 931.7 482.05 936.9 482.05 940.55 485.7 944.2 489.35 944.2 494.55 M939.45 494.75 Q939.45 491.15 936.95 488.6 934.45 486.1 930.8 486.1 927.25 486.1 924.65 488.6 922.15 491.15 922.15 494.75 922.15 498.35 924.65 500.8 927.25 503.35 930.8 503.35 934.45 503.35 936.95 500.8 939.45 498.35 939.45 494.75 M851.9 494.75 Q851.9 498.35 854.45 500.8 856.95 503.35 860.6 503.35 864.15 503.35 866.7 500.8 869.25 498.35 869.25 494.75 869.25 491.15 866.7 488.6 864.15 486.1 860.6 486.1 856.95 486.1 854.45 488.6 851.9 491.15 851.9 494.75 M847.2 494.55 Q847.2 489.35 850.85 485.7 854.5 482.05 859.7 482.05 864.8 482.05 868.5 485.7 872.15 489.35 872.15 494.55 872.15 499.7 868.5 503.3 864.8 507 859.7 507 854.5 507 850.85 503.3 847.2 499.7 847.2 494.55" />
        <path stroke="none" fill="#5B5B5B"
            d="M939.45 494.75 Q939.45 498.35 936.95 500.8 934.45 503.35 930.8 503.35 927.25 503.35 924.65 500.8 922.15 498.35 922.15 494.75 922.15 491.15 924.65 488.6 927.25 486.1 930.8 486.1 934.45 486.1 936.95 488.6 939.45 491.15 939.45 494.75 M851.9 494.75 Q851.9 491.15 854.45 488.6 856.95 486.1 860.6 486.1 864.15 486.1 866.7 488.6 869.25 491.15 869.25 494.75 869.25 498.35 866.7 500.8 864.15 503.35 860.6 503.35 856.95 503.35 854.45 500.8 851.9 498.35 851.9 494.75" />
    </g>
</svg>