<?xml version="1.0" encoding="utf-8"?>
<svg viewBox="800.3365 252 190.7269 162.1" xmlns="http://www.w3.org/2000/svg">
    <g>
        <path stroke="none" fill="#857E7E"
            d="M991.05 300.55 Q990.9 305.75 989.45 311.2 L989.4 311.25 989.05 312.55 989.05 312.65 Q981.65 338.55 965.1 354.15 955.4 363.35 945.75 366.1 946.9 370.65 946.75 376.3 L946.35 381.9 Q945.75 386.95 944.45 392.7 944.05 394.6 942.6 396.2 L941.5 397 Q940.25 397.85 938.8 398.15 L937.65 398.2 Q932.05 398.2 929.05 389.35 L929.1 389.35 928 386.5 928 386.45 926.6 383.4 926.55 383.35 925.45 381.4 Q920.05 384 914.25 385.6 911.85 396.1 910.4 407.2 L910.3 407.55 Q910.15 411.1 904 413.05 L903.95 413.05 Q900.45 414.1 895.7 414.1 890.95 414.1 887.45 413.05 L887.35 413.05 Q881.35 411.1 881.15 407.55 L881.1 407.1 Q879.8 395.85 877.7 385.75 871.6 384.15 866 381.4 L864.9 383.35 864.85 383.45 863.45 386.45 863.4 386.5 862.35 389.35 Q859.35 398.2 853.8 398.2 L852.65 398.15 Q851.15 397.85 849.9 397 L848.85 396.2 Q847.35 394.6 847 392.7 L847 392.55 846.95 392.45 Q845.7 386.95 845.15 382 844.75 379 844.65 376.3 844.5 370.7 845.7 366.15 L845.7 366.1 845.65 366.1 Q836 363.3 826.3 354.15 809.75 338.55 802.4 312.65 L802.35 312.55 802 311.2 Q800.5 305.75 800.35 300.55 L800.35 300.5 Q800.05 288.6 806.45 277.6 815.55 261.8 833.2 256.95 L833.25 256.95 Q849.25 252.75 863.75 259.8 878.15 252 895.7 252 913.3 252 927.7 259.8 942.15 252.75 958.2 256.95 975.85 261.8 985 277.6 L984.95 277.6 Q991.35 288.6 991.05 300.5 L991.05 300.55 M868.15 380.05 L868.25 379.95 868.15 380.05" />
        <path stroke="none" fill="#BDB6B6"
            d="M924.1 301.75 L923.9 302.6 Q919.6 319.9 923.8 334.2 928.2 349 939.3 351.95 950.4 354.9 961.65 344.3 972.5 334 977.35 316.95 L977.6 316.1 Q980.55 305 974.8 295.05 969.1 285.15 958.05 282.1 946.9 279.2 937 284.95 927.05 290.7 924.1 301.75 M987.05 300.4 Q986.9 305.2 985.55 310.2 L985.2 311.45 Q978.15 336.3 962.35 351.25 946.05 366.7 929.9 362.4 913.75 358.05 907.35 336.55 904.45 326.75 904.35 315.95 904.45 304.75 907.5 292.6 L907.75 291.35 Q912.05 275.25 926.5 266.95 940.95 258.55 957.15 262.8 973.2 267.2 981.5 281.6 986.75 290.65 987.05 300.4 M887.05 315.95 Q886.95 326.75 884.05 336.55 877.65 358.05 861.5 362.4 845.35 366.7 829.05 351.25 813.25 336.3 806.2 311.45 L805.85 310.2 Q804.5 305.2 804.35 300.4 804.65 290.65 809.9 281.6 818.2 267.2 834.25 262.8 850.45 258.55 864.9 266.95 879.35 275.25 883.65 291.35 L883.9 292.6 Q886.95 304.75 887.05 315.95 M867.3 301.75 Q864.35 290.7 854.4 284.95 844.5 279.2 833.35 282.1 822.3 285.15 816.6 295.05 810.85 305 813.8 316.1 L814.05 316.95 Q818.9 334 829.75 344.3 841 354.9 852.1 351.95 863.2 349 867.6 334.2 871.8 319.9 867.5 302.6 L867.3 301.75" />
        <path stroke="none" fill="#AFA8A8"
            d="M867.3 301.75 L867.5 302.6 Q871.8 319.9 867.6 334.2 863.2 349 852.1 351.95 841 354.9 829.75 344.3 818.9 334 814.05 316.95 L813.8 316.1 Q810.85 305 816.6 295.05 822.3 285.15 833.35 282.1 844.5 279.2 854.4 284.95 864.35 290.7 867.3 301.75 M924.1 301.75 Q927.05 290.7 937 284.95 946.9 279.2 958.05 282.1 969.1 285.15 974.8 295.05 980.55 305 977.6 316.1 L977.35 316.95 Q972.5 334 961.65 344.3 950.4 354.9 939.3 351.95 928.2 349 923.8 334.2 919.6 319.9 923.9 302.6 L924.1 301.75" />
        <path stroke="none" fill="#DBD9D9"
            d="M904.35 315.95 Q904.2 303.85 907.5 290.6 L907.75 289.35 Q912.05 273.25 926.5 264.95 940.95 256.55 957.15 260.8 973.2 265.2 981.5 279.6 987.3 289.6 987.05 300.4 986.75 290.65 981.5 281.6 973.2 267.2 957.15 262.8 940.95 258.55 926.5 266.95 912.05 275.25 907.75 291.35 L907.5 292.6 Q904.45 304.75 904.35 315.95 M887.05 315.95 Q886.95 304.75 883.9 292.6 L883.65 291.35 Q879.35 275.25 864.9 266.95 850.45 258.55 834.25 262.8 818.2 267.2 809.9 281.6 804.65 290.65 804.35 300.4 804.1 289.6 809.9 279.6 818.2 265.2 834.25 260.8 850.45 256.55 864.9 264.95 879.35 273.25 883.65 289.35 L883.9 290.6 Q887.2 303.85 887.05 315.95" />
        <path stroke="none" fill="#DBD9D9"
            d="M959.7 322 Q959 296.75 941 278.75 936.6 274.35 931.8 271 929 269.05 926.05 267.45 L922.9 269.95 Q911.65 278 895.7 278 879.75 278 868.45 269.95 L865.35 267.5 Q862.4 269.1 859.6 271.05 854.8 274.4 850.45 278.75 832.4 296.75 831.75 322 L831.7 320 Q831.7 293.45 850.45 274.75 854.7 270.5 859.3 267.25 861.05 266.05 862.85 264.95 877.45 256 895.7 256 914 256 928.6 264.9 L932.1 267.2 Q936.75 270.5 941 274.75 959.7 293.45 959.7 320 L959.7 322" />
        <path stroke="none" fill="#D2D0D0"
            d="M959.7 322 Q959.25 337.2 952.55 349.85 950.6 353.55 948.1 357 L948.05 357 Q944.9 361.3 940.95 365.25 L936.3 369.55 Q934.25 371.25 932.1 372.75 916.2 384 895.7 384 875.15 384 859.3 372.8 L855.2 369.65 850.4 365.25 Q842.8 357.65 838.3 348.8 L832.75 332.1 832.75 331.9 832.55 330.8 832.5 330.55 832.45 330.05 832.35 329.5 832.2 328.25 832.2 328.05 832.1 327.45 832.1 327.2 832.05 327 832.05 326.75 832 326.45 831.95 325.8 831.95 325.55 831.9 325.25 831.75 322 Q832.4 296.75 850.45 278.75 854.8 274.4 859.6 271.05 862.4 269.1 865.35 267.5 L868.45 269.95 Q879.75 278 895.7 278 911.65 278 922.9 269.95 L926.05 267.45 Q929 269.05 931.8 271 936.6 274.35 941 278.75 959 296.75 959.7 322" />
        <path stroke="none" fill="#FFFCF5"
            d="M853.35 394.2 Q852.55 394.05 851.9 393.5 L851.75 393.45 Q851.05 392.7 850.9 391.8 849.65 386.35 849.1 381.5 L848.65 376.15 Q848.05 356.55 866.25 350.85 869.7 354 871.45 357.55 L872.1 359.05 869.2 361.95 Q855.85 375.75 853.75 390.3 L853.35 394.2 M938.05 394.2 L937.7 390.3 Q935.55 375.75 922.2 361.95 L919.3 359.05 920 357.55 Q921.7 354 925.15 350.85 943.35 356.55 942.75 376.15 L942.35 381.45 Q941.8 386.3 940.5 391.8 940.35 392.7 939.65 393.45 L939.5 393.5 Q938.85 394.05 938.05 394.2" />
        <path stroke="none" fill="#CDCBCB"
            d="M872.1 359.05 L871.45 357.55 Q869.7 354 866.25 350.85 871.55 349.05 873.75 342.5 L881.2 356.35 883.3 360.15 883.3 360.25 883.25 360.45 883.2 360.5 882.85 361.95 882.8 362 881.75 363 880.9 363.6 876.4 366.15 Q874.65 367.1 873.1 368.2 873.65 363.3 872.1 359.05 M918.3 368.2 L915 366.15 910.55 363.6 909.65 363 908.6 362 908.55 361.95 Q908.15 361.25 908.2 360.5 L908.15 360.45 908.1 360.25 908.1 360.15 910.2 356.35 917.65 342.5 Q919.85 349.05 925.15 350.85 921.7 354 920 357.55 L919.3 359.05 Q917.75 363.3 918.3 368.2" />
        <path stroke="none" fill="#F0EDE7"
            d="M918.3 368.2 Q917.75 363.3 919.3 359.05 L922.2 361.95 Q935.55 375.75 937.7 390.3 L938.05 394.2 Q934.8 393.85 932.85 388.05 L931.7 384.95 930.1 381.5 Q928.55 378.6 926.7 376.15 923.85 372.3 920.15 369.45 L918.3 368.2 M853.35 394.2 L853.75 390.3 Q855.85 375.75 869.2 361.95 L872.1 359.05 Q873.65 363.3 873.1 368.2 L871.25 369.45 Q867.4 372.45 864.45 376.45 862.75 378.8 861.35 381.5 860.45 383.15 859.7 384.95 L858.55 388.05 Q856.6 393.85 853.35 394.2 M881.2 356.35 L882.9 359 882.95 359 883.3 360.15 881.2 356.35 M908.1 360.15 Q908.2 359.45 908.45 359 L908.5 359 Q909.3 357.55 910.2 356.35 L908.1 360.15" />
        <path stroke="none" fill="#000000" fill-opacity="0.050980392156862744"
            d="M880.9 363.6 L881.2 364 882.9 365.85 882.95 365.85 883.3 366.65 883.3 366.7 883.25 366.85 883.2 366.85 882.85 367.9 882.8 367.9 881.75 368.6 876.4 370.8 Q874.65 371.45 873.1 372.25 872.15 372.6 871.25 373.1 868.15 374.75 865.65 376.9 L864.45 376.45 Q867.4 372.45 871.25 369.45 L873.1 368.2 Q874.65 367.1 876.4 366.15 L880.9 363.6 M918.3 368.2 L920.15 369.45 Q923.85 372.3 926.7 376.15 L925.6 376.8 Q923.15 374.7 920.15 373.1 919.25 372.6 918.3 372.25 916.75 371.45 915 370.8 L909.65 368.6 908.6 367.9 908.55 367.9 Q908.15 367.4 908.2 366.85 L908.15 366.85 908.1 366.7 908.1 366.65 Q908.2 366.15 908.45 365.85 L908.5 365.85 910.2 364 910.55 363.6 915 366.15 918.3 368.2" />
        <path stroke="none" fill="#E7E5E5"
            d="M871.6 352.85 L871.2 351.5 Q869 342.6 875.4 335.3 883 327 895.7 327 908.45 327 915.85 335.3 922.45 342.6 920.15 351.5 L919.85 352.85 Q918.6 350.5 915.85 348.35 908.45 342.55 895.7 342.55 883 342.55 875.4 348.35 872.7 350.5 871.6 352.85" />
        <path stroke="none" fill="#DBD9D9"
            d="M871.6 352.85 Q872.7 350.5 875.4 348.35 883 342.55 895.7 342.55 908.45 342.55 915.85 348.35 918.6 350.5 919.85 352.85 914.3 367.35 910.7 383 908 394.5 906.4 406.65 906.05 408.2 902.8 409.2 899.8 410.1 895.7 410.1 891.6 410.1 888.55 409.2 885.4 408.2 885.05 406.65 883.6 394.1 881.2 383 877.5 366.25 871.6 352.85 M883.55 359 L883.5 359 Q896.2 364.85 907.9 359 L907.95 358.95 Q908.65 358.65 908.9 357.85 L908.9 357.95 Q909.15 357.25 908.9 356.65 908.65 355.85 907.95 355.55 L907.9 355.55 Q896.25 349.6 883.55 355.5 882.7 355.8 882.5 356.65 882.25 357.25 882.5 357.95 882.75 358.65 883.55 359" />
        <path stroke="none" fill="#CDCBCB"
            d="M883.55 359 Q882.75 358.65 882.5 357.95 882.25 357.25 882.5 356.65 882.7 355.8 883.55 355.5 896.25 349.6 907.9 355.55 L907.95 355.55 Q908.65 355.85 908.9 356.65 909.15 357.25 908.9 357.95 L908.9 357.85 Q908.65 358.65 907.95 358.95 L907.9 359 Q896.2 364.85 883.5 359 L883.55 359" />
        <path stroke="none" fill="#FFFFFF"
            d="M854.65 330.5 Q854.65 333.05 856.45 334.85 858.3 336.65 860.95 336.65 863.5 336.65 865.4 334.85 867.25 333.05 867.25 330.5 867.25 327.85 865.4 326.05 863.5 324.2 860.95 324.2 858.3 324.2 856.45 326.05 854.65 327.85 854.65 330.5 M849.15 329.3 Q849.15 325.1 852.1 322.2 855.05 319.25 859.2 319.25 863.3 319.25 866.3 322.2 869.2 325.1 869.2 329.3 869.2 333.45 866.3 336.3 863.3 339.3 859.2 339.3 855.05 339.3 852.1 336.3 849.15 333.45 849.15 329.3 M942.25 329.3 Q942.25 333.45 939.3 336.3 936.35 339.3 932.2 339.3 928.1 339.3 925.1 336.3 922.2 333.45 922.2 329.3 922.2 325.1 925.1 322.2 928.1 319.25 932.2 319.25 936.35 319.25 939.3 322.2 942.25 325.1 942.25 329.3 M936.75 330.5 Q936.75 327.85 934.95 326.05 933.1 324.2 930.45 324.2 927.9 324.2 926 326.05 924.15 327.85 924.15 330.5 924.15 333.05 926 334.85 927.9 336.65 930.45 336.65 933.1 336.65 934.95 334.85 936.75 333.05 936.75 330.5" />
        <path stroke="none" fill="#5B5B5B"
            d="M936.75 330.5 Q936.75 333.05 934.95 334.85 933.1 336.65 930.45 336.65 927.9 336.65 926 334.85 924.15 333.05 924.15 330.5 924.15 327.85 926 326.05 927.9 324.2 930.45 324.2 933.1 324.2 934.95 326.05 936.75 327.85 936.75 330.5 M854.65 330.5 Q854.65 327.85 856.45 326.05 858.3 324.2 860.95 324.2 863.5 324.2 865.4 326.05 867.25 327.85 867.25 330.5 867.25 333.05 865.4 334.85 863.5 336.65 860.95 336.65 858.3 336.65 856.45 334.85 854.65 333.05 854.65 330.5" />
    </g>
</svg>