<?xml version="1.0" encoding="utf-8"?>
<svg viewBox="1011.45 409.9623 276.1 170.0377" xmlns="http://www.w3.org/2000/svg">
    <g>
        <path stroke="none" fill="#6D4526"
            d="M1277.05 410.05 Q1281.9 410.5 1284.9 414.4 L1284.85 414.35 Q1287.35 417.5 1287.4 421.35 L1287.55 429.2 1287.55 429.25 Q1287.45 434.3 1286.85 439.15 L1286.85 439.2 Q1285.7 447.25 1283.2 454.6 1276.2 474.9 1258.2 490.25 L1258.2 490.3 Q1242.5 503.45 1217.3 506.35 L1217.5 512 1217.5 514 1217.5 514.1 Q1217.05 529.95 1210.2 543.1 1205.45 552.25 1197.6 560.05 1177.65 580 1149.5 580 1121.35 580 1101.45 560.05 1082.25 540.95 1081.55 514.2 L1081.5 512 1081.7 506.35 Q1056.5 503.45 1040.85 490.3 L1040.8 490.25 Q1022.8 474.9 1015.85 454.6 1013.3 447.25 1012.2 439.2 L1012.2 439.15 Q1011.55 434.3 1011.45 429.25 L1011.45 429.2 1011.6 421.35 Q1011.65 417.5 1014.15 414.35 L1014.15 414.4 Q1017.1 410.5 1022 410.05 L1021.9 410.05 Q1026.6 409.5 1030.35 412.4 1034.2 415.35 1034.8 420.15 1035.65 427.1 1037.2 433.85 1037.65 431 1039.75 428.55 1042.6 424.75 1047.35 424.25 1052.2 423.65 1055.95 426.65 L1055.9 426.6 Q1059.75 429.6 1060.3 434.35 1060.85 439.05 1061.75 443.7 L1063 441.75 1063.05 441.65 Q1066 437.9 1070.8 437.4 L1070.7 437.4 Q1075.5 436.7 1079.35 439.7 L1079.4 439.75 Q1082.95 442.55 1083.7 446.9 L1083.9 446.8 1083.95 446.75 Q1090.65 443.05 1095.55 445.35 L1095.95 445.55 1098.15 446.8 Q1105.4 451 1110.15 456.45 1116.9 451.5 1124.5 448.55 L1124.5 447.45 Q1124.5 443 1127.6 439.85 1130.7 436.65 1135.2 436.65 L1163.8 436.65 Q1168.25 436.65 1171.4 439.85 L1171.35 439.85 Q1174.5 443 1174.5 447.45 L1174.5 448.55 Q1182.1 451.5 1188.9 456.45 1193.65 451 1200.9 446.8 L1200.95 446.8 1203.15 445.55 1203.55 445.35 Q1208.4 443.05 1215.15 446.75 L1215.2 446.8 1215.35 446.85 Q1216.05 442.55 1219.6 439.75 L1219.65 439.7 Q1223.5 436.7 1228.35 437.4 L1228.2 437.4 Q1233 437.9 1236 441.65 L1236.05 441.75 1237.3 443.7 1238.75 434.35 Q1239.25 429.6 1243.1 426.6 L1243.05 426.65 Q1246.8 423.65 1251.65 424.25 1256.4 424.75 1259.3 428.55 1261.35 431 1261.8 433.85 1263.35 427.1 1264.25 420.15 1264.8 415.35 1268.65 412.4 L1268.7 412.4 Q1272.4 409.5 1277.1 410.05 L1277.05 410.05" />
        <path stroke="none" fill="#774B2A"
            d="M1194.5 472.95 Q1198.1 468.9 1203.5 465.75 1204.35 465.3 1205.25 464.8 1208.05 463.65 1212 465.75 1216.3 468.25 1219.3 473.5 1221.25 476.8 1221.9 480.05 L1220.6 480.8 Q1212.7 485.35 1205.1 486.4 1200.95 479.35 1194.8 473.2 L1194.5 472.95 M1104.55 472.95 L1104.25 473.2 Q1098.1 479.35 1093.95 486.4 1086.35 485.35 1078.45 480.8 L1077.15 480.05 Q1077.8 476.8 1079.75 473.5 1082.75 468.25 1087.05 465.75 1091 463.65 1093.8 464.8 L1095.55 465.75 Q1100.95 468.9 1104.55 472.95" />
        <path stroke="none" fill="#8E5A32"
            d="M1104.55 472.95 Q1100.95 468.9 1095.55 465.75 L1093.8 464.8 Q1091 463.65 1087.05 465.75 1082.75 468.25 1079.75 473.5 1077.8 476.8 1077.15 480.05 L1076.4 479.55 Q1073.95 477.7 1073.5 473.6 1074 468.65 1076.95 463.6 1080.6 457.25 1085.85 454.25 1090.6 451.65 1094 453.05 L1096.15 454.25 Q1105.75 459.8 1110.55 467.65 1107.45 470.05 1104.55 472.95 M1188.5 467.7 Q1193.25 459.85 1202.9 454.25 L1205.05 453.05 Q1208.45 451.65 1213.2 454.25 1218.45 457.25 1222.1 463.6 1225.05 468.65 1225.6 473.6 1225.1 477.7 1222.65 479.55 L1221.9 480.05 Q1221.25 476.8 1219.3 473.5 1216.3 468.25 1212 465.75 1208.05 463.65 1205.25 464.8 1204.35 465.3 1203.5 465.75 1198.1 468.9 1194.5 472.95 L1188.5 467.7" />
        <path stroke="none" fill="#B67340"
            d="M1188.5 467.7 L1187.9 467.2 1186.95 466.45 1187.7 465.05 Q1192.45 456.3 1202.9 450.25 L1205.05 449.05 Q1208.45 447.65 1213.2 450.25 1218.45 453.25 1222.1 459.6 1225.75 465.85 1225.7 471.85 L1225.6 473.6 Q1225.05 468.65 1222.1 463.6 1218.45 457.25 1213.2 454.25 1208.45 451.65 1205.05 453.05 L1202.9 454.25 Q1193.25 459.85 1188.5 467.7 M1073.5 473.6 L1073.35 471.85 Q1073.3 465.85 1076.95 459.6 1080.6 453.25 1085.85 450.25 1090.6 447.65 1094 449.05 L1096.15 450.25 Q1106.6 456.3 1111.35 465.05 L1112.1 466.45 1110.55 467.65 Q1105.75 459.8 1096.15 454.25 L1094 453.05 Q1090.6 451.65 1085.85 454.25 1080.6 457.25 1076.95 463.6 1074 468.65 1073.5 473.6" />
        <path stroke="none" fill="#D49562"
            d="M1257.5 444.75 Q1257.8 448.8 1259.65 448.6 1261.65 448.15 1264.3 440.45 1266.9 430.75 1268.2 420.65 1268.55 417.5 1271.1 415.55 1273.55 413.65 1276.65 414 1279.8 414.3 1281.7 416.8 1283.4 418.95 1283.4 421.55 L1283.55 429.15 1283.4 425.55 Q1283.4 422.95 1281.7 420.8 1279.8 418.3 1276.65 418 1273.55 417.65 1271.1 419.55 1268.55 421.5 1268.2 424.65 1266.9 434.75 1264.3 444.45 1261.65 452.15 1259.65 452.6 1257.05 452.9 1257.5 444.75 M1195.75 496.9 Q1195.15 494.95 1195.75 492.9 1196.55 489.85 1199.4 488.35 L1199.45 488.3 Q1213.9 477.9 1216.5 463.15 1218.3 455.65 1219.2 447.95 1219.6 444.85 1222.1 442.85 1224.6 440.9 1227.75 441.35 1230.9 441.7 1232.85 444.15 1234.75 446.65 1234.45 449.8 L1234.25 451 Q1233.85 449.45 1232.85 448.15 1230.9 445.7 1227.75 445.35 1224.6 444.9 1222.1 446.85 1219.6 448.85 1219.2 451.95 1218.3 459.65 1216.5 467.15 1213.9 481.9 1199.45 492.3 L1199.4 492.35 Q1196.55 493.85 1195.75 496.9 M1233.9 458.55 Q1234.1 460.8 1235.1 461 1236.7 461.4 1238.8 454.65 1241.5 444.95 1242.7 434.8 1243.05 431.7 1245.55 429.75 1248 427.8 1251.15 428.2 1254.3 428.55 1256.2 431.1 1258.3 433.6 1257.85 436.7 L1257.75 438.05 Q1257.35 436.45 1256.2 435.1 1254.3 432.55 1251.15 432.2 1248 431.8 1245.55 433.75 1243.05 435.7 1242.7 438.8 1241.5 448.95 1238.8 458.65 1236.7 465.4 1235.1 465 1233.45 464.7 1233.9 458.55 M1065.1 458.55 Q1065.55 464.7 1063.9 465 1062.3 465.4 1060.2 458.65 1057.5 448.95 1056.3 438.8 1055.95 435.7 1053.45 433.75 1051 431.8 1047.85 432.2 1044.7 432.55 1042.8 435.1 1041.65 436.45 1041.25 438.05 L1041.15 436.7 Q1040.7 433.6 1042.8 431.1 1044.7 428.55 1047.85 428.2 1051 427.8 1053.45 429.75 1055.95 431.7 1056.3 434.8 1057.5 444.95 1060.2 454.65 1062.3 461.4 1063.9 461 1064.9 460.8 1065.1 458.55 M1041.5 444.75 Q1041.95 452.9 1039.35 452.6 1037.35 452.15 1034.7 444.45 1032.1 434.75 1030.8 424.65 1030.45 421.5 1027.9 419.55 1025.45 417.65 1022.35 418 1019.2 418.3 1017.3 420.8 1015.6 422.95 1015.6 425.55 L1015.45 429.15 Q1015.4 425.4 1015.6 421.55 1015.6 418.95 1017.3 416.8 1019.2 414.3 1022.35 414 1025.45 413.65 1027.9 415.55 1030.45 417.5 1030.8 420.65 1032.1 430.75 1034.7 440.45 1037.35 448.15 1039.35 448.6 1041.2 448.8 1041.5 444.75 M1103.25 496.9 Q1102.45 493.85 1099.6 492.35 L1099.55 492.3 Q1085.1 481.9 1082.5 467.15 1080.7 459.65 1079.8 451.95 1079.4 448.85 1076.9 446.85 1074.4 444.9 1071.25 445.35 1068.1 445.7 1066.15 448.15 1065.15 449.45 1064.75 451 L1064.55 449.8 Q1064.25 446.65 1066.15 444.15 1068.1 441.7 1071.25 441.35 1074.4 440.9 1076.9 442.85 1079.4 444.85 1079.8 447.95 1080.7 455.65 1082.5 463.15 1085.1 477.9 1099.55 488.3 L1099.6 488.35 Q1102.45 489.85 1103.25 492.9 1103.85 494.95 1103.25 496.9" />
        <path stroke="none" fill="#BF8658"
            d="M1257.5 444.75 Q1257.05 452.9 1259.65 452.6 1261.65 452.15 1264.3 444.45 1266.9 434.75 1268.2 424.65 1268.55 421.5 1271.1 419.55 1273.55 417.65 1276.65 418 1279.8 418.3 1281.7 420.8 1283.4 422.95 1283.4 425.55 L1283.55 429.15 Q1283.45 434 1282.85 438.65 1243.95 493.15 1197.1 499.7 L1196.45 498.75 Q1195.95 497.9 1195.75 497 L1195.75 496.9 Q1196.55 493.85 1199.4 492.35 L1199.45 492.3 Q1213.9 481.9 1216.5 467.15 1218.3 459.65 1219.2 451.95 1219.6 448.85 1222.1 446.85 1224.6 444.9 1227.75 445.35 1230.9 445.7 1232.85 448.15 1233.85 449.45 1234.25 451 L1234.1 452 Q1233.65 456.3 1233.9 458.55 1233.45 464.7 1235.1 465 1236.7 465.4 1238.8 458.65 1241.5 448.95 1242.7 438.8 1243.05 435.7 1245.55 433.75 1248 431.8 1251.15 432.2 1254.3 432.55 1256.2 435.1 1257.35 436.45 1257.75 438.05 L1257.55 439.55 Q1257.3 442.7 1257.5 444.75 M1041.25 438.05 Q1041.65 436.45 1042.8 435.1 1044.7 432.55 1047.85 432.2 1051 431.8 1053.45 433.75 1055.95 435.7 1056.3 438.8 1057.5 448.95 1060.2 458.65 1062.3 465.4 1063.9 465 1065.55 464.7 1065.1 458.55 1065.35 456.3 1064.9 452 L1064.75 451 Q1065.15 449.45 1066.15 448.15 1068.1 445.7 1071.25 445.35 1074.4 444.9 1076.9 446.85 1079.4 448.85 1079.8 451.95 1080.7 459.65 1082.5 467.15 1085.1 481.9 1099.55 492.3 L1099.6 492.35 Q1102.45 493.85 1103.25 496.9 L1103.25 497 1102.55 498.75 1101.9 499.7 Q1055.05 493.15 1016.15 438.65 1015.55 434 1015.45 429.15 L1015.6 425.55 Q1015.6 422.95 1017.3 420.8 1019.2 418.3 1022.35 418 1025.45 417.65 1027.9 419.55 1030.45 421.5 1030.8 424.65 1032.1 434.75 1034.7 444.45 1037.35 452.15 1039.35 452.6 1041.95 452.9 1041.5 444.75 L1041.45 439.55 1041.25 438.05" />
        <path stroke="none" fill="#B47E52"
            d="M1282.85 438.65 Q1281.8 446.3 1279.4 453.3 1272.75 472.6 1255.6 487.2 1239.3 500.8 1212.15 502.8 L1201 502.35 Q1198.5 501.65 1197.1 499.7 1243.95 493.15 1282.85 438.65 M1016.15 438.65 Q1055.05 493.15 1101.9 499.7 1100.5 501.65 1098 502.35 L1086.85 502.8 Q1059.7 500.8 1043.4 487.2 1026.25 472.6 1019.6 453.3 1017.2 446.3 1016.15 438.65" />
        <path stroke="none" fill="#BD7841"
            d="M1159.5 452.7 L1149.5 452 1139.5 452.7 Q1119.35 455.65 1104.25 470.7 1086.2 488.8 1085.55 514 L1085.5 512 Q1085.5 485.5 1104.25 466.7 1123 448 1149.5 448 1176 448 1194.75 466.7 1213.5 485.5 1213.5 512 L1213.5 514 Q1212.8 488.8 1194.75 470.7 1179.65 455.65 1159.5 452.7" />
        <path stroke="none" fill="#AA6C3B"
            d="M1159.5 452.7 Q1158.8 502.85 1179.55 541.25 L1119.45 541.25 Q1140.2 502.85 1139.5 452.7 L1149.5 452 1159.5 452.7" />
        <path stroke="none" fill="#A16639"
            d="M1159.5 452.7 Q1179.65 455.65 1194.75 470.7 1212.8 488.8 1213.5 514 1213.1 528.9 1206.65 541.25 1202.15 549.85 1194.75 557.2 1176 576 1149.5 576 1123 576 1104.25 557.2 1086.2 539.2 1085.55 514 1086.2 488.8 1104.25 470.7 1119.35 455.65 1139.5 452.7 1140.2 502.85 1119.45 541.25 L1179.55 541.25 Q1158.8 502.85 1159.5 452.7" />
        <path stroke="none" fill="#BD7841"
            d="M1128.5 451.2 L1128.5 447.45 Q1128.5 444.65 1130.45 442.65 1132.4 440.65 1135.2 440.65 L1163.8 440.65 Q1166.55 440.65 1168.5 442.65 1170.5 444.65 1170.5 447.45 L1170.5 451.2 Q1170.45 449.95 1170 448.85 1169.5 447.65 1168.5 446.65 1166.55 444.65 1163.8 444.65 L1135.2 444.65 Q1132.4 444.65 1130.45 446.65 1129.5 447.65 1129 448.8 1128.55 449.9 1128.5 451.2" />
        <path stroke="none" fill="#AA6C3B"
            d="M1128.5 451.2 Q1128.55 449.9 1129 448.8 1129.5 447.65 1130.45 446.65 1132.4 444.65 1135.2 444.65 L1163.8 444.65 Q1166.55 444.65 1168.5 446.65 1169.5 447.65 1170 448.85 1170.45 449.95 1170.5 451.2 L1170.5 463.1 Q1170.4 465.8 1168.5 467.65 L1164.2 471.2 Q1149.5 481.2 1135.05 471.35 1132.4 469.65 1130.45 467.65 1128.6 465.8 1128.5 463.1 L1128.5 451.2" />
        <path stroke="none" fill="#B67340"
            d="M1112.05 543.9 L1112 542 1112 541 Q1112.4 528.4 1122.95 519.35 1133.95 510 1149.5 510 1165 510 1176 519.35 1186.55 528.4 1187 541 L1187 542 1186.95 543.9 Q1186.1 532 1176 523.35 1165 514 1149.5 514 1133.95 514 1122.95 523.35 1112.85 532 1112.05 543.9" />
        <path stroke="none" fill="#8E5A32"
            d="M1186.95 543.9 Q1186.2 555.95 1176 564.6 1165 574 1149.5 574 1133.95 574 1122.95 564.6 1112.8 555.9 1112.05 543.9 1112.85 532 1122.95 523.35 1133.95 514 1149.5 514 1165 514 1176 523.35 1186.1 532 1186.95 543.9 M1133.9 534.4 Q1135.4 535.8 1137.45 535.8 1139.6 535.8 1141.1 534.3 1142.6 532.8 1142.6 530.65 1142.6 529.55 1142.25 528.65 L1141.2 527.1 1141.05 526.95 Q1138.5 524.4 1135.65 523.55 L1135.45 523.5 Q1133.25 522.85 1131.9 523.55 1131.4 523.75 1131 524.15 L1130.4 525 Q1129.75 526.25 1130.2 528.15 L1130.3 528.65 1130.75 529.95 Q1131.7 532.2 1133.75 534.25 L1133.9 534.4 M1168 524.15 L1167.15 523.55 Q1165.75 522.85 1163.55 523.5 L1163.3 523.6 Q1160.45 524.45 1157.95 526.95 L1157.8 527.1 Q1157.15 527.8 1156.8 528.65 1156.4 529.55 1156.4 530.65 1156.4 532.8 1157.9 534.3 1159.4 535.8 1161.55 535.8 1163.6 535.8 1165.1 534.4 L1165.25 534.25 Q1167.3 532.2 1168.25 529.95 L1168.7 528.65 1168.85 528.15 Q1169.25 526.25 1168.6 525 L1168 524.15" />
        <path stroke="none" fill="#704627"
            d="M1168 524.15 L1168.6 525 Q1169.25 526.25 1168.85 528.15 L1168.7 528.65 1168.25 529.95 Q1167.3 532.2 1165.25 534.25 L1165.1 534.4 Q1163.6 535.8 1161.55 535.8 1159.4 535.8 1157.9 534.3 1156.4 532.8 1156.4 530.65 1156.4 529.55 1156.8 528.65 1157.15 527.8 1157.8 527.1 L1157.95 526.95 Q1160.45 524.45 1163.3 523.6 L1163.55 523.5 Q1165.75 522.85 1167.15 523.55 L1168 524.15 M1133.9 534.4 L1133.75 534.25 Q1131.7 532.2 1130.75 529.95 L1130.3 528.65 1130.2 528.15 Q1129.75 526.25 1130.4 525 L1131 524.15 Q1131.4 523.75 1131.9 523.55 1133.25 522.85 1135.45 523.5 L1135.65 523.55 Q1138.5 524.4 1141.05 526.95 L1141.2 527.1 1142.25 528.65 Q1142.6 529.55 1142.6 530.65 1142.6 532.8 1141.1 534.3 1139.6 535.8 1137.45 535.8 1135.4 535.8 1133.9 534.4" />
        <path stroke="none" fill="#FFFFFF"
            d="M1193.25 494.75 Q1193.25 491.15 1190.75 488.6 1188.25 486.1 1184.6 486.1 1181.05 486.1 1178.45 488.6 1175.95 491.15 1175.95 494.75 1175.95 498.35 1178.45 500.8 1181.05 503.35 1184.6 503.35 1188.25 503.35 1190.75 500.8 1193.25 498.35 1193.25 494.75 M1198 494.55 Q1198 499.7 1194.35 503.3 1190.7 507 1185.5 507 1180.4 507 1176.7 503.3 1173.05 499.7 1173.05 494.55 1173.05 489.35 1176.7 485.7 1180.4 482.05 1185.5 482.05 1190.7 482.05 1194.35 485.7 1198 489.35 1198 494.55 M1101 494.55 Q1101 489.35 1104.65 485.7 1108.3 482.05 1113.5 482.05 1118.6 482.05 1122.3 485.7 1125.95 489.35 1125.95 494.55 1125.95 499.7 1122.3 503.3 1118.6 507 1113.5 507 1108.3 507 1104.65 503.3 1101 499.7 1101 494.55 M1105.7 494.75 Q1105.7 498.35 1108.25 500.8 1110.75 503.35 1114.4 503.35 1117.95 503.35 1120.5 500.8 1123.05 498.35 1123.05 494.75 1123.05 491.15 1120.5 488.6 1117.95 486.1 1114.4 486.1 1110.75 486.1 1108.25 488.6 1105.7 491.15 1105.7 494.75" />
        <path stroke="none" fill="#5B5B5B"
            d="M1105.7 494.75 Q1105.7 491.15 1108.25 488.6 1110.75 486.1 1114.4 486.1 1117.95 486.1 1120.5 488.6 1123.05 491.15 1123.05 494.75 1123.05 498.35 1120.5 500.8 1117.95 503.35 1114.4 503.35 1110.75 503.35 1108.25 500.8 1105.7 498.35 1105.7 494.75 M1193.25 494.75 Q1193.25 498.35 1190.75 500.8 1188.25 503.35 1184.6 503.35 1181.05 503.35 1178.45 500.8 1175.95 498.35 1175.95 494.75 1175.95 491.15 1178.45 488.6 1181.05 486.1 1184.6 486.1 1188.25 486.1 1190.75 488.6 1193.25 491.15 1193.25 494.75" />
    </g>
</svg>