<?xml version="1.0" encoding="utf-8"?>
<svg viewBox="559.981 252 151.8992 136" xmlns="http://www.w3.org/2000/svg">
    <g>
        <path stroke="none" fill="#9C619C"
            d="M670.9 261.5 L672.8 262.7 Q676.4 260.8 680.85 259.65 L680.8 259.65 Q690.3 257.1 698.2 259.3 L698.25 259.3 Q706.6 261.65 708.8 267.55 L708.95 267.95 709.75 270.75 Q713.8 285.95 710.15 298.35 L710.1 298.55 709.7 299.65 709.65 299.8 Q707.35 306.75 703.3 310.6 703.9 315.15 703.9 320 L703.9 322 703.9 322.15 Q703.4 338.3 696.3 351.75 694.2 355.65 691.55 359.35 L691.15 359.85 Q687.95 364.1 684 368.1 L679.1 372.6 679.05 372.65 Q676.9 374.45 674.6 376.05 657.7 388 635.9 388 614.05 388 597.2 376.1 L597.2 376.05 592.85 372.75 587.8 368.1 Q579.7 360 574.95 350.65 L574.7 350.05 569.15 333.35 568.95 332.2 568.9 331.9 568.7 330.9 568.7 330.7 568.65 330.5 568.65 330.3 568.6 330.1 568.45 328.6 568.35 328.1 568.35 327.8 568.3 327.45 568.3 327.4 568.25 327.15 568.25 327.05 568.25 327 568.2 326.6 568.15 326.05 568.1 325.5 567.95 322.2 567.9 320 Q567.9 315.15 568.5 310.6 564.4 306.7 562.15 299.7 L562.15 299.75 561.75 298.55 561.7 298.35 Q558.05 285.95 562.15 270.8 L562.15 270.85 562.95 267.95 563.05 267.6 Q565.15 261.65 573.65 259.35 581.55 257.15 591.05 259.7 L591 259.7 Q595.45 260.85 599.1 262.75 L601 261.55 600.95 261.55 Q616.5 252 635.9 252 655.35 252 670.9 261.5" />
        <path stroke="none" fill="#F095F0"
            d="M664.3 278.7 Q664.4 274.9 668.3 270.8 673.35 265.75 681.85 263.5 690.2 261.25 697.15 263.15 703.35 264.9 705.1 269.1 L705.85 271.75 Q709.6 285.8 706.3 297.25 L705.9 298.4 Q708.1 288.05 704.85 275.65 L704.05 272.95 Q702.35 268.8 696.1 267 689.15 265.1 680.8 267.35 672.3 269.6 667.25 274.7 665.25 276.7 664.3 278.7 M565.95 298.45 L565.55 297.25 Q562.25 285.8 566 271.8 L566.75 269.1 Q568.45 264.9 574.7 263.2 581.65 261.3 590 263.55 598.5 265.75 603.55 270.85 607.4 274.9 607.55 278.7 606.55 276.75 604.6 274.75 599.55 269.6 591.05 267.4 582.7 265.15 575.75 267.05 569.45 268.8 567.8 272.95 L567 275.7 Q563.7 288.05 565.95 298.45" />
        <path stroke="none" fill="#D987D9"
            d="M565.95 298.45 Q563.7 288.05 567 275.7 L567.8 272.95 Q569.45 268.8 575.75 267.05 582.7 265.15 591.05 267.4 599.55 269.6 604.6 274.75 606.55 276.75 607.55 278.7 L607.45 280 606.75 282.8 605.9 285.7 604.2 290.3 Q603.45 288.7 601.9 287 598.2 283.3 592.1 281.7 586.05 280.05 581.05 281.45 576.55 282.75 575.35 285.8 L574.8 287.65 Q572.1 297.75 574.5 306 L574.95 307.4 Q575.55 309.3 576.5 310.8 L575.7 310.5 Q568.95 307.8 565.95 298.45 M705.9 298.4 Q702.85 307.8 696.1 310.5 L695.35 310.75 Q696.25 309.3 696.85 307.35 L697.35 306 Q699.75 297.75 697.05 287.65 L696.45 285.75 Q695.3 282.7 690.8 281.4 685.75 280 679.75 281.65 673.65 283.3 669.95 286.95 668.35 288.7 667.65 290.25 L665.9 285.7 665.1 282.75 664.4 279.95 664.3 278.7 Q665.25 276.7 667.25 274.7 672.3 269.6 680.8 267.35 689.15 265.1 696.1 267 702.35 268.8 704.05 272.95 L704.85 275.65 Q708.1 288.05 705.9 298.4" />
        <path stroke="none" fill="#C97DC9"
            d="M695.35 310.75 L694.55 311.05 Q690.05 312.2 685.55 310.45 681.5 308.9 677.5 304.95 671.8 299.5 668.2 291.65 L667.65 290.25 Q668.35 288.7 669.95 286.95 673.65 283.3 679.75 281.65 685.75 280 690.8 281.4 695.3 282.7 696.45 285.75 L697.05 287.65 Q699.75 297.75 697.35 306 L696.85 307.35 Q696.25 309.3 695.35 310.75 M604.2 290.3 L603.65 291.65 Q600.05 299.55 594.35 304.95 590.35 308.9 586.3 310.45 581.8 312.2 577.3 311.05 L576.5 310.8 Q575.55 309.3 574.95 307.4 L574.5 306 Q572.1 297.75 574.8 287.65 L575.35 285.8 Q576.55 282.75 581.05 281.45 586.05 280.05 592.1 281.7 598.2 283.3 601.9 287 603.45 288.7 604.2 290.3" />
        <path stroke="none" fill="#FFAAFF"
            d="M571.95 322 L571.9 320 Q571.9 312.15 573.55 304.95 577.45 287.9 590.65 274.75 594.9 270.5 599.5 267.25 L603.05 264.95 Q617.65 256 635.9 256 654.2 256 668.8 264.9 L672.3 267.2 Q676.95 270.5 681.2 274.75 699.9 293.45 699.9 320 L699.9 322 Q699.2 296.75 681.2 278.75 676.8 274.35 672 271 669.2 269.05 666.25 267.45 L663.1 269.95 Q651.85 278 635.9 278 619.95 278 608.65 269.95 L605.55 267.5 Q602.6 269.1 599.8 271.05 595 274.4 590.65 278.75 579 290.35 574.65 304.95 572.2 313 571.95 322" />
        <path stroke="none" fill="#EE9FEE"
            d="M571.95 322 Q572.2 313 574.65 304.95 579 290.35 590.65 278.75 595 274.4 599.8 271.05 602.6 269.1 605.55 267.5 L608.65 269.95 Q619.95 278 635.9 278 651.85 278 663.1 269.95 L666.25 267.45 Q669.2 269.05 672 271 676.8 274.35 681.2 278.75 699.2 296.75 699.9 322 699.45 337.2 692.75 349.85 690.8 353.55 688.3 357 L688.25 357 Q685.1 361.3 681.15 365.25 L676.5 369.55 672.3 372.75 Q656.4 384 635.9 384 615.35 384 599.5 372.8 L595.4 369.65 590.6 365.25 Q583 357.65 578.5 348.8 L572.95 332.1 572.95 331.9 572.75 330.8 572.7 330.55 572.65 330.05 572.55 329.5 572.4 328.25 572.4 328.05 572.3 327.45 572.3 327.2 572.25 327 572.25 326.75 572.2 326.45 572.15 325.8 572.15 325.55 572.1 325.25 571.95 322 M684.4 322.5 Q684.4 317.3 680.75 313.65 677.1 310 671.9 310 666.8 310 663.1 313.65 659.45 317.3 659.45 322.5 659.45 327.65 663.1 331.25 666.8 334.95 671.9 334.95 677.1 334.95 680.75 331.25 684.4 327.65 684.4 322.5 M587.4 322.5 Q587.4 327.65 591.05 331.25 594.7 334.95 599.9 334.95 605 334.95 608.7 331.25 612.35 327.65 612.35 322.5 612.35 317.3 608.7 313.65 605 310 599.9 310 594.7 310 591.05 313.65 587.4 317.3 587.4 322.5" />
        <path stroke="none" fill="#FFFFFF"
            d="M587.4 322.5 Q587.4 317.3 591.05 313.65 594.7 310 599.9 310 605 310 608.7 313.65 612.35 317.3 612.35 322.5 612.35 327.65 608.7 331.25 605 334.95 599.9 334.95 594.7 334.95 591.05 331.25 587.4 327.65 587.4 322.5 M684.4 322.5 Q684.4 327.65 680.75 331.25 677.1 334.95 671.9 334.95 666.8 334.95 663.1 331.25 659.45 327.65 659.45 322.5 659.45 317.3 663.1 313.65 666.8 310 671.9 310 677.1 310 680.75 313.65 684.4 317.3 684.4 322.5 M679.65 322.7 Q679.65 319.1 677.15 316.55 674.65 314.05 671 314.05 667.45 314.05 664.85 316.55 662.35 319.1 662.35 322.7 662.35 326.3 664.85 328.75 667.45 331.3 671 331.3 674.65 331.3 677.15 328.75 679.65 326.3 679.65 322.7 M592.1 322.7 Q592.1 326.3 594.65 328.75 597.15 331.3 600.8 331.3 604.35 331.3 606.9 328.75 609.45 326.3 609.45 322.7 609.45 319.1 606.9 316.55 604.35 314.05 600.8 314.05 597.15 314.05 594.65 316.55 592.1 319.1 592.1 322.7" />
        <path stroke="none" fill="#5B5B5B"
            d="M592.1 322.7 Q592.1 319.1 594.65 316.55 597.15 314.05 600.8 314.05 604.35 314.05 606.9 316.55 609.45 319.1 609.45 322.7 609.45 326.3 606.9 328.75 604.35 331.3 600.8 331.3 597.15 331.3 594.65 328.75 592.1 326.3 592.1 322.7 M679.65 322.7 Q679.65 326.3 677.15 328.75 674.65 331.3 671 331.3 667.45 331.3 664.85 328.75 662.35 326.3 662.35 322.7 662.35 319.1 664.85 316.55 667.45 314.05 671 314.05 674.65 314.05 677.15 316.55 679.65 319.1 679.65 322.7" />
        <path stroke="none" fill="#FFC4FF"
            d="M610 348.55 L609.9 347.45 609.9 346.6 Q609.9 335.8 617.45 328.2 L619.3 326.5 Q626.4 320.6 635.9 320.6 645.4 320.6 652.45 326.55 L654.25 328.2 Q661.9 335.8 661.9 346.6 L661.9 347.45 661.85 348.5 Q661.15 339.05 654.25 332.2 L652.45 330.55 Q645.4 324.6 635.9 324.6 626.4 324.6 619.3 330.5 L617.45 332.2 Q610.65 339.05 610 348.55" />
        <path stroke="none" fill="#FFAAFF"
            d="M610 348.55 Q610.65 339.05 617.45 332.2 L619.3 330.5 Q626.4 324.6 635.9 324.6 645.4 324.6 652.45 330.55 L654.25 332.2 Q661.15 339.05 661.85 348.5 661.55 351.4 660.35 354 658.85 357.2 655.95 359.9 L654.25 361.35 Q646.65 367.4 635.9 367.4 625.1 367.4 617.45 361.35 L615.85 360 Q612.95 357.25 611.45 354.05 610.25 351.45 610 348.55 M654.4 340 Q652.9 338.5 649.95 339.35 L649.7 339.45 Q646.85 340.3 644.35 342.8 L644.2 342.95 Q643.55 343.65 643.2 344.5 642.8 345.4 642.8 346.5 642.8 348.65 644.3 350.15 645.8 351.65 647.95 351.65 650 351.65 651.5 350.25 L651.65 350.1 Q653.7 348.05 654.65 345.8 L655.1 344.5 Q655.75 342.25 655 340.85 L654.4 340 M620.3 350.25 Q621.8 351.65 623.85 351.65 626 351.65 627.5 350.15 629 348.65 629 346.5 629 345.4 628.65 344.5 L627.6 342.95 627.45 342.8 Q624.9 340.25 622.05 339.4 L621.85 339.35 Q618.9 338.5 617.4 340 L616.8 340.85 Q616.05 342.25 616.7 344.5 616.85 345.15 617.15 345.8 618.1 348.05 620.15 350.1 L620.3 350.25" />
        <path stroke="none" fill="#AF74AF"
            d="M620.3 350.25 L620.15 350.1 Q618.1 348.05 617.15 345.8 616.85 345.15 616.7 344.5 616.05 342.25 616.8 340.85 L617.4 340 Q618.9 338.5 621.85 339.35 L622.05 339.4 Q624.9 340.25 627.45 342.8 L627.6 342.95 628.65 344.5 Q629 345.4 629 346.5 629 348.65 627.5 350.15 626 351.65 623.85 351.65 621.8 351.65 620.3 350.25 M654.4 340 L655 340.85 Q655.75 342.25 655.1 344.5 L654.65 345.8 Q653.7 348.05 651.65 350.1 L651.5 350.25 Q650 351.65 647.95 351.65 645.8 351.65 644.3 350.15 642.8 348.65 642.8 346.5 642.8 345.4 643.2 344.5 643.55 343.65 644.2 342.95 L644.35 342.8 Q646.85 340.3 649.7 339.45 L649.95 339.35 Q652.9 338.5 654.4 340" />
        <path stroke="none" fill="#000000" fill-opacity="0.10196078431372549"
            d="M655.95 359.9 L655.5 361 Q653.95 364.25 650.6 366.9 644.5 371.75 635.9 371.75 627.25 371.75 621.1 366.9 617.8 364.3 616.3 361.05 L615.85 360 617.45 361.35 Q625.1 367.4 635.9 367.4 646.65 367.4 654.25 361.35 L655.95 359.9" />
    </g>
</svg>