<?xml version="1.0" encoding="utf-8"?>
<svg viewBox="1081.5 991.4921 136 164.5079" xmlns="http://www.w3.org/2000/svg">
    <g>
        <path stroke="none" fill="#747070"
            d="M1089.8 1031.6 Q1089.35 1013.65 1096.15 995.75 L1096.2 995.7 Q1097.05 993.4 1099.25 992.3 L1099.3 992.25 Q1101.65 991.05 1104 991.75 L1103.95 991.75 Q1106.35 992.35 1107.75 994.55 L1107.75 994.5 1126.85 1023.7 Q1137.4 1020 1149.5 1020 1161.6 1020 1172.2 1023.7 L1191.25 994.5 1191.25 994.55 Q1192.65 992.35 1195.1 991.75 L1195.05 991.75 Q1197.35 991.05 1199.7 992.25 L1199.8 992.3 Q1201.95 993.4 1202.85 995.7 L1202.85 995.75 Q1209.65 1013.65 1209.2 1031.6 1208.95 1041.25 1206.7 1050.9 1217.5 1067.15 1217.5 1088 L1217.5 1090 1217.5 1090.15 Q1217 1106.3 1209.9 1119.75 1207.8 1123.65 1205.15 1127.35 L1204.85 1127.7 1204.8 1127.85 1204.65 1128.05 Q1201.45 1132.2 1197.6 1136.1 L1192.7 1140.6 1192.65 1140.65 1188.2 1144.05 Q1171.3 1156 1149.5 1156 1127.65 1156 1110.8 1144.1 L1110.8 1144.05 Q1108.55 1142.45 1106.45 1140.75 L1101.4 1136.1 Q1097.45 1132.15 1094.4 1128 1090.95 1123.45 1088.55 1118.6 L1088.3 1118.05 1082.75 1101.35 1082.55 1100.2 1082.55 1100.1 1082.5 1099.9 1082.3 1098.85 1082.3 1098.7 1082.25 1098.5 1082.25 1098.3 1082.2 1098.1 1082.05 1096.6 1081.95 1096.1 1081.95 1095.8 1081.9 1095.45 1081.9 1095.4 1081.85 1095.15 1081.85 1095.05 1081.85 1095 1081.8 1094.6 1081.75 1094.05 1081.7 1093.5 1081.55 1090.2 1081.5 1088 Q1081.5 1067.2 1092.35 1050.95 1090.05 1041.25 1089.8 1031.6" />
        <path stroke="none" fill="#958F8F"
            d="M1093.8 1031.5 Q1094.2 1016.35 1099.9 1001.15 1100.25 1000.25 1101.1 999.8 L1102.9 999.6 Q1103.85 999.85 1104.4 1000.7 L1124.35 1031.3 1123.2 1033.15 1111.05 1019.7 Q1110.65 1019.3 1110 1019.45 1109.35 1019.55 1108.75 1020.1 1108.15 1020.65 1107.95 1021.4 1100.75 1043.45 1105.7 1060.3 L1104.4 1062.35 Q1103.9 1063.15 1102.95 1063.45 L1101.1 1063.25 Q1100.25 1062.8 1099.9 1061.9 1094.2 1046.7 1093.8 1031.5 M1174.65 1031.3 L1194.6 1000.7 Q1195.15 999.85 1196.1 999.6 L1197.9 999.8 Q1198.75 1000.25 1199.1 1001.15 1204.8 1016.35 1205.2 1031.5 1204.8 1046.7 1199.1 1061.9 1198.75 1062.8 1197.9 1063.25 L1196.05 1063.45 Q1195.1 1063.15 1194.6 1062.35 L1193.3 1060.3 Q1198.25 1043.45 1191.05 1021.4 1190.85 1020.65 1190.25 1020.1 1189.65 1019.55 1189 1019.45 1188.35 1019.3 1187.95 1019.7 L1175.8 1033.15 1174.65 1031.3" />
        <path stroke="none" fill="#B1A9A9"
            d="M1174.65 1031.3 L1174.2 1030.6 Q1173.8 1030 1173.8 1029.25 1173.8 1028.5 1174.2 1027.9 L1194.6 996.7 Q1195.15 995.85 1196.1 995.6 L1197.9 995.8 Q1198.75 996.25 1199.1 997.15 1205.6 1014.3 1205.2 1031.5 1204.8 1016.35 1199.1 1001.15 1198.75 1000.25 1197.9 999.8 L1196.1 999.6 Q1195.15 999.85 1194.6 1000.7 L1174.65 1031.3 M1124.35 1031.3 L1104.4 1000.7 Q1103.85 999.85 1102.9 999.6 L1101.1 999.8 Q1100.25 1000.25 1099.9 1001.15 1094.2 1016.35 1093.8 1031.5 1093.4 1014.3 1099.9 997.15 1100.25 996.25 1101.1 995.8 L1102.9 995.6 Q1103.85 995.85 1104.4 996.7 L1124.8 1027.9 Q1125.2 1028.5 1125.2 1029.25 1125.2 1030 1124.8 1030.6 L1124.35 1031.3" />
        <path stroke="none" fill="#D2D0D0"
            d="M1105.7 1060.3 Q1100.75 1043.45 1107.95 1021.4 1108.15 1020.65 1108.75 1020.1 1109.35 1019.55 1110 1019.45 1110.65 1019.3 1111.05 1019.7 L1123.2 1033.15 1105.7 1060.3 M1175.8 1033.15 L1187.95 1019.7 Q1188.35 1019.3 1189 1019.45 1189.65 1019.55 1190.25 1020.1 1190.85 1020.65 1191.05 1021.4 1198.25 1043.45 1193.3 1060.3 L1175.8 1033.15" />
        <path stroke="none" fill="#B1A9A9"
            d="M1085.55 1090 L1085.5 1088 Q1085.5 1061.45 1104.25 1042.75 1108.5 1038.5 1113.1 1035.25 L1116.65 1032.95 Q1131.25 1024 1149.5 1024 1167.8 1024 1182.4 1032.9 L1185.9 1035.2 Q1190.55 1038.5 1194.8 1042.75 1213.5 1061.45 1213.5 1088 L1213.5 1090 Q1212.8 1064.75 1194.8 1046.75 1190.4 1042.35 1185.6 1039 1182.8 1037.05 1179.85 1035.45 L1176.7 1037.95 Q1165.45 1046 1149.5 1046 1133.55 1046 1122.25 1037.95 L1119.15 1035.5 Q1116.2 1037.1 1113.4 1039.05 1108.6 1042.4 1104.25 1046.75 1086.2 1064.75 1085.55 1090" />
        <path stroke="none" fill="#9F9898"
            d="M1213.5 1090 Q1213.05 1105.2 1206.35 1117.85 1204.4 1121.55 1201.9 1125 L1201.85 1125 1201.45 1125.6 Q1199.8 1113 1186.15 1108.4 1199.15 1105.35 1205 1092.55 1210.85 1079.65 1200.9 1063.8 1190.9 1047.95 1175.3 1055.85 1159.65 1063.7 1158.65 1091.9 L1140.35 1091.9 Q1139.35 1063.7 1123.7 1055.85 1108.1 1047.95 1098.1 1063.8 1088.15 1079.65 1094 1092.55 1099.85 1105.35 1112.85 1108.4 1099.2 1113 1097.6 1125.6 1094.4 1121.35 1092.1 1116.8 L1086.55 1100.1 1086.55 1099.9 1086.35 1098.8 1086.3 1098.55 1086.25 1098.05 1086.15 1097.5 1086 1096.25 1086 1096.05 1085.9 1095.45 1085.9 1095.2 1085.85 1095 1085.85 1094.75 1085.8 1094.45 1085.75 1093.8 1085.75 1093.55 1085.7 1093.25 1085.55 1090 Q1086.2 1064.75 1104.25 1046.75 1108.6 1042.4 1113.4 1039.05 1116.2 1037.1 1119.15 1035.5 L1122.25 1037.95 Q1133.55 1046 1149.5 1046 1165.45 1046 1176.7 1037.95 L1179.85 1035.45 Q1182.8 1037.05 1185.6 1039 1190.4 1042.35 1194.8 1046.75 1212.8 1064.75 1213.5 1090" />
        <path stroke="none" fill="#D2D0D0"
            d="M1201.45 1125.6 Q1198.45 1129.55 1194.75 1133.25 L1190.1 1137.55 1185.9 1140.75 Q1170 1152 1149.5 1152 1128.95 1152 1113.1 1140.8 1111 1139.3 1109 1137.65 L1104.2 1133.25 Q1100.5 1129.55 1097.6 1125.6 1099.2 1113 1112.85 1108.4 1099.85 1105.35 1094 1092.55 1088.15 1079.65 1098.1 1063.8 1108.1 1047.95 1123.7 1055.85 1139.35 1063.7 1140.35 1091.9 L1158.65 1091.9 Q1159.65 1063.7 1175.3 1055.85 1190.9 1047.95 1200.9 1063.8 1210.85 1079.65 1205 1092.55 1199.15 1105.35 1186.15 1108.4 1199.8 1113 1201.45 1125.6" />
        <path stroke="none" fill="#383838"
            d="M1153.95 1106.95 L1154.8 1107.95 1156.85 1109.45 Q1158.25 1110.1 1159.9 1110.1 1162.9 1110.1 1165.05 1107.95 L1166.3 1106.3 1166.8 1105.85 1167.5 1105.9 1172.2 1108.35 1172.65 1108.85 1172.6 1109.5 1171.1 1111.8 1170.05 1112.95 Q1165.8 1117.15 1159.9 1117.15 1154 1117.15 1149.8 1112.95 L1149.5 1112.65 1149.2 1112.95 Q1144.95 1117.15 1139.05 1117.15 1133.1 1117.15 1128.95 1112.95 L1127.9 1111.8 1126.4 1109.6 Q1126.2 1109.25 1126.35 1108.95 1126.4 1108.6 1126.75 1108.4 L1131.35 1105.85 1132 1105.75 1132.55 1106.2 1133.9 1107.95 Q1136.05 1110.1 1139.05 1110.1 1140.7 1110.1 1142.15 1109.45 1143.25 1108.9 1144.2 1107.95 L1145.05 1106.95 Q1149.7 1108.7 1153.95 1106.95" />
        <path stroke="none" fill="#545454"
            d="M1136.65 1096.95 L1136.45 1094.6 1136.45 1093.7 Q1136.75 1091.3 1140.25 1089.6 1144.1 1087.75 1149.5 1087.75 1154.9 1087.75 1158.75 1089.6 1162.2 1091.3 1162.55 1093.7 L1162.55 1094.6 1162.35 1096.95 Q1161.65 1095.05 1158.75 1093.6 1154.9 1091.75 1149.5 1091.75 1144.1 1091.75 1140.25 1093.6 1137.35 1095 1136.65 1096.95" />
        <path stroke="none" fill="#464646"
            d="M1136.65 1096.95 Q1137.35 1095 1140.25 1093.6 1144.1 1091.75 1149.5 1091.75 1154.9 1091.75 1158.75 1093.6 1161.65 1095.05 1162.35 1096.95 1161.7 1100.9 1158.75 1103.85 1156.6 1106 1153.95 1106.95 1149.7 1108.7 1145.05 1106.95 1142.4 1106 1140.25 1103.85 1137.3 1100.9 1136.65 1096.95" />
        <path stroke="none" fill="#5B5B5B"
            d="M1107.7 1084 Q1107.8 1081.65 1110.25 1079.95 1112.75 1078.25 1116.4 1078.25 1119.95 1078.25 1122.5 1079.95 1124.95 1081.65 1125.05 1084 L1125.05 1084.3 Q1124.95 1086.65 1122.5 1088.25 1119.95 1090 1116.4 1090 1112.75 1090 1110.25 1088.25 1107.8 1086.65 1107.7 1084.3 L1107.7 1084 M1191.25 1084 L1191.25 1084.3 Q1191.15 1086.65 1188.75 1088.25 1186.25 1090 1182.6 1090 1179.05 1090 1176.45 1088.25 1174.05 1086.65 1173.95 1084.3 L1173.95 1084 Q1174.05 1081.65 1176.45 1079.95 1179.05 1078.25 1182.6 1078.25 1186.25 1078.25 1188.75 1079.95 1191.15 1081.65 1191.25 1084" />
        <path stroke="none" fill="#FFFFFF"
            d="M1191.25 1084 Q1191.15 1081.65 1188.75 1079.95 1186.25 1078.25 1182.6 1078.25 1179.05 1078.25 1176.45 1079.95 1174.05 1081.65 1173.95 1084 L1173.95 1084.3 Q1174.05 1086.65 1176.45 1088.25 1179.05 1090 1182.6 1090 1186.25 1090 1188.75 1088.25 1191.15 1086.65 1191.25 1084.3 L1191.25 1084 M1107.7 1084 L1107.7 1084.3 Q1107.8 1086.65 1110.25 1088.25 1112.75 1090 1116.4 1090 1119.95 1090 1122.5 1088.25 1124.95 1086.65 1125.05 1084.3 L1125.05 1084 Q1124.95 1081.65 1122.5 1079.95 1119.95 1078.25 1116.4 1078.25 1112.75 1078.25 1110.25 1079.95 1107.8 1081.65 1107.7 1084 M1103 1083.95 Q1103 1078.75 1106.65 1075.1 1110.3 1071.45 1115.5 1071.45 1120.6 1071.45 1124.3 1075.1 1127.95 1078.75 1127.95 1083.95 1127.95 1089.1 1124.3 1092.7 1120.6 1096.4 1115.5 1096.4 1110.3 1096.4 1106.65 1092.7 1103 1089.1 1103 1083.95 M1196 1083.95 Q1196 1089.1 1192.35 1092.7 1188.7 1096.4 1183.5 1096.4 1178.4 1096.4 1174.7 1092.7 1171.05 1089.1 1171.05 1083.95 1171.05 1078.75 1174.7 1075.1 1178.4 1071.45 1183.5 1071.45 1188.7 1071.45 1192.35 1075.1 1196 1078.75 1196 1083.95" />
    </g>
</svg>