<?xml version="1.0" encoding="utf-8"?>
<svg viewBox="827.7 1020 136 136" xmlns="http://www.w3.org/2000/svg">
    <g>
        <path stroke="none" fill="#6D4526"
            d="M936.55 1033.55 L938.35 1034.95 Q941.15 1037.25 943.8 1039.9 L944.9 1041.05 Q951.7 1048.15 956.1 1056.3 L956.1 1056.35 Q958.75 1061.4 960.5 1066.85 L960.5 1066.8 961.8 1071.4 Q963.7 1079.3 963.7 1088 L963.7 1090 963.7 1090.1 Q963.6 1094.85 962.85 1099.45 961.2 1109.95 956.4 1119.1 951.65 1128.25 943.8 1136.05 L941.4 1138.3 937.3 1141.85 Q919.4 1156 895.7 1156 872 1156 854.15 1141.85 L854.1 1141.85 850 1138.3 847.65 1136.05 Q828.45 1116.95 827.75 1090.2 L827.7 1088 Q827.7 1070.6 835.35 1056.35 L835.35 1056.3 Q839.7 1048.15 846.6 1041 L847.65 1039.9 Q850.3 1037.2 853.15 1034.9 L853.1 1034.9 854.95 1033.5 Q872.5 1020 895.7 1020 918.95 1020 936.55 1033.55" />
        <path stroke="none" fill="#BD7841"
            d="M831.75 1090 L831.7 1088 Q831.7 1071.65 838.85 1058.2 843 1050.45 849.55 1043.65 L850.45 1042.7 855.65 1038 857.35 1036.65 Q873.9 1024 895.7 1024 917.55 1024 934.1 1036.7 L935.8 1038.05 940.95 1042.7 941.9 1043.7 Q948.4 1050.45 952.55 1058.2 955.05 1062.95 956.7 1068.05 L957.9 1072.3 Q959.7 1079.8 959.7 1088 L959.7 1090 Q959.45 1080.65 956.8 1072.3 L955.3 1068.05 Q950.6 1056.35 940.95 1046.7 925.85 1031.65 905.7 1028.7 L895.7 1028 885.7 1028.7 Q865.55 1031.65 850.45 1046.7 832.4 1064.8 831.75 1090" />
        <path stroke="none" fill="#A16639"
            d="M831.75 1090 Q832.4 1064.8 850.45 1046.7 865.55 1031.65 885.7 1028.7 L895.7 1028 905.7 1028.7 Q925.85 1031.65 940.95 1046.7 950.6 1056.35 955.3 1068.05 L956.8 1072.3 Q959.45 1080.65 959.7 1090 959.6 1094.5 958.9 1098.8 957.35 1108.65 952.85 1117.25 948.35 1125.85 940.95 1133.2 L938.7 1135.35 934.8 1138.7 Q928.5 1133.35 921.25 1130.1 926.35 1127.95 930.9 1124.8 L931.7 1124.2 935.4 1121.3 936.45 1120.35 Q946.35 1111 946 1100.45 945.7 1090 938.85 1098.2 936.55 1100.9 932.65 1101.95 L932.6 1101.95 Q926.6 1103.55 921.25 1100.45 L918.9 1098.8 Q915.5 1095.9 914.3 1091.35 912.7 1085.35 915.8 1079.95 918.85 1074.65 924.85 1073 L924.9 1073 928.95 1072.3 932 1072.3 Q938.05 1072.35 933.4 1068.1 L933.4 1068.05 931.7 1066.45 930.95 1065.85 Q925.55 1061.15 919.4 1058.2 916 1056.6 912.35 1055.5 913.05 1052.1 913.2 1048.3 L913.2 1047.45 Q913.2 1042.25 908.05 1038.6 902.95 1034.95 895.7 1034.95 888.45 1034.95 883.3 1038.6 878.2 1042.25 878.2 1047.45 L878.25 1048.3 Q878.4 1052.1 879.05 1055.55 868.4 1058.75 859.8 1066.45 L858.1 1068.05 Q854.1 1072.65 860.45 1072.3 L861.4 1072.3 866.45 1073.05 866.5 1073.05 Q872.5 1074.7 875.55 1080 878.65 1085.4 877.05 1091.4 875.9 1095.9 872.5 1098.8 871.4 1099.75 870.1 1100.5 864.75 1103.6 858.75 1102 L858.7 1102 Q854.75 1100.95 852.75 1098.75 845.45 1090.8 844.85 1098.8 845.05 1111.25 855.4 1120.75 L858.1 1122.95 859.8 1124.2 Q864.65 1127.75 870.2 1130.15 862.9 1133.4 856.6 1138.7 L852.7 1135.35 850.45 1133.2 Q832.4 1115.2 831.75 1090 M928.35 1078.65 Q924.5 1078.65 921.8 1081.35 919.1 1084.1 919.1 1087.95 919.1 1091.75 921.8 1094.5 924.5 1097.2 928.35 1097.2 932.2 1097.2 934.8 1094.5 937.6 1091.75 937.6 1087.95 937.6 1084.1 934.8 1081.35 932.2 1078.65 928.35 1078.65 M863 1078.7 Q859.15 1078.7 856.55 1081.4 853.75 1084.15 853.75 1088 853.75 1091.8 856.55 1094.55 859.15 1097.25 863 1097.25 866.85 1097.25 869.55 1094.55 872.25 1091.8 872.25 1088 872.25 1084.15 869.55 1081.4 866.85 1078.7 863 1078.7" />
        <path stroke="none" fill="#AA6C3C"
            d="M879.05 1055.55 Q878.4 1052.1 878.25 1048.3 L878.2 1047.45 Q878.2 1042.25 883.3 1038.6 888.45 1034.95 895.7 1034.95 902.95 1034.95 908.05 1038.6 913.2 1042.25 913.2 1047.45 L913.2 1048.3 Q913.05 1052.1 912.35 1055.5 904.55 1053.15 895.7 1053.15 L894.1 1053.2 Q886.15 1053.4 879.05 1055.55" />
        <path stroke="none" fill="#EBCEB7"
            d="M879.05 1055.55 Q886.15 1053.4 894.1 1053.2 L895.7 1053.15 Q904.55 1053.15 912.35 1055.5 916 1056.6 919.4 1058.2 925.55 1061.15 930.95 1065.85 L931.7 1066.45 933.4 1068.05 933.4 1068.1 Q938.05 1072.35 932 1072.3 L928.95 1072.3 924.9 1073 924.85 1073 Q918.85 1074.65 915.8 1079.95 912.7 1085.35 914.3 1091.35 915.5 1095.9 918.9 1098.8 L921.25 1100.45 Q926.6 1103.55 932.6 1101.95 L932.65 1101.95 Q936.55 1100.9 938.85 1098.2 945.7 1090 946 1100.45 946.35 1111 936.45 1120.35 L935.4 1121.3 931.7 1124.2 930.9 1124.8 Q926.35 1127.95 921.25 1130.1 L919.4 1130.85 Q908.7 1134.95 895.7 1134.95 L894.1 1134.95 Q882.3 1134.7 872.45 1131.05 L870.2 1130.15 Q864.65 1127.75 859.8 1124.2 L858.1 1122.95 855.4 1120.75 Q845.05 1111.25 844.85 1098.8 845.45 1090.8 852.75 1098.75 854.75 1100.95 858.7 1102 L858.75 1102 Q864.75 1103.6 870.1 1100.5 871.4 1099.75 872.5 1098.8 875.9 1095.9 877.05 1091.4 878.65 1085.4 875.55 1080 872.5 1074.7 866.5 1073.05 L866.45 1073.05 861.4 1072.3 860.45 1072.3 Q854.1 1072.65 858.1 1068.05 L859.8 1066.45 Q868.4 1058.75 879.05 1055.55 M882.85 1098.1 L883 1098.8 Q883.75 1102.3 886.45 1105 888.6 1107.15 891.25 1108.1 L890.4 1109.1 888.35 1110.6 Q886.9 1111.25 885.25 1111.25 882.25 1111.25 880.1 1109.1 L878.75 1107.35 Q878.55 1107 878.2 1106.9 L877.55 1107 872.95 1109.55 Q872.6 1109.75 872.55 1110.1 872.4 1110.4 872.6 1110.75 L874.1 1112.95 875.15 1114.1 Q879.3 1118.3 885.25 1118.3 891.15 1118.3 895.4 1114.1 L895.7 1113.8 896 1114.1 Q900.2 1118.3 906.1 1118.3 912 1118.3 916.25 1114.1 L917.3 1112.95 918.8 1110.65 918.85 1110 918.4 1109.5 913.7 1107.05 913 1107 912.5 1107.45 911.25 1109.1 Q909.1 1111.25 906.1 1111.25 904.45 1111.25 903.05 1110.6 901.95 1110.05 901 1109.1 L900.15 1108.1 Q902.8 1107.15 904.95 1105 907.65 1102.3 908.45 1098.8 L908.55 1098.1 908.75 1095.75 908.75 1094.85 Q908.4 1092.45 904.95 1090.75 901.1 1088.9 895.7 1088.9 890.3 1088.9 886.45 1090.75 882.95 1092.45 882.65 1094.85 L882.65 1095.75 882.85 1098.1" />
        <path stroke="none" fill="#FFFFFF"
            d="M928.35 1078.65 Q932.2 1078.65 934.8 1081.35 937.6 1084.1 937.6 1087.95 937.6 1091.75 934.8 1094.5 932.2 1097.2 928.35 1097.2 924.5 1097.2 921.8 1094.5 919.1 1091.75 919.1 1087.95 919.1 1084.1 921.8 1081.35 924.5 1078.65 928.35 1078.65 M928.5 1083.15 Q926.05 1083.15 924.4 1084.85 922.7 1086.55 922.7 1088.95 922.7 1091.35 924.4 1093.1 926.05 1094.8 928.5 1094.8 930.9 1094.8 932.55 1093.1 934.3 1091.35 934.3 1088.95 934.3 1086.55 932.55 1084.85 930.9 1083.15 928.5 1083.15 M863 1078.7 Q866.85 1078.7 869.55 1081.4 872.25 1084.15 872.25 1088 872.25 1091.8 869.55 1094.55 866.85 1097.25 863 1097.25 859.15 1097.25 856.55 1094.55 853.75 1091.8 853.75 1088 853.75 1084.15 856.55 1081.4 859.15 1078.7 863 1078.7 M862.85 1083.2 Q860.45 1083.2 858.8 1084.9 857.05 1086.6 857.05 1089 857.05 1091.4 858.8 1093.15 860.45 1094.85 862.85 1094.85 865.3 1094.85 866.95 1093.15 868.65 1091.4 868.65 1089 868.65 1086.6 866.95 1084.9 865.3 1083.2 862.85 1083.2" />
        <path stroke="none" fill="#5B5B5B"
            d="M862.85 1083.2 Q865.3 1083.2 866.95 1084.9 868.65 1086.6 868.65 1089 868.65 1091.4 866.95 1093.15 865.3 1094.85 862.85 1094.85 860.45 1094.85 858.8 1093.15 857.05 1091.4 857.05 1089 857.05 1086.6 858.8 1084.9 860.45 1083.2 862.85 1083.2 M928.5 1083.15 Q930.9 1083.15 932.55 1084.85 934.3 1086.55 934.3 1088.95 934.3 1091.35 932.55 1093.1 930.9 1094.8 928.5 1094.8 926.05 1094.8 924.4 1093.1 922.7 1091.35 922.7 1088.95 922.7 1086.55 924.4 1084.85 926.05 1083.15 928.5 1083.15" />
        <path stroke="none" fill="#545454"
            d="M882.85 1098.1 L882.65 1095.75 882.65 1094.85 Q882.95 1092.45 886.45 1090.75 890.3 1088.9 895.7 1088.9 901.1 1088.9 904.95 1090.75 908.4 1092.45 908.75 1094.85 L908.75 1095.75 908.55 1098.1 Q907.85 1096.2 904.95 1094.75 901.1 1092.9 895.7 1092.9 890.3 1092.9 886.45 1094.75 883.55 1096.15 882.85 1098.1" />
        <path stroke="none" fill="#464646"
            d="M882.85 1098.1 Q883.55 1096.15 886.45 1094.75 890.3 1092.9 895.7 1092.9 901.1 1092.9 904.95 1094.75 907.85 1096.2 908.55 1098.1 L908.45 1098.8 Q907.65 1102.3 904.95 1105 902.8 1107.15 900.15 1108.1 895.9 1109.85 891.25 1108.1 888.6 1107.15 886.45 1105 883.75 1102.3 883 1098.8 L882.85 1098.1" />
        <path stroke="none" fill="#383838"
            d="M900.15 1108.1 L901 1109.1 Q901.95 1110.05 903.05 1110.6 904.45 1111.25 906.1 1111.25 909.1 1111.25 911.25 1109.1 L912.5 1107.45 913 1107 913.7 1107.05 918.4 1109.5 918.85 1110 918.8 1110.65 917.3 1112.95 916.25 1114.1 Q912 1118.3 906.1 1118.3 900.2 1118.3 896 1114.1 L895.7 1113.8 895.4 1114.1 Q891.15 1118.3 885.25 1118.3 879.3 1118.3 875.15 1114.1 L874.1 1112.95 872.6 1110.75 Q872.4 1110.4 872.55 1110.1 872.6 1109.75 872.95 1109.55 L877.55 1107 878.2 1106.9 Q878.55 1107 878.75 1107.35 L880.1 1109.1 Q882.25 1111.25 885.25 1111.25 886.9 1111.25 888.35 1110.6 L890.4 1109.1 891.25 1108.1 Q895.9 1109.85 900.15 1108.1" />
        <path stroke="none" fill="#955E34"
            d="M934.8 1138.7 Q918 1152 895.7 1152 873.4 1152 856.6 1138.7 862.9 1133.4 870.2 1130.15 L872.45 1131.05 Q882.3 1134.7 894.1 1134.95 L895.7 1134.95 Q908.7 1134.95 919.4 1130.85 L921.25 1130.1 Q928.5 1133.35 934.8 1138.7" />
    </g>
</svg>